/* XPM */
static char *result[] = {
/* columns rows colors chars-per-pixel */
"50 50 172 2 ",
"   c #241319",
".  c #25131A",
"X  c #26131B",
"o  c #331F1D",
"O  c #34201E",
"+  c #382220",
"@  c #3A2420",
"#  c #3B2620",
"$  c #402921",
"%  c #412A22",
"&  c #493124",
"*  c #493226",
"=  c #533A26",
"-  c #61442A",
";  c #64472B",
":  c #664A2C",
">  c #72532F",
",  c #775731",
"<  c #775937",
"1  c #785831",
"2  c #785936",
"3  c #876534",
"4  c #886534",
"5  c #9C783E",
"6  c #A47C3C",
"7  c #A47D3E",
"8  c #A67F3F",
"9  c #9C7D51",
"0  c #A68147",
"q  c #A48049",
"w  c #BF974B",
"e  c #BFA16C",
"r  c #C49746",
"t  c #C49748",
"y  c #C1994B",
"u  c #C4984A",
"i  c #C4984C",
"p  c #C99C49",
"a  c #C99D4A",
"s  c #C99D4D",
"d  c #C99E4E",
"f  c #C99F52",
"g  c #C99F53",
"h  c #CCA04B",
"j  c #D0A44E",
"k  c #C9A056",
"l  c #C9A057",
"z  c #CCA254",
"x  c #CCA55E",
"c  c #D0A756",
"v  c #D4A850",
"b  c #D8AC52",
"n  c #D8AC53",
"m  c #D0A95F",
"M  c #DBB257",
"N  c #DCB155",
"B  c #DDB155",
"V  c #DDB256",
"C  c #DEB356",
"Z  c #DDB258",
"A  c #D8B05F",
"S  c #DEB45C",
"D  c #DEB55E",
"F  c #E1B658",
"G  c #E4B959",
"H  c #E4B95B",
"J  c #E6BB5A",
"K  c #EABF5D",
"L  c #C1A26C",
"P  c #D0AB67",
"I  c #D0AC68",
"U  c #DDB563",
"Y  c #DDB665",
"T  c #DDB666",
"R  c #D8B36B",
"E  c #DEB868",
"W  c #D4B170",
"Q  c #D8B677",
"!  c #DDB971",
"~  c #DDBA73",
"^  c #DDBA75",
"/  c #DEBD7B",
"(  c #E4BF6D",
")  c #ECC15E",
"_  c #ECC15F",
"`  c #EDC25F",
"'  c #EDC568",
"]  c #ECC66F",
"[  c #EDC76F",
"{  c #F0C560",
"}  c #F1C661",
"|  c #F1C762",
" . c #F0C663",
".. c #F5CA63",
"X. c #F5CB63",
"o. c #F1C865",
"O. c #F8CE65",
"+. c #F9CE65",
"@. c #F9CF67",
"#. c #F5CE6E",
"$. c #FBD066",
"%. c #FCD267",
"&. c #FDD268",
"*. c #FDD368",
"=. c #FCD369",
"-. c #FFD569",
";. c #FDD46B",
":. c #FFD56A",
">. c #FFD66B",
",. c #FFD66E",
"<. c #EAC675",
"1. c #ECC875",
"2. c #E4C47F",
"3. c #F1CD78",
"4. c #F1CE7B",
"5. c #F1CF7E",
"6. c #FFD874",
"7. c #F5D179",
"8. c #FBD67A",
"9. c #FFDB7F",
"0. c #DCBD81",
"q. c #DDBE80",
"w. c #DDBE82",
"e. c #DDBE83",
"r. c #DEC085",
"t. c #DEC086",
"y. c #DBC290",
"u. c #ECCD86",
"i. c #E1C58C",
"p. c #ECCE8C",
"a. c #F5D487",
"s. c #F9D783",
"d. c #FBD881",
"f. c #FCD980",
"g. c #F5D78E",
"h. c #FDDC89",
"j. c #FFDE8A",
"k. c #E4C991",
"l. c #E4C993",
"z. c #E6CC97",
"x. c #EAD29F",
"c. c #F1D491",
"v. c #F1D594",
"b. c #F1D697",
"n. c #FFE194",
"m. c #FDE39E",
"M. c #FDE29F",
"N. c #ECD4A2",
"B. c #ECD5A4",
"V. c #EDD7A6",
"C. c #F0D8A2",
"Z. c #F9DFA0",
"A. c #F1DBAA",
"S. c #F0DBAC",
"D. c #F1DCAD",
"F. c #F1DCAE",
"G. c #FBE2A4",
"H. c #FFE7A9",
"J. c #F5E2B6",
"K. c #F5E3B7",
"L. c #F9E7BC",
"P. c #F8E7BD",
"I. c #F9E7BE",
"U. c #FFECBD",
"Y. c #FBEAC2",
"T. c #FBEAC3",
"R. c #FCEDC6",
"E. c #FDEDC7",
"W. c #FDEFC9",
"Q. c #FFF0C8",
"!. c #FFF0CB",
"~. c None",
/* pixels */
"~.~.~.~.~.~.~.~.~.~.~.~.~.~.~.~.~.~.~.~.~.~.~.~.~.~.~.~.~.~.~.~.~.~.~.~.~.~.~.~.~.~.~.~.~.~.~.~.~.~.",
"~.~.~.~.~.~.~.~.~.~.~.~.~.~.~.~.~.~.~.~.~.~.~.~.~.~.~.~.~.~.~.~.~.~.~.~.~.~.~.~.~.~.~.~.~.~.~.~.~.~.",
"~.~.~.~.~.~.~.~.~.~.~.~.~.~.~.~.~.~.~.~.~.~.~.~.~.~.~.~.~.~.~.~.~.~.~.~.~.~.~.~.~.~.~.~.~.~.~.~.~.~.",
"~.~.~.~.~.~.~.~.~.~.~.~.~.~.~.~.~.~.~.~.~.~.~.~.~.~.~.~.~.~.~.~.~.~.~.~.~.~.~.~.~.~.~.~.~.~.~.~.~.~.",
"~.~.~.~.~.~.~.~.~.~.~.~.~.~.~.~.~.~.~.~.~.~.~.~.~.~.~.~.~.~.~.~.~.~.~.~.~.~.~.~.~.~.~.~.~.~.~.~.~.~.",
"~.~.~.~.~.~.~.~.~.~.~.~.~.~.~.~.~.~.~.~.~.~.~.~.~.~.~.~.~.~.~.~.~.~.~.~.~.~.~.~.~.~.~.~.~.~.~.~.~.~.",
"~.~.~.~.~.~.~.~.~.~.~.~.~.~.~.~.~.~.~.~.~.~.~.~.~.~.~.~.~.~.~.~.~.~.~.~.~.~.~.~.~.~.~.~.~.~.~.~.~.~.",
"~.~.~.~.~.~.~.~.~.~.~.~.~.~.~.~.~.~.~.~.~.~.~.~.~.~.~.~.~.~.~.~.~.~.~.~.~.~.~.~.~.~.~.~.~.~.~.~.~.~.",
"~.~.~.~.~.~.~.~.~.~.~.~.~.~.~.~.~.~.~.~.~.~.~.~.~.~.~.~.~.~.~.~.~.~.~.~.~.~.~.~.~.~.~.~.~.~.~.~.~.~.",
"~.~.~.~.~.~.~.~.~.~.~.~.~.~.~.~.~.~.~.~.. . . . . . . . . . ~.~.~.~.~.~.~.~.~.~.~.~.~.~.~.~.~.~.~.~.",
"~.~.~.~.~.~.~.~.~.~.~.~.~.~.~.~.~.~.~.  . . . . . . . . . .   ~.~.~.~.~.~.~.~.~.~.~.~.~.~.~.~.~.~.~.",
"~.~.~.~.~.~.~.~.~.~.~.~.~.~.~.~.~.~.# $ % % % % % % % % % % $ # ~.~.~.~.~.~.~.~.~.~.~.~.~.~.~.~.~.~.",
"~.~.~.~.~.~.~.~.~.~.~.~.~.~.~.~.~.o = : > > > > > > > > > > : = o ~.~.~.~.~.~.~.~.~.~.~.~.~.~.~.~.~.",
"~.~.~.~.~.~.~.~.~.~.~.~.~.~.~.~.X O - 3 6 6 6 6 6 6 6 6 6 6 3 - O X ~.~.~.~.~.~.~.~.~.~.~.~.~.~.~.~.",
"~.~.~.~.~.~.~.~.~.~.~.~.~.~.~.+ @ * < q l l l l l l l g d a 7 , & @ + ~.~.~.~.~.~.~.~.~.~.~.~.~.~.~.",
"~.~.~.~.~.~.~.~.~.~.~.~.~.~.+ = ; 2 9 e e.e.e.e.e.e.e.^ T Z w 5 1 ; = + ~.~.~.~.~.~.~.~.~.~.~.~.~.~.",
"~.~.~.~.~.~.~.~.~.~.~.~.~.X @ ; 4 0 L y.F.F.F.F.F.F.F.b.5.o.M y 8 4 ; @ X ~.~.~.~.~.~.~.~.~.~.~.~.~.",
"~.~.~.~.~.~.~.~.~.~.~.~.o O * 2 0 x r.S.!.E.Y.I.I.I.I.G.h.,. .S z 0 2 * O o ~.~.~.~.~.~.~.~.~.~.~.~.",
"~.~.~.~.~.~.~.~.~.~.~.# = - < 9 L r.x.K.W.J.B.l.l.l.l.u.7.;.#.<./ L 9 < - = # ~.~.~.~.~.~.~.~.~.~.~.",
"~.~.~.~.~.~.~.~.~.~.  $ : 3 q e y.S.K.T.R.V.t.I I I I E ' =.8.g.C.y.e q 3 : $   ~.~.~.~.~.~.~.~.~.~.",
"~.~.~.~.~.~.~.~.~.. . % > 6 l e.F.!.W.R.P.z.W i u t r v J O.f.m.U.A.q.k 6 > % . . ~.~.~.~.~.~.~.~.~.",
"~.~.~.~.~.~.~.~.~.. . % > 6 l e.F.E.J.V.z.i.0.Q R A n N F J [ a.M.c.! f 6 > % . . ~.~.~.~.~.~.~.~.~.",
"~.~.~.~.~.~.~.~.~.. . % > 6 l e.F.Y.B.t.W 0.l.N.p.1._ G N v D ] d.3.U s 6 > % . . ~.~.~.~.~.~.~.~.~.",
"~.~.~.~.~.~.~.~.~.. . % > 6 l w.D.L.k.P i Q N.Q.H.j.>.) b r j G +.} B p 6 > % . . ~.~.~.~.~.~.~.~.~.",
"~.~.~.~.~.~.~.~.~.. . % > 6 f ~ v.Z.2.m u R p.H.n.9.:.) b r j G +.} B p 6 > % . . ~.~.~.~.~.~.~.~.~.",
"~.~.~.~.~.~.~.~.~.. . % > 6 d Y 4.s.( c t A 1.j.9.6.:.) b r j G +.} B p 6 > % . . ~.~.~.~.~.~.~.~.~.",
"~.~.~.~.~.~.~.~.~.. . % > 6 p V | @.H j r n _ >.:.:.-.) b r j G +.} B p 6 > % . . ~.~.~.~.~.~.~.~.~.",
"~.~.~.~.~.~.~.~.~.. . % > 6 s U 3.d.] D v N G ) ) ) ) G N v C ) $.} B p 6 > % . . ~.~.~.~.~.~.~.~.~.",
"~.~.~.~.~.~.~.~.~.. . % > 6 f ! c.M.a.[ J F N b b b b N F J ` ..&.} B p 6 > % . . ~.~.~.~.~.~.~.~.~.",
"~.~.~.~.~.~.~.~.~.. . % > 6 k q.A.U.m.f.O.J v r r r r v J O.%.*.-.} B p 6 > % . . ~.~.~.~.~.~.~.~.~.",
"~.~.~.~.~.~.~.~.~.~.  $ : 3 q e y.C.g.8.%.` C j j j j C ` %.$.X.{ M w 7 3 : $   ~.~.~.~.~.~.~.~.~.~.",
"~.~.~.~.~.~.~.~.~.~.~.# = - < 9 L / <.#.*...) G G G G ) ..*.X.K C y 5 , - = # ~.~.~.~.~.~.~.~.~.~.~.",
"~.~.~.~.~.~.~.~.~.~.~.~.o O * 2 0 z S  .-.&.$.+.+.+.+.$.&.-.{ C h 8 1 & O o ~.~.~.~.~.~.~.~.~.~.~.~.",
"~.~.~.~.~.~.~.~.~.~.~.~.~.X @ ; 4 8 y M } } } } } } } } } } M y 8 4 ; @ X ~.~.~.~.~.~.~.~.~.~.~.~.~.",
"~.~.~.~.~.~.~.~.~.~.~.~.~.~.+ = ; 1 5 w B B B B B B B B B B w 5 1 ; = + ~.~.~.~.~.~.~.~.~.~.~.~.~.~.",
"~.~.~.~.~.~.~.~.~.~.~.~.~.~.~.+ @ & , 7 p p p p p p p p p p 7 , & @ + ~.~.~.~.~.~.~.~.~.~.~.~.~.~.~.",
"~.~.~.~.~.~.~.~.~.~.~.~.~.~.~.~.X O - 3 6 6 6 6 6 6 6 6 6 6 3 - O X ~.~.~.~.~.~.~.~.~.~.~.~.~.~.~.~.",
"~.~.~.~.~.~.~.~.~.~.~.~.~.~.~.~.~.o = : > > > > > > > > > > : = o ~.~.~.~.~.~.~.~.~.~.~.~.~.~.~.~.~.",
"~.~.~.~.~.~.~.~.~.~.~.~.~.~.~.~.~.~.# $ % % % % % % % % % % $ # ~.~.~.~.~.~.~.~.~.~.~.~.~.~.~.~.~.~.",
"~.~.~.~.~.~.~.~.~.~.~.~.~.~.~.~.~.~.~.  . . . . . . . . . .   ~.~.~.~.~.~.~.~.~.~.~.~.~.~.~.~.~.~.~.",
"~.~.~.~.~.~.~.~.~.~.~.~.~.~.~.~.~.~.~.~.. . . . . . . . . . ~.~.~.~.~.~.~.~.~.~.~.~.~.~.~.~.~.~.~.~.",
"~.~.~.~.~.~.~.~.~.~.~.~.~.~.~.~.~.~.~.~.~.~.~.~.~.~.~.~.~.~.~.~.~.~.~.~.~.~.~.~.~.~.~.~.~.~.~.~.~.~.",
"~.~.~.~.~.~.~.~.~.~.~.~.~.~.~.~.~.~.~.~.~.~.~.~.~.~.~.~.~.~.~.~.~.~.~.~.~.~.~.~.~.~.~.~.~.~.~.~.~.~.",
"~.~.~.~.~.~.~.~.~.~.~.~.~.~.~.~.~.~.~.~.~.~.~.~.~.~.~.~.~.~.~.~.~.~.~.~.~.~.~.~.~.~.~.~.~.~.~.~.~.~.",
"~.~.~.~.~.~.~.~.~.~.~.~.~.~.~.~.~.~.~.~.~.~.~.~.~.~.~.~.~.~.~.~.~.~.~.~.~.~.~.~.~.~.~.~.~.~.~.~.~.~.",
"~.~.~.~.~.~.~.~.~.~.~.~.~.~.~.~.~.~.~.~.~.~.~.~.~.~.~.~.~.~.~.~.~.~.~.~.~.~.~.~.~.~.~.~.~.~.~.~.~.~.",
"~.~.~.~.~.~.~.~.~.~.~.~.~.~.~.~.~.~.~.~.~.~.~.~.~.~.~.~.~.~.~.~.~.~.~.~.~.~.~.~.~.~.~.~.~.~.~.~.~.~.",
"~.~.~.~.~.~.~.~.~.~.~.~.~.~.~.~.~.~.~.~.~.~.~.~.~.~.~.~.~.~.~.~.~.~.~.~.~.~.~.~.~.~.~.~.~.~.~.~.~.~.",
"~.~.~.~.~.~.~.~.~.~.~.~.~.~.~.~.~.~.~.~.~.~.~.~.~.~.~.~.~.~.~.~.~.~.~.~.~.~.~.~.~.~.~.~.~.~.~.~.~.~.",
"~.~.~.~.~.~.~.~.~.~.~.~.~.~.~.~.~.~.~.~.~.~.~.~.~.~.~.~.~.~.~.~.~.~.~.~.~.~.~.~.~.~.~.~.~.~.~.~.~.~."
};
