/* XPM */
static char *result[] = {
/* columns rows colors chars-per-pixel */
"50 50 191 2 ",
"   c #010000",
".  c #0B0704",
"X  c #0E0906",
"o  c #04060A",
"O  c #0B0B0C",
"+  c #120C07",
"@  c #160E09",
"#  c #190F09",
"$  c #14110E",
"%  c #1B120B",
"&  c #080D18",
"*  c #121213",
"=  c #171819",
"-  c #1A1A1C",
";  c #1C1917",
":  c #21150D",
">  c #25190F",
",  c #2A1A0F",
"<  c #241912",
"1  c #2C1D13",
"2  c #271D18",
"3  c #311F12",
"4  c #2C2018",
"5  c #352214",
"6  c #3B2617",
"7  c #35241C",
"8  c #3C2718",
"9  c #3D291B",
"0  c #181B25",
"q  c #111730",
"w  c #081430",
"e  c #1F2123",
"r  c #222225",
"t  c #2A2A2D",
"y  c #2C2621",
"u  c #3A2C22",
"i  c #362C28",
"p  c #3B352C",
"a  c #2A2C32",
"s  c #26293A",
"d  c #2F3034",
"f  c #313336",
"g  c #343539",
"h  c #393A3F",
"j  c #402717",
"k  c #412817",
"l  c #432A1A",
"z  c #492E1C",
"x  c #47301D",
"c  c #4D321E",
"v  c #50341F",
"b  c #4C3322",
"n  c #4B392F",
"m  c #46342A",
"M  c #523621",
"N  c #573A23",
"B  c #5A3C26",
"V  c #553C2B",
"C  c #5D3F29",
"Z  c #423A31",
"A  c #4B3C33",
"S  c #473C3E",
"D  c #553E33",
"F  c #4F4035",
"G  c #54453A",
"H  c #58473A",
"J  c #63432C",
"K  c #694732",
"L  c #6D4E3B",
"P  c #664935",
"I  c #724F38",
"U  c #714D37",
"Y  c #76523C",
"T  c #7A543B",
"R  c #6B533F",
"E  c #0F2241",
"W  c #13294A",
"Q  c #11265F",
"!  c #3D3C42",
"~  c #393440",
"^  c #19336A",
"/  c #273B68",
"(  c #3E4045",
")  c #364A70",
"_  c #474649",
"`  c #5B4A41",
"'  c #5A4C4A",
"]  c #595147",
"[  c #4C4D53",
"{  c #474A57",
"}  c #4F5158",
"|  c #53555C",
" . c #524E55",
".. c #63534D",
"X. c #745E49",
"o. c #795C45",
"O. c #695C55",
"+. c #7D614D",
"@. c #706352",
"#. c #7E6B56",
"$. c #7F715E",
"%. c #585B62",
"&. c #5F6169",
"*. c #63646C",
"=. c #696165",
"-. c #736A6B",
";. c #666870",
":. c #686A72",
">. c #766F71",
",. c #72747D",
"<. c #7B737E",
"1. c #6E717A",
"2. c #845C42",
"3. c #885F46",
"4. c #8C644A",
"5. c #82604B",
"6. c #92674D",
"7. c #896C55",
"8. c #9B6E52",
"9. c #88725B",
"0. c #9F7155",
"q. c #A27356",
"w. c #A7775A",
"e. c #AB7B5D",
"r. c #A6785B",
"t. c #917A64",
"y. c #977867",
"u. c #9A7C71",
"i. c #8A7A65",
"p. c #A97F62",
"a. c #95836D",
"s. c #98836D",
"d. c #9E8D75",
"f. c #978770",
"g. c #AF8264",
"h. c #AB886C",
"j. c #A08D74",
"k. c #B18F73",
"l. c #A49078",
"z. c #A9957B",
"x. c #A79277",
"c. c #B9997C",
"v. c #B59578",
"b. c #B18669",
"n. c #1D4489",
"m. c #284C8A",
"M. c #2E5390",
"N. c #285BA3",
"B. c #295EAB",
"V. c #2658A5",
"C. c #325FA0",
"Z. c #2C64B4",
"A. c #436394",
"S. c #797B86",
"D. c #777988",
"F. c #557CB5",
"G. c #4E73AA",
"H. c #817D8D",
"J. c #7B8197",
"K. c #81848D",
"L. c #8A868C",
"P. c #8D8D8D",
"I. c #848792",
"U. c #838A9F",
"Y. c #898D98",
"T. c #8D919C",
"R. c #949495",
"E. c #94939B",
"W. c #B29C81",
"Q. c #BAA589",
"!. c #9397A2",
"~. c #9699A6",
"^. c #9A9DAA",
"/. c #999CA4",
"(. c #8E9CB5",
"). c #9DA1AE",
"_. c #A0A0A3",
"`. c #A2A6B3",
"'. c #A4A8B5",
"]. c #A9ADB9",
"[. c #ACAEB5",
"{. c #B6B7BA",
"}. c #B7B8BB",
"|. c #C1AC8F",
" X c #BDBEC4",
".X c #D2D4DB",
"XX c #D4D4D6",
"oX c #C7C8CA",
"OX c #E7E8EA",
"+X c #FEFEFF",
"@X c None",
/* pixels */
"@X@X@X@X@X@X@X@X@X@X@X@X@X@X@X@X@X@X@X@X@X@X@X@X@X@X@X@X@X@X@X@X@X@X@X@X@X@X@X@X@X@X@X@X@X@X@X@X@X@X",
"@X@X@X@X@X@X@X@X@X@X@X@X@X@X@X@X@X@X@X@X@X@X@X@X@X@X@X@X@X@X@X@X@X@X@X@X@X@X@X@X@X@X@X@X@X@X@X@X@X@X",
"@X@X@X@X@X@X@X@X@X@X@X@X@X@X@X@X@X@X@X@X@X@X@X@X@X@X@X@X@X@X@X@X@X@X@X@X@X@X@X@X@X@X@X@X@X@X@X@X@X@X",
"@X@X@X@X@X@X@X@X@X@X@X@X@X@X@X@X@X@X@X@X@X@X@X@X@X@X@X@X@X@X@X@X@X@X@X@X@X@X@X@X@X@X@X@X@X@X@X@X@X@X",
"@X@X@X@X@X@X@X@X@X@X@X@X@X@X@X@X@X@X@X@X@X@X@X@X@X@X@X@X@X@X@X@X@X@X@X@X@X@X@X@X@X@X@X@X@X@X@X@X@X@X",
"@X@X@X@X@X@X@X@X@X@X@X@X@X@X@X@X@X@X@X@X@X@X@X@X@X@X@X@X@X@X@X@X@X@X@X@X@X@X@X@X@X@X@X@X@X@X@X@X@X@X",
"@X@X@X@X@X@X@X@X@X@X@X@X@X@X@X                @X@X@X        @X@X@X@X@X@X@X@X@X@X@X@X@X@X@X@X@X@X@X@X",
"@X@X@X@X@X@X@X@X@X@X@X@X@X@X@X    + % % % @ + X @X+ % +     @X@X@X@X@X@X@X@X@X@X@X@X@X@X@X@X@X@X@X@X",
"@X@X@X@X@X@X@X@X@X@X@X@X@X@X@X  . > l x l 6 3 %   > 8 1 .           @X@X@X@X@X@X@X@X@X@X@X@X@X@X@X@X",
"@X@X@X@X@X@X@X@X@X@X@X@X@X@X@X  . > l c N v z 3 + 1 M 8 % + @ @ # $ @X@X@X@X@X@X@X@X@X@X@X@X@X@X@X@X",
"@X@X@X@X@X@X@X@X@X@X@X@X@X@X@X    X % 6 N v v l 3 k M z 5 5 8 l 9 5 @   @X@X@X@X@X@X@X@X@X@X@X@X@X@X",
"@X@X@X@X@X@X@X@X@X@X@X@X@X@X@X. X X # 8 N N B v z c N c z x N N N l > $ @X@X@X@X@X@X@X@X@X@X@X@X@X@X",
"@X@X@X@X@X@X@X@X@X@X@X@X@X@X. : 3 5 9 c N N N v v v N N v v N N N M l 5 %   @X@X@X@X@X@X@X@X@X@X@X@X",
"@X@X@X@X@X@X@X@X@X@X@X@X@X. + 1 z c N N N N N N N N N N N N N N N N N x > X @X@X@X@X@X@X@X@X@X@X@X@X",
"@X@X@X@X@X@X@X@X@X@X@X@X. : 1 k v v N N N N N B N N N N N N N N N N N M l 5 %   @X@X@X@X@X@X@X@X@X@X",
"@X@X@X@X@X@X@X@X@X@X@X  . , l v J v J v N N N N N N N N N v N N N N N N M x %   @X@X@X@X@X@X@X@X@X@X",
"@X@X@X@X@X@X@X@X@X@X@X  . , k v v N N v z v v B N N N v v z z v N N N N N z %   @X@X@X@X@X@X@X@X@X@X",
"@X@X@X@X@X@X@X@X@X@X@X  . , l v v N v c k c v B N N N v l l z v B B B N N z : . @X@X@X@X@X@X@X@X@X@X",
"@X@X@X@X@X@X@X@X@X@X@X  . , k l z c c l k z B B N N N v z v I 2.3.Y B z M v 5 : +   @X@X@X@X@X@X@X@X",
"@X@X@X@X@X@X@X@X@X@X@X  . , k k k k k 8 k v N v N N N v z K 8.e.e.6.J z b v z 5 %   @X@X@X@X@X@X@X@X",
"@X@X@X@X@X@X@X@X@X@X@X  . , k z c k k k 6 z v B N v x J I 4.q.e.e.0.3.U B z k 5 #   @X@X@X@X@X@X@X@X",
"@X@X@X@X@X@X@X@X@X@X@X  . , l v v z k 6 k c J v N c k K 8.e.e.e.e.e.e.6.J l k 5 @   @X@X@X@X@X@X@X@X",
"@X@X@X@X@X@X@X@X@X@X@X  . , k c N v v J T J z v N J Y L U 5.g.v.v.p.o.L o.X.V 3 #   @X@X@X@X@X@X@X@X",
"@X@X@X@X@X@X@X@X@X@X@X  . , l v N B J 2.w.I k z N T 0.T 5 H x.Q.|.s.A m t.z.o.5 #   @X@X@X@X@X@X@X@X",
"@X@X@X@X@X@X@X@X@X@X@X  X , k z z M B 2.e.3.I J v o.h.+.7 G l.|.|.s.A 3 G ] u % + @X@X@X@X@X@X@X@X@X",
"@X@X@X@X@X@X@X@X@X@X@X  . , k k l v B 2.e.e.e.I l +.c.9.7 G l.|.|.s.A # @ X .   @X@X@X@X@X@X@X@X@X@X",
"@X@X@X@X@X@X@X@X@X@X@X@X. % 1 3 l z N 2.e.e.e.4.U 6.k.s.@.i.c.Q.|.z.#.A ;       @X@X@X@X@X@X@X@X@X@X",
"@X@X@X@X@X@X@X@X@X@X@X@X@X  + , j l z T e.e.e.w.q.w.g.h.z.Q.|.Q.|.|.W.i.i       @X@X@X@X@X@X@X@X@X+X",
"@X@X@X@X@X@X@X@X@X@X@X@X@X@X. % , 3 l B L 4.e.e.e.e.e.b.v.c.c.c.W.c.c.y.i       @X@X@X@X@X@X@X@X@X+X",
"@X@X@X@X@X@X@X@X@X@X@X@X@X@X@X. X , j , % P e.e.e.e.e.p.g.g.g.g.g.g.p.6.7   @X@X@X@X@X@X@X@X@X@X@X@X",
"@X@X@X@X@X@X@X@X@X@X@X@X@X@X@X@X. # , +   M 4.4.6.4.3.7.y.u.u.y.6.2.T F <   @X@X@X@X@X@X@X@X@X@X@X@X",
"@X                @X@X@X@X@X@X@X@X. X     5 J K J C N ..<.H.H.-.H x 3 $ .   @X@X@X@X@X@X@X@X@X@X@X@X",
"@X  * a p d d f t @X@X@X@X@X@X@X@X  o ; p H o.P B v x ] D.J.U.D.O.A 2 % 2 3 < @X@X@X@X@X@X@X@X@X@X@X",
"@X  f 1.J.J.J.K.;.t       @X@X@X@X  . G f.d.x.7.J M v ] D.U.(.~.E.-.S l P o.u   @X@X@X@X@X@X@X@X@X@X",
"@X  ! T.'.'.'.'.I.[ t y t e @X@X@X4 p i.|.|.|.9.J v v ..=.S.^.'.'.L.` B 4.4.u   @X@X@X@X@X@X@X@X@X@X",
"@X  ( T.'.'.'.'.).K.S.J.:.f     * ] a.z.|.|.|.9.x c v J F =.E.'.'.H.` N 4.4.u   @X@X@X@X@X@X@X@X@X@X",
"@X  h ,.T.).'.'.'.'.'.'.T.} 4 O $ @.Q.|.|.|.|.#.6 9 v v c X.T.'.'.L.` b o.L 2   @X@X@X@X@X@X@X@X@X@X",
"@X@Xr d %.T.'.'.'.'.'.'.).J.&.a $ @.|.|.|.|.|.@.% 3 v v v O.E.`.'.L.` 3 3 1 @   @X@X@X@X@X@X@X@X@X@X",
"@X@X@X  g ,.E.).'.'.'.'.'.'.!.| t O.d.d.d.d.d.] @ 1 v F F =.T.(.(.D.| t 0 & o   @X@X@X@X@X@X@X@X@X@X",
"@X@X@X@Xr g %.T.'.'.'.'.'.'.).J.:.] Z Z Z Z Z 7 3 6 v _ ) A.F.F.F.G.A.) ^ W &   @X@X@X@X@X@X@X@X@X@X",
"@X@X@X@X@X  d ,.E.).'.'.'.'.'.'./.| = = = O   % 5 l M { C.Z.Z.Z.B.B.B.V.m./ q . @X@X@X@X@X@X@X@X@X@X",
"@X@X@X@X@X@Xr h %.Y.'.'.'.'.'.'._.J.;.;.*.g   . $ 5 M { C.Z.Z.V.n.n.n.m.) ! u 4 %   @X@X@X@X@X@X@X@X",
"@X@X@X@X@X@X@X  t 1.!.!.).).'.'.'.'.'.'.`.%.= $ * 4 x { M.N.N.n.^ Q ^ / A N N c >   o @X@X@X@X@X@X@X",
"@X@X@X@X@X@X@X@Xe ( _ _ | J.'.'.'.'.'.].'.J.*.&.&.F 4 e W W W E w w ~ g n N N c %   o @X@X@X@X@X@X+X",
"@X@X@X@X@X@X@X@X@X      - :.).).).'.[.].].].'.'.`.;.- O o O O O O # 1 j c N N c 2 * - a a s @X@X@X+X",
"@X@X@X@X@X@X@X@X@X@X@X@X- ( [ [ %./..X.X.X X'.'.`.J.&.%.%.%.%.%.%.{ y : 1 9 u A -.P./.}.}.}.XX+X+X+X",
"@X@X@X@X@X@X@X@X@X@X@X@X@X      = R.+X+X+X.X].'.'.'.'.'.'.'.'.'.'.S.d O * 0 0 } oX+X+X+X+X+X+X+X+X+X",
"@X@X@X@X@X@X@X@X@X@X@X@X@X@X    = R.+X+X+XOX.X.X.X.X.X.X.X.X.X.X.X XE.L._.[.[.}.OX+X+X+X+X+X+X+X+X+X",
"@X@X@X@X@X@X@X@X@X@X@X@X@X@X@X@X@X@X@X+X+X+X+X+X+X+X+X+X+X+X+X+X+X+X+X+X+X+X+X+X+X+X+X+X+X+X+X+X+X+X",
"@X@X@X@X@X@X@X@X@X@X@X@X@X@X@X@X@X@X@X@X+X+X+X+X+X+X+X+X+X+X+X+X+X+X+X+X+X+X+X+X+X+X+X+X+X+X+X+X+X+X"
};
