/* XPM */
static char *result[] = {
/* columns rows colors chars-per-pixel */
"50 50 137 2 ",
"   c black",
".  c #020101",
"X  c #020200",
"o  c #030201",
"O  c #040302",
"+  c #070402",
"@  c #070503",
"#  c #090504",
"$  c #0A0504",
"%  c #080604",
"&  c #090604",
"*  c #0A0705",
"=  c #0C0605",
"-  c #0B0805",
";  c #0C0806",
":  c #0D0906",
">  c #0E0A07",
",  c #0F0A07",
"<  c #100807",
"1  c #140B08",
"2  c #160B09",
"3  c #110C08",
"4  c #120C08",
"5  c #140D09",
"6  c #140E09",
"7  c #150E0A",
"8  c #17100B",
"9  c #1A110C",
"0  c #1A120D",
"q  c #1F100C",
"w  c #1D140E",
"e  c #1F150F",
"r  c #21110D",
"t  c #20120D",
"y  c #20140E",
"u  c #211610",
"i  c #211710",
"p  c #221710",
"a  c #251715",
"s  c #241811",
"d  c #261A12",
"f  c #271A12",
"g  c #281B12",
"h  c #2B1A13",
"j  c #2A1C14",
"k  c #2B1D15",
"l  c #2C1E14",
"z  c #2C1F15",
"x  c #2D1E16",
"c  c #2E1F16",
"v  c #311D15",
"b  c #311E15",
"n  c #2E2016",
"m  c #2F2017",
"M  c #342017",
"N  c #352017",
"B  c #312318",
"V  c #322218",
"C  c #322318",
"Z  c #342319",
"A  c #372218",
"S  c #342419",
"D  c #352419",
"F  c #372419",
"G  c #36251A",
"H  c #37251A",
"J  c #382319",
"K  c #38251B",
"L  c #3A251A",
"P  c #38261B",
"I  c #39261B",
"U  c #39271B",
"Y  c #3A271C",
"T  c #3B281B",
"R  c #3B281C",
"E  c #3A291C",
"W  c #3C281C",
"Q  c #3C291C",
"!  c #3D2A1D",
"~  c #3F2B1D",
"^  c #3C281F",
"/  c #402B1E",
"(  c #412B1E",
")  c #422B1E",
"_  c #422C1E",
"`  c #432D1F",
"'  c #422E1F",
"]  c #442E20",
"[  c #473122",
"{  c #473222",
"}  c #483021",
"|  c #493021",
" . c #483122",
".. c #4A3122",
"X. c #4B3323",
"o. c #4C3323",
"O. c #4D3525",
"+. c #4E3524",
"@. c #4F3625",
"#. c #4E3725",
"$. c #4F3726",
"%. c #503625",
"&. c #503726",
"*. c #513726",
"=. c #523826",
"-. c #523927",
";. c #533927",
":. c #533A28",
">. c #553A28",
",. c #543B28",
"<. c #543A29",
"1. c #563C29",
"2. c #563D29",
"3. c #583D2A",
"4. c #5A3F2B",
"5. c #4B3932",
"6. c #43383A",
"7. c #5D402C",
"8. c #5D412C",
"9. c #5F412D",
"0. c #5F432D",
"q. c #644630",
"w. c #654730",
"e. c #674831",
"r. c #674931",
"t. c #684932",
"y. c #694A32",
"u. c #6A4A32",
"i. c #6B4C33",
"p. c #6C4C34",
"a. c #704F35",
"s. c #755338",
"d. c #3C3742",
"f. c #4B4855",
"g. c #52576E",
"h. c #677598",
"j. c None",
/* pixels */
"h.h.g.d.a r r r r r r r r r r r r r r r r r r r r r r r r r r r r r r r r r r r r r r r r a d.g.h.h.",
"h.h.g.d.a r r r r r r r r r r r r r r r r r r r r r r r r r r r r r r r r r r r r r r r r a d.g.h.h.",
"g.g.f.6.^ L L L L L L L L L L L L L L L L L L L L L L L L L L L L L L L L L L L L L L L L ^ 6.f.g.g.",
"d.d.6.5.<.>.>.>.>.>.>.>.>.>.>.>.>.>.>.>.>.>.>.>.>.>.>.>.>.>.>.>.>.>.>.>.>.>.>.>.>.>.>.>.>.<.5.6.d.d.",
"a a ^ <.p.a.a.a.a.a.a.a.a.a.a.a.a.a.a.a.a.a.a.a.a.a.a.a.a.a.a.a.a.a.a.a.a.a.a.a.a.a.a.a.a.p.<.^ a a ",
"r r L >.a.s.s.s.s.s.s.s.s.s.s.s.s.s.s.s.s.s.s.s.s.s.s.s.s.s.s.s.s.s.s.s.s.s.s.s.s.s.s.s.s.a.>.L r r ",
"r r L >.a.s.s.s.s.s.s.s.s.s.s.s.s.s.s.s.s.s.s.s.s.s.s.s.s.s.s.s.s.s.s.s.s.s.s.s.s.s.s.s.s.a.>.L r r ",
"r r L >.a.s.s.s.s.s.s.s.s.s.s.s.s.s.s.s.s.s.s.s.s.s.s.s.s.s.s.s.s.s.s.s.s.s.s.s.s.s.s.s.s.a.>.L r r ",
"r r J %.t.i.y.r.e.e.e.e.e.e.e.e.e.e.e.e.e.e.e.e.e.e.e.e.e.e.e.e.e.e.e.e.e.e.e.e.e.e.r.y.i.t.%.J r r ",
"r r M | 7.8.3.:.-.-.-.-.-.-.-.-.-.-.-.-.-.-.-.-.-.-.-.-.-.-.-.-.-.-.-.-.-.-.-.-.-.-.:.3.8.7.| M r r ",
"r r v ( =.@.[ / ! ! ! ! ! ! ! ! ! ! ! ! ! ! ! ! ! ! ! ! ! ! ! ! ! ! ! ! ! ! ! ! ! ! / [ @.=.( v r r ",
"r r b ) ;.+.` K D H P G V x k k k k k k k k k k k k k k k k k k k k k k k k k k k k m ! X.;.) b r r ",
"r r N ..9.1. .I H W / R c u 9 9 9 9 9 9 9 9 9 9 9 9 9 9 9 9 9 9 9 9 9 9 9 9 9 9 9 9 i U &.9...N r r ",
"r r J *.u.0.O.Y I / } ~ j 7 & & & & & & & & & & & & & & & & & & & & & & & & & & & & 6 S ,.u.*.J r r ",
"r r L >.a.q.$.R Y ` o._ g >                                                         ; B 2.a.>.L r r ",
"r r L >.a.q.$.R Y ` o._ g >                                                         ; B 2.a.>.L r r ",
"r r L >.a.q.$.R Y ` o._ g >                                                         ; B 2.a.>.L r r ",
"r r L >.a.q.$.R Y ` o._ g >                                                         ; B 2.a.>.L r r ",
"r r L >.a.q.$.R Y ` o._ g >                                                         ; B 2.a.>.L r r ",
"r r L >.a.q.$.R Y ` o._ g >                                                         ; B 2.a.>.L r r ",
"r r L >.a.q.$.R Y ` o._ g >                                                         ; B 2.a.>.L r r ",
"r r L >.a.q.$.R Y ` o._ g >                                                         ; B 2.a.>.L r r ",
"r r L >.a.q.$.R Y ` o._ g >                                                         ; B 2.a.>.L r r ",
"r r L >.a.q.$.R Y ` o._ g >                                                         ; B 2.a.>.L r r ",
"r r L >.a.q.$.R Y ` o._ g >                                                         ; B 2.a.>.L r r ",
"r r L >.a.q.$.R Y ` o._ g >                                                         ; B 2.a.>.L r r ",
"r r L >.a.q.$.R Y ` o._ g >                                                         ; B 2.a.>.L r r ",
"r r L >.a.q.$.R Y ` o._ g >                                                         ; B 2.a.>.L r r ",
"r r L >.a.q.$.R Y ` o._ g >                                                         ; B 2.a.>.L r r ",
"r r L >.a.q.$.R Y ` o._ g >                                                         ; B 2.a.>.L r r ",
"r r L >.a.q.$.R Y ` o._ g >                                                         ; B 2.a.>.L r r ",
"r r L >.a.q.$.R Y ` o._ g >                                                         ; B 2.a.>.L r r ",
"r r L >.a.q.$.R Y ` o._ g >                                                         ; B 2.a.>.L r r ",
"r r L >.a.q.$.R Y ` o._ g >                                                         ; B 2.a.>.L r r ",
"r r L >.a.q.$.R Y ` o._ g >                                                         ; B 2.a.>.L r r ",
"r r L >.a.q.$.R Y ` o._ g >                                                         ; B 2.a.>.L r r ",
"r r L >.a.q.$.R Y ` o._ g >                                                         ; B 2.a.>.L r r ",
"r r L >.a.q.$.R Y ` o._ g >                                                         ; B 2.a.>.L r r ",
"r r L >.a.q.$.R Y ` o._ g >                                                         ; B 2.a.>.L r r ",
"r r L >.a.q.$.R Y ` o._ g >                                                         ; B 2.a.>.L r r ",
"r r L >.a.q.$.R Y ` o._ g >                                                         ; B 2.a.>.L r r ",
"r r L >.a.q.$.R Y ` o._ g >                                                         ; B 2.a.>.L r r ",
"r r A +.w.4.{ D Z Q ] T s :                                                         - z #.w.+.A r r ",
"r r h F ' E n p p f l d 8 %                                                         @ w C ' F h r r ",
"r r t y e 0 7 , , 4 5 3 * O                                                         o : 8 e y t r r ",
"q q 2 = .                                                                                 . = 2 q q ",
"1 1 < $ X                                                                                 X $ < 1 1 ",
"$ $ # + j.j.j.j.j.j.j.j.j.j.j.j.j.j.j.j.j.j.j.j.j.j.j.j.j.j.j.j.j.j.j.j.j.j.j.j.j.j.j.j.j.j.+ # $ $ ",
"      j.j.j.j.j.j.j.j.j.j.j.j.j.j.j.j.j.j.j.j.j.j.j.j.j.j.j.j.j.j.j.j.j.j.j.j.j.j.j.j.j.j.j.j.      ",
"      j.j.j.j.j.j.j.j.j.j.j.j.j.j.j.j.j.j.j.j.j.j.j.j.j.j.j.j.j.j.j.j.j.j.j.j.j.j.j.j.j.j.j.j.      "
};
