/* XPM */
static char *result[] = {
/* columns rows colors chars-per-pixel */
"50 50 247 2 ",
"   c black",
".  c #010101",
"X  c #020101",
"o  c #030201",
"O  c #020202",
"+  c #070303",
"@  c #070402",
"#  c #090403",
"$  c #0A0504",
"%  c #0F0705",
"&  c #0E0A07",
"*  c #0F0A07",
"=  c #110806",
"-  c #100B08",
";  c #140A08",
":  c #170B09",
">  c #110C08",
",  c #120C08",
"<  c #130D09",
"1  c #140D09",
"2  c #150E09",
"3  c #150E0A",
"4  c #1D0F0B",
"5  c #1E0F0B",
"6  c #1A120C",
"7  c #1E150E",
"8  c #21110D",
"9  c #20120D",
"0  c #21120D",
"q  c #22120E",
"w  c #23120E",
"e  c #24130E",
"r  c #20140E",
"t  c #211610",
"y  c #221710",
"u  c #251912",
"i  c #271A12",
"p  c #2B1A13",
"a  c #2A1C13",
"s  c #2C1D14",
"d  c #2C1E14",
"f  c #2E1F15",
"g  c #271A1A",
"h  c #291C1B",
"j  c #311D15",
"k  c #311E15",
"l  c #2E2015",
"z  c #2E2016",
"x  c #342017",
"c  c #352117",
"v  c #322218",
"b  c #342319",
"n  c #352319",
"m  c #362218",
"M  c #342419",
"N  c #352419",
"B  c #362419",
"V  c #35241A",
"C  c #36241A",
"Z  c #36251A",
"A  c #37251A",
"S  c #37251B",
"D  c #37261A",
"F  c #382319",
"G  c #392419",
"H  c #38261A",
"J  c #38261B",
"K  c #39261B",
"L  c #39271B",
"P  c #3A261B",
"I  c #3A271B",
"U  c #3A271C",
"Y  c #3A281C",
"T  c #3B281C",
"R  c #3A291C",
"E  c #3C281C",
"W  c #3C291C",
"Q  c #3D291C",
"!  c #3C291D",
"~  c #3D291D",
"^  c #3E291D",
"/  c #3F2B1C",
"(  c #3E2A1D",
")  c #3D2A1E",
"_  c #3E2A1E",
"`  c #3F2B1E",
"'  c #3C2921",
"]  c #402B1E",
"[  c #412B1E",
"{  c #422A1E",
"}  c #432B1E",
"|  c #432E1D",
" . c #402C1E",
".. c #412C1E",
"X. c #402C1F",
"o. c #412C1F",
"O. c #422C1E",
"+. c #422C1F",
"@. c #422D1F",
"#. c #432D1F",
"$. c #432E1F",
"%. c #452F1D",
"&. c #442F1E",
"*. c #47311E",
"=. c #49321F",
"-. c #432D20",
";. c #442E20",
":. c #452E20",
">. c #462F20",
",. c #462F21",
"<. c #473020",
"1. c #473021",
"2. c #473222",
"3. c #483021",
"4. c #493021",
"5. c #4A3121",
"6. c #483122",
"7. c #493122",
"8. c #493222",
"9. c #4A3222",
"0. c #4B3222",
"q. c #4B3322",
"w. c #4A3223",
"e. c #4B3323",
"r. c #4C3321",
"t. c #4C3322",
"y. c #4C3323",
"u. c #4D3323",
"i. c #4E3620",
"p. c #4F3620",
"a. c #4C3423",
"s. c #4D3423",
"d. c #4C3324",
"f. c #4D3424",
"g. c #4D3525",
"h. c #4E3424",
"j. c #4E3524",
"k. c #4F3525",
"l. c #4F3625",
"z. c #4F3725",
"x. c #503625",
"c. c #503725",
"v. c #513725",
"b. c #523725",
"n. c #513726",
"m. c #563B22",
"M. c #533925",
"N. c #523826",
"B. c #523927",
"V. c #553927",
"C. c #583C22",
"Z. c #593D22",
"A. c #593E23",
"S. c #593D26",
"D. c #5C3F26",
"F. c #533A28",
"G. c #52392A",
"H. c #553B28",
"J. c #573C29",
"K. c #593C28",
"L. c #593E29",
"P. c #583D2A",
"I. c #583E2A",
"U. c #593F2A",
"Y. c #5A3F2B",
"T. c #5B3F2B",
"R. c #4B3832",
"E. c #43383A",
"W. c #5C412C",
"Q. c #5D412C",
"!. c #5F432D",
"~. c #654529",
"^. c #664729",
"/. c #61442E",
"(. c #64462F",
"). c #6F4D29",
"_. c #6F4D2D",
"`. c #73502B",
"'. c #74502B",
"]. c #76532A",
"[. c #74502D",
"{. c #78542B",
"}. c #79542B",
"|. c #664730",
" X c #664831",
".X c #674931",
"XX c #674932",
"oX c #674C32",
"OX c #694A32",
"+X c #6B4B33",
"@X c #6C4C33",
"#X c #6D4E34",
"$X c #6C5235",
"%X c #705031",
"&X c #715535",
"*X c #705537",
"=X c #7F5B33",
"-X c #755338",
";X c #7D633F",
":X c #3B3742",
">X c #3C3741",
",X c #4B4855",
"<X c #52556B",
"1X c #52576E",
"2X c #885F2F",
"3X c #835B30",
"4X c #8C6230",
"5X c #8D6230",
"6X c #826139",
"7X c #83673F",
"8X c #996B36",
"9X c #9C6D35",
"0X c #9A6D38",
"qX c #A17137",
"wX c #AD7A39",
"eX c #AE7A39",
"rX c #866C44",
"tX c #9D7741",
"yX c #AB7D41",
"uX c #B9823D",
"iX c #BE853E",
"pX c #C0873E",
"aX c #9D8250",
"sX c #A0804B",
"dX c #AF894C",
"fX c #A68C56",
"gX c #B39458",
"hX c #C58D43",
"jX c #D69845",
"kX c #D89A46",
"lX c #D29B4C",
"zX c #D89B48",
"xX c #D99C49",
"cX c #DA9F4C",
"vX c #CB9C52",
"bX c #DCA350",
"nX c #DEA956",
"mX c #D7AA5C",
"MX c #DFAB58",
"NX c #CBAF6A",
"BX c #D0AB62",
"VX c #DCBA6B",
"CX c #E2B765",
"ZX c #626E8E",
"AX c #657193",
"SX c #677598",
"DX c None",
/* pixels */
"SXAX1X:Xg 8 8 8 8 8 8 8 8 8 8 8 8 8 8 8 8 8 8 8 8 8 8 8 8 8 8 8 8 8 8 8 8 8 8 8 8 8 8 8 8 g :X1XAXSX",
"AXZX<X>Xh e e e e e e e e e e e e e e e e e e e e e e e e e e e e e e e e e e e e e e e e h >X<XZXAX",
"1X<X,XE.' G G G G G G G G G G G G G G G G G G G G G G G G G G G G G G G G G G G G G G G G ' E.,X<X1X",
":X>XE.R.G.V.V.V.V.V.V.V.V.V.V.V.V.V.V.V.V.V.V.V.V.V.V.V.V.V.V.V.V.V.V.V.V.V.V.V.V.V.V.V.V.G.R.E.>X:X",
"g h ' G.XX#X#X#X#X#X#X#X#X#X#X#X#X#X#X#X#X#X#X#X#X#X#X#X#X#X#X#X#X#X#X#X#X#X#X#X#X#X#X#X#XXXG.' h g ",
"8 e G V.#X-X-X-X-X-X-X-X-X-X-X-X-X-X-X-X-X-X-X-X-X-X-X-X-X-X-X-X-X-X-X-X-X-X-X-X-X-X-X-X-X#XV.G e 8 ",
"8 e G V.#X-X-X-X-X-X-X-X-X-X-X-X-X-X-X-X-X-X-X-X-X-X-X-X-X-X-X-X-X-X-X-X-X-X-X-X-X-X-X-X-X#XV.G e 8 ",
"8 e G V.#X-X-X-X-X-X-X-X-X-X-X-X-X-X-X-X-X-X-X-X-X-X-X-X-X-X-X-X-X-X-X-X-X-X-X-X-X-X-X-X-X#XV.G e 8 ",
"8 e F x.|.+XOX.X X X X X X X X X X X X X X X X X X X X X X X X X X X X X X X X X X X.XOX+X|.x.F e 8 ",
"8 w x 4.T.Q.P.F.B.B.B.B.B.B.B.B.B.B.B.B.B.B.B.B.B.B.B.B.B.B.B.B.B.B.B.B.B.B.B.B.B.B.F.P.Q.T.4.x w 8 ",
"8 q j { x.c.6. .) _ _ _ _ _ _ _ ) ) _ _ _ _ _ _ _ _ _ _ _ _ _ _ ) ) _ _ _ _ _ _ _ )  .6.c.x.{ j q 8 ",
"8 q k } n.j.#.H N S K K K K K A C V Z J K K K K K K K K K K J Z V C A K K K K K S N H #.j.n.} k q 8 ",
"8 w c 5.T.J.6.L A T ] @.@.@.] E A C I ( @.@.@.@.@.@.@.@.@.@.( I C A E ] @.@.@.] T A L 6.J.T.5.c w 8 ",
"8 e F v.|.!.g.U K [ 3.w.w.w.3.] K A ( :.w.w.w.w.w.w.w.w.w.w.:.( A K ] 3.w.w.w.3.[ K U g.!.|.v.F e 8 ",
"8 e G V.@X(.z.U Y @.t.x.x.x.a.:.^ T +.9.l.x.x.x.x.x.x.x.x.l.6.] S U $.e.x.x.x.t.@.Y U z.(.@XV.G e 8 ",
"8 e G V.@X(.z.U Y @.t.x.x.x.h.7.;.@.1.y.x.x.x.x.x.x.x.x.x.l.6.] S U $.e.x.x.x.t.@.Y U z.(.@XV.G e 8 ",
"8 e G V.@X(.z.U Y @.t.x.x.x.x.s.q.0.a.j.x.x.x.x.x.x.x.x.x.l.6.] S U $.y.x.x.x.t.@.Y U z.(.@XV.G e 8 ",
"8 e G V.@X(.z.U Y @.t.x.x.x.x.x.l.l.x.x.x.x.x.x.x.x.x.x.x.x.8.O.U ~ :.a.x.x.x.t.@.Y U z.(.@XV.G e 8 ",
"8 e G V.@X(.z.U Y @.t.x.x.x.x.x.x.x.x.x.x.x.x.x.x.x.x.x.x.x.d.1.@.#.7.h.x.x.x.t.@.Y U z.(.@XV.G e 8 ",
"8 e G V.@X(.z.U Y @.t.x.x.x.x.x.x.x.x.x.x.x.x.x.x.x.x.x.x.x.h.d.9.9.f.k.x.x.x.t.@.Y U z.(.@XV.G e 8 ",
"8 e G V.@X(.z.U Y @.t.x.x.x.x.x.x.x.x.x.x.x.x.x.x.x.x.x.x.x.x.x.x.x.x.x.x.x.x.t.@.Y U z.(.@XV.G e 8 ",
"8 e G V.@X(.z.U Y @.t.x.x.x.x.x.x.x.x.x.x.x.x.x.x.x.x.x.x.x.x.x.x.x.x.x.x.x.x.t.@.Y U z.(.@XV.G e 8 ",
"8 e G V.@X(.z.U Y @.t.x.x.x.x.x.x.x.x.x.x.x.x.x.x.x.x.x.x.x.x.x.x.x.x.x.x.x.x.t.@.Y U z.(.@XV.G e 8 ",
"8 e G V.@X(.z.U Y @.t.x.x.x.x.x.x.x.x.x.x.x.x.x.x.x.x.x.x.x.x.x.x.N.H.I.U.L.K.M.<.W U z.(.@XV.G e 8 ",
"8 e G V.@X(.z.U Y @.t.x.x.x.x.x.x.x.x.x.x.x.x.x.x.x.x.x.x.x.x.x.n.W.$X;X7X6X=X[.D.&.U z.(.@XV.G e 8 ",
"8 e G V.@X(.z.U Y @.t.x.x.x.x.x.x.x.x.x.x.x.x.x.x.x.x.x.x.x.x.x.N.oXrXfXgXdXyX8X'.i.U z.(.@XV.G e 8 ",
"8 e G V.@X(.z.U Y @.t.x.x.x.x.x.x.x.x.x.x.x.x.x.x.x.x.x.x.x.x.x.N.*XaXNXVXmXlXuX2Xm.U z.(.@XV.G e 8 ",
"8 e G V.@X(.z.U Y @.t.x.x.x.x.x.x.x.x.x.x.x.x.x.x.x.x.x.x.x.x.x.N.&XsXBXCXMXcXpX5XZ.U z.(.@XV.G e 8 ",
"8 e G V.@X(.z.U Y @.t.x.x.x.x.x.x.x.x.x.x.x.x.x.x.x.x.x.x.x.x.x.N.%XtXvXnXbXxXpX5XZ.U z.(.@XV.G e 8 ",
"8 e G V.@X(.z.U Y @.t.x.x.x.x.x.x.x.x.x.x.x.x.x.x.x.x.x.x.x.x.x.N._.0XhXzXkXjXiX4XC.U z.(.@XV.G e 8 ",
"8 e G V.@X(.z.U Y @.t.x.x.x.x.x.x.x.x.x.x.x.x.x.x.x.x.x.x.x.x.x.b.~.3XqXeXeXwX9X].p.U z.(.@XV.G e 8 ",
"8 e G V.@X(.z.U Y @.t.x.x.x.x.x.x.x.x.x.x.x.x.x.x.x.x.x.x.x.x.x.v.S.^.`.}.}.{.).A.| U z.(.@XV.G e 8 ",
"8 e G V.@X(.z.U Y @.t.x.x.x.x.x.l.l.x.x.x.x.x.x.x.x.x.x.x.x.x.x.x.j.r.=.*.*.*.%./ H U z.(.@XV.G e 8 ",
"8 e G V.@X(.z.U Y @.t.x.x.x.x.s.q.0.a.j.x.x.x.x.x.x.x.x.x.x.x.x.l.q.;.^ U U U L A V U z.(.@XV.G e 8 ",
"8 e G V.@X(.z.U Y @.t.x.x.x.h.7.;.@.1.y.x.x.x.x.x.x.x.x.x.x.x.x.x.s.7.:.$.$.$.o.E D U z.(.@XV.G e 8 ",
"8 e G V.@X(.z.U Y @.t.x.x.x.a.:.^ T +.9.l.x.x.x.x.x.x.x.x.x.x.x.x.x.h.a.e.e.e.7...P U z.(.@XV.G e 8 ",
"8 e G V.@X(.z.U Y @.t.x.x.x.e.$.U S ] 6.l.x.x.x.x.x.x.x.x.x.x.x.x.x.x.x.x.x.x.t.@.Y U z.(.@XV.G e 8 ",
"8 e G V.@X(.z.U Y @.t.x.x.x.e.$.U S ] 6.l.x.x.x.x.x.x.x.x.x.x.x.x.x.x.x.x.x.x.t.@.Y U z.(.@XV.G e 8 ",
"8 e G V.@X(.z.U Y @.t.x.x.x.e.$.U S ] 6.l.x.x.x.x.x.x.x.x.x.x.x.x.x.x.x.x.x.x.t.@.Y U z.(.@XV.G e 8 ",
"8 e G V.@X(.z.U Y @.t.x.x.x.e.$.U S ] 6.l.x.x.x.x.x.x.x.x.x.k.h.u.u.j.x.x.x.x.t.@.Y U z.(.@XV.G e 8 ",
"8 e G V.@X(.z.U Y @.t.x.x.x.e.$.U S ] 6.l.x.x.x.x.x.x.x.x.x.a.7.:.>.w.j.x.x.x.t.@.Y U z.(.@XV.G e 8 ",
"8 e G V.@X(.z.U Y @.t.x.x.x.e.$.U S ] 6.l.x.x.x.x.x.x.x.x.x.w.-.~ ` ,.f.x.x.x.t.@.Y U z.(.@XV.G e 8 ",
"8 e m j./.Y.2.M b ! ;.3.3.3.;.Q n v L O.3.3.3.3.3.3.3.3.3.3.O.L v n Q ;.3.3.3.;.! b M 2.Y./.j.m e 8 ",
"8 q p B X.R z y y i d f l l s i y t u a f l l l l l l l l f a u t y i s l l f d i y y z R X.B p q 8 ",
"8 0 9 r 7 6 3 * * , < 3 3 3 1 > * & - < 2 3 3 3 3 3 3 3 3 2 < - & * > 1 3 3 3 < , * * 3 6 7 r 9 0 8 ",
"5 4 : % + o X . . . X X X X X X . . X X X X X X X X X X X X X X . . X X X X X X . . . X o + % : 4 5 ",
"; ; = $ O                                                                                 O $ = ; ; ",
"$ $ # @ DXDXDXDXDXDXDXDXDXDXDXDXDXDXDXDXDXDXDXDXDXDXDXDXDXDXDXDXDXDXDXDXDXDXDXDXDXDXDXDXDXDX@ # $ $ ",
". . . DXDXDXDXDXDXDXDXDXDXDXDXDXDXDXDXDXDXDXDXDXDXDXDXDXDXDXDXDXDXDXDXDXDXDXDXDXDXDXDXDXDXDXDX. . . ",
"      DXDXDXDXDXDXDXDXDXDXDXDXDXDXDXDXDXDXDXDXDXDXDXDXDXDXDXDXDXDXDXDXDXDXDXDXDXDXDXDXDXDXDXDX      "
};
