/* XPM */
static char *result[] = {
/* columns rows colors chars-per-pixel */
"50 50 165 2 ",
"   c #000000",
".  c #0A0704",
"X  c #0E0906",
"o  c #05060B",
"O  c #0A0A0E",
"+  c #120B07",
"@  c #150E0A",
"#  c #190F09",
"$  c #1B110B",
"%  c #080A12",
"&  c #060E1B",
"*  c #0C0E1A",
"=  c #22160D",
"-  c #26190F",
";  c #29190E",
":  c #2A1C11",
">  c #2A1E19",
",  c #271A10",
"<  c #26221C",
"1  c #352214",
"2  c #3A2516",
"3  c #34231B",
"4  c #3A251A",
"5  c #3C291B",
"6  c #091429",
"7  c #161A24",
"8  c #0B1831",
"9  c #11243E",
"0  c #2E2921",
"q  c #322C25",
"w  c #3C2C23",
"e  c #3F392F",
"r  c #442B1A",
"t  c #492E1C",
"y  c #4C311E",
"u  c #4E3320",
"i  c #45392D",
"p  c #453125",
"a  c #523621",
"s  c #563A23",
"d  c #593C26",
"f  c #513C2E",
"g  c #5E3F2A",
"h  c #413930",
"j  c #5E442F",
"k  c #4A4337",
"l  c #524034",
"z  c #5C4533",
"x  c #564639",
"c  c #524A3D",
"v  c #59473A",
"b  c #63432D",
"n  c #654934",
"m  c #6C4B35",
"M  c #724E37",
"N  c #714D3A",
"B  c #75523A",
"V  c #79553F",
"C  c #7E583F",
"Z  c #132644",
"A  c #122A4D",
"S  c #142747",
"D  c #132D5B",
"F  c #30384D",
"G  c #333C53",
"H  c #1C3F7C",
"J  c #3D455C",
"K  c #594F42",
"L  c #5C4E49",
"P  c #51494C",
"I  c #5F524D",
"U  c #424A5F",
"Y  c #554F55",
"T  c #4D545E",
"R  c #614E46",
"E  c #66554D",
"W  c #725C4C",
"Q  c #7D5A44",
"!  c #6B5B54",
"~  c #7E634C",
"^  c #756251",
"/  c #444C62",
"(  c #4E5763",
")  c #716F7E",
"_  c #7F7378",
"`  c #845C42",
"'  c #886149",
"]  c #956A4F",
"[  c #92674E",
"{  c #866D55",
"}  c #8A6C55",
"|  c #826E5B",
" . c #836651",
".. c #966E57",
"X. c #84715D",
"o. c #9E7054",
"O. c #95775D",
"+. c #9B745A",
"@. c #A17256",
"#. c #A3765A",
"$. c #A4795D",
"%. c #AC7B5D",
"&. c #877763",
"*. c #9C7B6D",
"=. c #9A7767",
"-. c #897F78",
";. c #857C74",
":. c #998166",
">. c #95846D",
",. c #9D856A",
"<. c #9E886F",
"1. c #9E8A73",
"2. c #A8856A",
"3. c #AA866A",
"4. c #B08466",
"5. c #AE8F73",
"6. c #A18D75",
"7. c #B08D70",
"8. c #A49078",
"9. c #A9947B",
"0. c #B59275",
"q. c #BA9B7E",
"w. c #B1997D",
"e. c #1D4383",
"r. c #28518E",
"t. c #25559E",
"y. c #2A5599",
"u. c #295594",
"i. c #365B93",
"p. c #335E9D",
"a. c #2555A0",
"s. c #2C5DA4",
"d. c #295FAD",
"f. c #2D61AD",
"g. c #3060A6",
"h. c #2B64B4",
"j. c #415D89",
"k. c #47618E",
"l. c #516E9B",
"z. c #58739A",
"x. c #646B83",
"c. c #7C7B89",
"v. c #4670AE",
"b. c #4D76B3",
"n. c #5079B5",
"m. c #837D8A",
"M. c #7B8199",
"N. c #7081A4",
"B. c #80869D",
"V. c #82899E",
"C. c #8D8B94",
"Z. c #A29583",
"A. c #AE9B80",
"S. c #B29E83",
"D. c #A59D92",
"F. c #B6A186",
"G. c #BDA284",
"H. c #BDA68A",
"J. c #BEA98C",
"K. c #8191AF",
"L. c #989DAD",
"P. c #9095A7",
"I. c #8A99B5",
"U. c #C1AC8F",
"Y. c None",
/* pixels */
"Y.Y.Y.Y.Y.Y.Y.Y.Y.Y.Y.Y.Y.Y.Y.Y.Y.Y.Y.Y.Y.Y.Y.Y.Y.Y.Y.Y.Y.Y.Y.Y.Y.Y.Y.Y.Y.Y.Y.Y.Y.Y.Y.Y.Y.Y.Y.Y.Y.Y.",
"Y.Y.Y.Y.Y.Y.Y.Y.Y.Y.Y.Y.Y.Y.Y.Y.Y.Y.Y.Y.Y.Y.Y.Y.Y.Y.Y.Y.Y.Y.Y.Y.Y.Y.Y.Y.Y.Y.Y.Y.Y.Y.Y.Y.Y.Y.Y.Y.Y.Y.",
"Y.Y.Y.Y.Y.Y.Y.Y.Y.Y.Y.Y.Y.Y.Y.Y.Y.Y.Y.Y.Y.Y.Y.Y.Y.Y.Y.Y.Y.Y.Y.Y.Y.Y.Y.Y.Y.Y.Y.Y.Y.Y.Y.Y.Y.Y.Y.Y.Y.Y.",
"Y.Y.Y.Y.Y.Y.Y.Y.Y.Y.Y.Y.Y.Y.Y.Y.Y.Y.Y.Y.Y.Y.Y.Y.Y.Y.Y.Y.Y.Y.Y.Y.Y.Y.Y.Y.Y.Y.Y.Y.Y.Y.Y.Y.Y.Y.Y.Y.Y.Y.",
"Y.Y.Y.Y.Y.Y.Y.Y.Y.Y.Y.Y.Y.Y.Y.Y.Y.Y.Y.Y.Y.Y.Y.Y.Y.Y.Y.Y.Y.Y.Y.Y.Y.Y.Y.Y.Y.Y.Y.Y.Y.Y.Y.Y.Y.Y.Y.Y.Y.Y.",
"Y.Y.Y.Y.Y.Y.Y.Y.Y.Y.Y.Y.Y.Y.Y.Y.Y.Y.Y.Y.Y.Y.Y.Y.Y.Y.Y.Y.Y.Y.Y.Y.Y.Y.Y.Y.Y.Y.Y.Y.Y.Y.Y.Y.Y.Y.Y.Y.Y.Y.",
"Y.Y.Y.Y.Y.Y.Y.Y.Y.Y.Y.Y.Y.Y.Y.Y.Y.                Y.Y.        Y.Y.Y.Y.Y.Y.Y.Y.Y.Y.Y.Y.Y.Y.Y.Y.Y.Y.Y.",
"Y.Y.Y.Y.Y.Y.Y.Y.Y.Y.Y.Y.Y.Y.Y.Y.Y.  . # $ $ # # + Y.Y.# # .     Y.Y.Y.Y.Y.Y.Y.Y.Y.Y.Y.Y.Y.Y.Y.Y.Y.Y.",
"Y.Y.Y.Y.Y.Y.Y.Y.Y.Y.Y.Y.Y.Y.Y.Y.Y.  $ 2 r r r 1 - X + 1 2 #           Y.Y.Y.Y.Y.Y.Y.Y.Y.Y.Y.Y.Y.Y.Y.",
"Y.Y.Y.Y.Y.Y.Y.Y.Y.Y.Y.Y.Y.Y.Y.Y.Y.  # 2 y a a y 1 = = r y : # # # + + . Y.Y.Y.Y.Y.Y.Y.Y.Y.Y.Y.Y.Y.Y.",
"Y.Y.Y.Y.Y.Y.Y.Y.Y.Y.Y.Y.Y.Y.Y.Y.Y.  . + : y s a t 1 1 y a y 5 r r 1 ; #   Y.Y.Y.Y.Y.Y.Y.Y.Y.Y.Y.Y.Y.",
"Y.Y.Y.Y.Y.Y.Y.Y.Y.Y.Y.Y.Y.Y.Y.Y.. + + + : y s s a t t a s s s s s y r =     Y.Y.Y.Y.Y.Y.Y.Y.Y.Y.Y.Y.",
"Y.Y.Y.Y.Y.Y.Y.Y.Y.Y.Y.Y.Y.Y.Y.  # ; 1 2 t a s s s a a s s s s s s s y ;     Y.Y.Y.Y.Y.Y.Y.Y.Y.Y.Y.Y.",
"Y.Y.Y.Y.Y.Y.Y.Y.Y.Y.Y.Y.Y.Y.. . = 5 y s s s s s a a a s s s j s s s a : X . Y.Y.Y.Y.Y.Y.Y.Y.Y.Y.Y.Y.",
"Y.Y.Y.Y.Y.Y.Y.Y.Y.Y.Y.Y.Y.  # ; 2 y y s s s s s a y y a s s a s s s a 5 ; $   Y.Y.Y.Y.Y.Y.Y.Y.Y.Y.Y.",
"Y.Y.Y.Y.Y.Y.Y.Y.Y.Y.Y.Y.    $ r y s s s s s a a a r r y s s s s s s s t r =     Y.Y.Y.Y.Y.Y.Y.Y.Y.Y.",
"Y.Y.Y.Y.Y.Y.Y.Y.Y.Y.Y.Y.    - y a s s s a t t t r r r r y a s s s s s a a ; .   Y.Y.Y.Y.Y.Y.Y.Y.Y.Y.",
"Y.Y.Y.Y.Y.Y.Y.Y.Y.Y.Y.Y.    , a s s s s a r r t t t y t a s g s a s s s s ;     Y.Y.Y.Y.Y.Y.Y.Y.Y.Y.",
"Y.Y.Y.Y.Y.Y.Y.Y.Y.Y.Y.Y.    - a s s s d y r a M C C C C C ` ` g t a s s s :     Y.Y.Y.Y.Y.Y.Y.Y.Y.Y.",
"Y.Y.Y.Y.Y.Y.Y.Y.Y.Y.Y.Y.    : a s s s s a t b ] %.%.%.%.%.%.o.M t a s s a ;     Y.Y.Y.Y.Y.Y.Y.Y.Y.Y.",
"Y.Y.Y.Y.Y.Y.Y.Y.Y.Y.Y.Y.    , a s s s y d M ' o.%.%.%.%.%.%.@.[ M g t a s :     Y.Y.Y.Y.Y.Y.Y.Y.Y.Y.",
"Y.Y.Y.Y.Y.Y.Y.Y.Y.Y.Y.Y.    , a s d y r b ] %.%.%.%.%.%.%.%.%.%.o.M r t s :     Y.Y.Y.Y.Y.Y.Y.Y.Y.Y.",
"Y.Y.Y.Y.Y.Y.Y.Y.Y.Y.Y.Y.    = t a s b M M m Q 2.0.0.0.0.2.` M [ @.m r 1 : $   Y.Y.Y.Y.Y.Y.Y.Y.Y.Y.Y.",
"Y.Y.Y.Y.Y.Y.Y.Y.Y.Y.Y.Y.    $ 2 y a B o.C 5 l 6.U.U.U.U.8.v 2 B @.m 2 =     Y.Y.Y.Y.Y.Y.Y.Y.Y.Y.Y.Y.",
"Y.Y.Y.Y.Y.Y.Y.Y.Y.Y.Y.Y.Y.  # = 4 a Q 2. .w f <.U.U.U.U.9.v 0 ` 7.O.W w     Y.Y.Y.Y.Y.Y.Y.Y.Y.Y.Y.Y.",
"Y.Y.Y.Y.Y.Y.Y.Y.Y.Y.Y.Y.Y.Y.Y.  , u ` q.&.w f 6.U.U.U.U.8.v q X.U.U.w.c     Y.Y.Y.Y.Y.Y.Y.Y.Y.Y.Y.Y.",
"Y.Y.Y.Y.Y.Y.Y.Y.Y.Y.Y.Y.Y.Y.Y.  3 m =.S.8.^ } A.U.U.U.U.S.X.W 6.U.S.5.x     Y.Y.Y.Y.Y.Y.Y.Y.Y.Y.Y.Y.",
"Y.Y.Y.Y.Y.Y.Y.Y.Y.Y.Y.Y.Y.Y.Y.  p ] 7.S.H.S.S.U.U.U.U.U.J.S.S.H.J.0.$.f     Y.Y.Y.Y.Y.Y.Y.Y.Y.Y.Y.Y.",
"Y.Y.Y.Y.Y.Y.Y.Y.Y.Y.Y.Y.Y.Y.Y.  5 n | 5.S.U.U.U.U.U.U.U.U.U.U.S.0.} n w   Y.Y.Y.Y.Y.Y.Y.Y.Y.Y.Y.Y.Y.",
"Y.Y.Y.Y.Y.Y.Y.Y.Y.Y.Y.Y.Y.Y.Y.Y.@ @ f +.7.U.U.U.U.U.U.U.U.U.U.0.+.z $ @ Y.Y.Y.Y.Y.Y.Y.Y.Y.Y.Y.Y.Y.Y.",
"Y.Y.Y.Y.Y.Y.Y.Y.Y.Y.Y.Y.Y.Y.Y.Y.Y.  3 B +.0.q.G.q.q.G.G.G.S.0.+.Q 3   Y.Y.Y.Y.Y.Y.Y.Y.Y.Y.Y.Y.Y.Y.Y.",
"Y.Y.Y.Y.Y.Y.Y.Y.Y.Y.Y.Y.Y.Y.Y.Y.Y.  = t N %.%.4.4.%.4.4.%.%.#.V u =   Y.Y.Y.Y.Y.Y.Y.Y.Y.Y.Y.Y.Y.Y.Y.",
"Y.Y.Y.Y.Y.Y.Y.Y.Y.Y.Y.Y.Y.Y.Y.Y.Y.  $ 1 j C ..=.*.*.*.*.=...` j 1 =   Y.Y.Y.Y.Y.Y.Y.Y.Y.Y.Y.Y.Y.Y.Y.",
"Y.Y.Y.Y.Y.Y.Y.Y.Y.Y.Y.Y.Y.Y.Y.Y.Y.  # 1 y b W _ m.m.m.m.;.W b a 1 #   Y.Y.Y.Y.Y.Y.Y.Y.Y.Y.Y.Y.Y.Y.Y.",
"Y.Y.Y.Y.Y.Y.Y.Y.Y.Y.Y.Y.Y.Y.Y.Y.< 0 i v b d R ) M.M.V.V.M.R d j z i q < Y.Y.Y.Y.Y.Y.Y.Y.Y.Y.Y.Y.Y.Y.",
"Y.Y.Y.Y.Y.Y.Y.Y.Y.Y.Y.Y.Y.Y.Y.  k &.>.6.{ n R ) V.P.L.L.C.W b  .1.<.&.k   Y.Y.Y.Y.Y.Y.Y.Y.Y.Y.Y.Y.Y.",
"Y.Y.Y.Y.Y.Y.Y.Y.Y.Y.Y.Y.Y.Y.Y.  c w.J.J.,.m L ) N.K.I.I.M.! n :.U.U.F.K     Y.Y.Y.Y.Y.Y.Y.Y.Y.Y.Y.Y.",
"Y.Y.Y.Y.Y.Y.Y.Y.Y.Y.Y.Y.Y.Y.Y.  c w.J.J.,.n P k.v.n.n.b.l.Y n :.U.U.F.K     Y.Y.Y.Y.Y.Y.Y.Y.Y.Y.Y.Y.",
"Y.Y.Y.Y.Y.Y.Y.Y.Y.Y.Y.Y.Y.Y.Y.  k >.9.D.>.Y U p.h.f.d.h.g./ I ;.D.Z.1.c   Y.Y.Y.Y.Y.Y.Y.Y.Y.Y.Y.Y.Y.",
"Y.Y.Y.Y.Y.Y.Y.Y.Y.Y.Y.Y.Y.Y.Y.Y.0 e T z.l.i.i.f.f.a.a.d.f.i.i.z.z.( h 0 Y.Y.Y.Y.Y.Y.Y.Y.Y.Y.Y.Y.Y.Y.",
"Y.Y.Y.Y.Y.Y.Y.Y.Y.Y.Y.Y.Y.Y.Y.Y.Y.  Z t.h.h.h.h.a.e.e.t.h.h.h.h.s.A   Y.Y.Y.Y.Y.Y.Y.Y.Y.Y.Y.Y.Y.Y.Y.",
"Y.Y.Y.Y.Y.Y.Y.Y.Y.Y.Y.Y.Y.Y.Y.Y.o   Z t.h.h.f.t.H A A H t.h.h.h.s.A     Y.Y.Y.Y.Y.Y.Y.Y.Y.Y.Y.Y.Y.Y.",
"Y.Y.Y.Y.Y.Y.Y.Y.Y.Y.Y.Y.Y.Y.Y.Y.%   Z r.f.g.y.e.D 6 & D e.u.g.s.u.S   o Y.Y.Y.Y.Y.Y.Y.Y.Y.Y.Y.Y.Y.Y.",
"Y.Y.Y.Y.Y.Y.Y.Y.Y.Y.Y.Y.Y.Y.Y.Y.    7 F J U J 9 8 & % 8 Z G / J G 7   o Y.Y.Y.Y.Y.Y.Y.Y.Y.Y.Y.Y.Y.Y.",
"Y.Y.Y.Y.Y.Y.Y.Y.Y.Y.Y.Y.Y.Y.* * o   # 1 r a 5 +   % %   + 4 a r 1 $   o * * * Y.Y.Y.Y.Y.Y.Y.Y.Y.Y.Y.",
"Y.Y.Y.Y.Y.Y.Y.Y.Y.Y.Y.Y.Y.Y.* * % o @ > 3 5 > O % % & % O > 5 3 > @ o % * * * Y.Y.Y.Y.Y.Y.Y.Y.Y.Y.Y.",
"Y.Y.Y.Y.Y.Y.Y.Y.Y.Y.Y.Y.Y.Y.Y.* * * * * * * * * * * * * * * * * * * * * * Y.Y.Y.Y.Y.Y.Y.Y.Y.Y.Y.Y.Y.",
"Y.Y.Y.Y.Y.Y.Y.Y.Y.Y.Y.Y.Y.Y.Y.Y.* * * * * * * * * * * * * * * * * * * * Y.Y.Y.Y.Y.Y.Y.Y.Y.Y.Y.Y.Y.Y.",
"Y.Y.Y.Y.Y.Y.Y.Y.Y.Y.Y.Y.Y.Y.Y.Y.* * * * * * * * * * * * * * * * * * * * Y.Y.Y.Y.Y.Y.Y.Y.Y.Y.Y.Y.Y.Y.",
"Y.Y.Y.Y.Y.Y.Y.Y.Y.Y.Y.Y.Y.Y.Y.Y.Y.Y.Y.Y.Y.Y.Y.Y.Y.Y.Y.Y.Y.Y.Y.Y.Y.Y.Y.Y.Y.Y.Y.Y.Y.Y.Y.Y.Y.Y.Y.Y.Y.Y."
};
