/* XPM */
static char *result[] = {
/* columns rows colors chars-per-pixel */
"50 50 51 1 ",
"  c #130E16",
". c #190F13",
"X c #120F18",
"o c #161015",
"O c #1C1113",
"+ c #121018",
"@ c #24130E",
"# c #251511",
"$ c #291711",
"% c #2D1B14",
"& c #2E1C18",
"* c #311E15",
"= c #342017",
"- c #362219",
"; c #3B251B",
": c #3E281D",
"> c #422B1E",
", c #442D22",
"< c #482F21",
"1 c #473022",
"2 c #4B3223",
"3 c #513625",
"4 c #543927",
"5 c #563B29",
"6 c #5A3D2B",
"7 c #5E412D",
"8 c #61442E",
"9 c #644632",
"0 c #674935",
"q c #6B4C35",
"w c #6B4D39",
"e c #6F5038",
"r c #725137",
"t c #74543C",
"y c #79573C",
"u c #7C593E",
"i c #755540",
"p c #7D5B43",
"a c #825E43",
"s c #836147",
"d c #896447",
"f c #856248",
"g c #89654A",
"h c #8D694C",
"j c #916C4F",
"k c #8F6B50",
"l c #946E51",
"z c #967154",
"x c #9A7356",
"c c #9D7658",
"v c None",
/* pixels */
"vvvvvvvvvvvvvvvvvvvvvvvvvvvvvvvvvvvvvvvvvvvvvvvvvv",
"vvvvvvvvvvvvvvvvvvvvvvvvvvvvvvvvvvvvvvvvvvvvvvvvvv",
"vvvvvvvv*;::;;;;;-*vvvvvvvvvvvvvv*;:;;;;;--*vvvvvv",
"vvvvvvv>6qttiiiit02-vvvvvvvvvvvv>60yiiiiii93*vvvvv",
"vvvvvv>6yhjhdddjlfw2;vvvvvvvvvv>6ujljdddklfq2;vvvv",
"vvvvv%4tjxjsyyydxzdq>$vvvvvvvv*4yjzjayyygzzf0>$vvv",
"vvvvv*4pjcjuytydzxgq>#vvvvvvvv%4ulxjuyyyfxxdr>@vvv",
"vvvvv%3thlldaashzlp9;$vvvvvvvv%3tdlldaaahzja8>@vvv",
"vvvvv%>7tdzjjjjjjsq2-@vvvvvvvv$>7tdjjjjjlja02-@vvv",
"$@$$@@*>7rasaasauq3;%@$$@$$$$#$*>7tassaaauq3;$@vvv",
",,,,,>**>478788772;%->>>,,,,,,;**>478888862-$@@vvv",
"pppppr>$%*----;--=%%6paaapppppt,$%*---*--;*$@@vvvv",
"ttttpt<%-;:<>><21>**5ysasytyipt,*-;:2>>>3>>*$vvvvv",
"544700>=>37eq0ee04:%>8qrq645600>*<37r09rr04>$vvvvv",
"4458q9>=27rdgghsr5>*287644348q9>*17rdhhhar6>$vvvvv",
"777999>=<49gxxxp62:*<64347888q8>-,49dxxzu53;$vvvvv",
"887447;=,:3pxcz0:>:%;>223686456:*>:2fxczw:,;%vvvvv",
"::;==-%*,;,kxxz0->;$%***=;>:---%*>;,fxczw-:;#.vvvv",
"$@@#@@O=,&1pccki-::@OO@@@@@@@@@@*,-,axxzw-:;$Ovvvv",
"vvvvvoO&,&,pxcki-;;$Ovvvvvvvvv O&;=,fxcz0-;;#.vvvv",
"vvvvvvo&&&,pxcz0*%%OXvvvvvvvvvvo$&&,pxczw&%$O+vvvv",
"vvvvvvvoO#1pccz0&@OXvvvvvvvvvvvv+O$,pccz0&#O+vvvvv",
"vvvvvvvv+O1pxck0&OXvvvvvvvvvvvvvv++,fccz0&o+vvvvvv",
"vvvvvvvv+O,fxcz9&.vvvvvvvvvvvvvvvX&,pcczw&ovvvvvvv",
"vvvvvvvvv#,pcczi&Ovvvvvvvvvvvvvvvv#,pxczw&Ovvvvvvv",
"vvvvvvvvv#,pzzk0*vvvvvvvvvvvvvvvvv#,pzkk0%vvvvvvvv",
"vvvvvvvvv$-6909,%@vvvvvvvvvvvvvvvv$-69091%@vvvvvvv",
"vvvvvvvv&-;,,,,:;**vvvvvvvvvvvvvv&-:,,,,:;-*vvvvvv",
"vvvvvvv>6qttiiitt93%vvvvvvvvvvvv:6qtiiitie93*vvvvv",
"vvvvvv:7yhzhdddjlfe2;vvvvvvvvvv>6yhlhdddklfw2;vvvv",
"vvvvv*3tjcjspyydzxf0>@vvvvvvvv&4tjxjsyyudzzf0>$vvv",
"vvvvv%5pjcjuytydzxhq>$vvvvvvvv*4ajxjatyyfxxgq,$vvv",
"vvvvv%3rdzldaaajzja8>@vvvvvvvv%3rdzjdaaahlja8>@vvv",
"vvvvv$>7tdljjjjjjaq3*@vvvvvvvv%>6tdzjjjjlja94=@vvv",
"$@$$$$=>7tssaaaauq3-*@@$$$$@$@$*>7yaaaaasuq3;$@vvv",
",,,,>:%*>377888862;%;,,,,,,,,,;**>477788863;@@@vvv",
"pppppi,$%*=;=---**%*6ppaapapppt,$%*=---;;;*$@@vvvv",
"ttttit<%=;:<>><2<>**5tasaittipy>%-->2>>>2>>*@vvvvv",
"555709>=>47eq9rr05;*,9qr0655609>*>47r08rr04:$vvvvv",
"3359q0>=<8rdhdjar5,*277655459q9>*28rdhhjar6:$vvvvv",
"788809>=<49hxxzp62>%26434678808>=,30kzczu62>$vvvvv",
"887355;=>;2sxczw:::%;1113686546;*,:2scczq>,;$vvvvv",
"::;-;=%%>;>sxxzw;:;%%%=**>>;---%*,;,pccz0-;;$Ovvvv",
"@@@@@@#*>;<sxxzw-:;#@O@@@@@@@@##&,-1pccz0;>;$.vvvv",
"vvvvvoO%:-1pxcxw-;;#Ovvvvvvvvv O%:-,fccz0-;-$.vvvv",
"vvvvvvo$&&1fxcz0*%&OXvvvvvvvvvvo#%&,pcczw*%%OXvvvv",
"vvvvvvvoO#1pxczw&#OXvvvvvvvvvvvvoO#,pccz0&@O+vvvvv",
"vvvvvvvv+O1pxxz0%OXvvvvvvvvvvvvvv O,sxcz0&OXvvvvvv",
"vvvvvvvvXO,sxxz0&ovvvvvvvvvvvvvvvXO,axxz0&ovvvvvvv",
"vvvvvvvvv#,sxczw&ovvvvvvvvvvvvvvvv#,fxczw&ovvvvvvv"
};
