/* XPM */
static char *result[] = {
/* columns rows colors chars-per-pixel */
"50 50 173 2 ",
"   c #010100",
".  c #0A0604",
"X  c #0E0805",
"o  c #05060B",
"O  c #0F0B0B",
"+  c #120B07",
"@  c #150E09",
"#  c #180F09",
"$  c #17100D",
"%  c #1B110B",
"&  c #080A11",
"*  c #0C0E1A",
"=  c #1C1512",
"-  c #13131B",
";  c #21150C",
":  c #26180E",
">  c #2A1A0F",
",  c #241911",
"<  c #2C1D13",
"1  c #2B1F19",
"2  c #211613",
"3  c #311E12",
"4  c #301F1A",
"5  c #2A241E",
"6  c #352214",
"7  c #3D2617",
"8  c #34241B",
"9  c #3D2718",
"0  c #3C281B",
"q  c #151925",
"w  c #0C1830",
"e  c #0E203F",
"r  c #12253F",
"t  c #2D2820",
"y  c #3C2C23",
"u  c #322824",
"i  c #3F392F",
"p  c #2A2C3D",
"a  c #402717",
"s  c #412817",
"d  c #442B1A",
"f  c #492E1C",
"g  c #4C311E",
"h  c #402E24",
"j  c #4C3324",
"k  c #4F392B",
"l  c #443229",
"z  c #523621",
"x  c #563A23",
"c  c #593B26",
"v  c #5C3E28",
"b  c #513C2E",
"n  c #4D3C35",
"m  c #513F33",
"M  c #5D402A",
"N  c #494236",
"B  c #524238",
"V  c #51493C",
"C  c #574436",
"Z  c #62422B",
"A  c #644531",
"S  c #694731",
"D  c #644A35",
"F  c #6C4A34",
"G  c #6D4E3B",
"H  c #714D36",
"J  c #734F39",
"K  c #68523E",
"L  c #775339",
"P  c #7B553D",
"I  c #7E583F",
"U  c #112748",
"Y  c #162441",
"T  c #1E3251",
"R  c #202F4A",
"E  c #283351",
"W  c #383B50",
"Q  c #333B51",
"!  c #1C376D",
"~  c #394258",
"^  c #304269",
"/  c #3B537C",
"(  c #5E4D42",
")  c #564A49",
"_  c #474857",
"`  c #41485D",
"'  c #484753",
"]  c #5E5353",
"[  c #604C41",
"{  c #655244",
"}  c #68534C",
"|  c #735544",
" . c #785944",
".. c #665853",
"X. c #615450",
"o. c #756251",
"O. c #6F6C79",
"+. c #65697D",
"@. c #7D6F73",
"#. c #7D747C",
"$. c #835C42",
"%. c #8A6147",
"&. c #85634C",
"*. c #8E644B",
"=. c #92674C",
"-. c #94694D",
";. c #886750",
":. c #826C56",
">. c #946D56",
",. c #9A6D51",
"<. c #8C745C",
"1. c #9E7155",
"2. c #93735C",
"3. c #9A785D",
"4. c #A17356",
"5. c #A57559",
"6. c #A37A5E",
"7. c #AC7B5D",
"8. c #8B7763",
"9. c #887763",
"0. c #9C7B6D",
"q. c #9B7863",
"w. c #9D866D",
"e. c #91826B",
"r. c #9D8870",
"t. c #AF8163",
"y. c #AE896C",
"u. c #B08466",
"i. c #B48D6F",
"p. c #A18C73",
"a. c #AD987E",
"s. c #A89278",
"d. c #B69376",
"f. c #BA9B7E",
"g. c #B2977B",
"h. c #1E4486",
"j. c #264B8C",
"k. c #2A538F",
"l. c #365385",
"z. c #2C5B9E",
"x. c #275397",
"c. c #345890",
"v. c #2C5EA4",
"b. c #275AA7",
"n. c #3060A6",
"m. c #2C64B4",
"M. c #4A6087",
"N. c #52709F",
"B. c #7A7B8C",
"V. c #787E97",
"C. c #4971AD",
"Z. c #557CB5",
"A. c #5077B2",
"S. c #837D8A",
"D. c #7D829A",
"F. c #7281A2",
"G. c #85899C",
"H. c #96969F",
"J. c #AD9B80",
"K. c #B29D82",
"L. c #BB9E81",
"P. c #B7A286",
"I. c #BAA286",
"U. c #BDA78A",
"Y. c #BEA98C",
"T. c #888DA2",
"R. c #8D92A6",
"E. c #8392AE",
"W. c #999EAE",
"Q. c #8E9CB5",
"!. c #9FA4B2",
"~. c #C1AC8F",
"^. c None",
/* pixels */
"^.^.^.^.^.^.^.^.^.^.^.^.^.^.^.^.^.^.^.^.^.^.^.^.^.^.^.^.^.^.^.^.^.^.^.^.^.^.^.^.^.^.^.^.^.^.^.^.^.^.",
"^.^.^.^.^.^.^.^.^.^.^.^.^.^.^.^.^.^.^.^.^.^.^.^.^.^.^.^.^.^.^.^.^.^.^.^.^.^.^.^.^.^.^.^.^.^.^.^.^.^.",
"^.^.^.^.^.^.^.^.^.^.^.^.^.^.^.^.^.^.^.^.^.^.^.^.^.^.^.^.^.^.^.^.^.^.^.^.^.^.^.^.^.^.^.^.^.^.^.^.^.^.",
"^.^.^.^.^.^.^.^.^.^.^.^.^.^.^.^.^.^.^.^.^.^.^.^.^.^.^.^.^.^.^.^.^.^.^.^.^.^.^.^.^.^.^.^.^.^.^.^.^.^.",
"^.^.^.^.^.^.^.^.^.^.^.^.^.^.^.^.^.^.^.^.^.^.^.^.^.^.^.^.^.^.^.^.^.^.^.^.^.^.^.^.^.^.^.^.^.^.^.^.^.^.",
"^.^.^.^.^.^.^.^.^.^.^.^.^.^.^.^.^.^.^.^.^.^.^.^.^.^.^.^.^.^.^.^.^.^.^.^.^.^.^.^.^.^.^.^.^.^.^.^.^.^.",
"^.^.^.^.^.^.^.^.^.^.^.^.^.^.^.^.^.^.^.^.^.^.^.        ^.^.                ^.^.^.^.^.^.^.^.^.^.^.^.^.",
"^.^.^.^.^.^.^.^.^.^.^.^.^.^.^.^.^.^.^.^.^.^.    . @ $ ^.^.X @ # % % $ X   ^.^.^.^.^.^.^.^.^.^.^.^.^.",
"^.^.^.^.^.^.^.^.^.^.^.^.^.^.^.^.^.^.^.          + 6 6 @ X : 6 9 d d 0 %   ^.^.^.^.^.^.^.^.^.^.^.^.^.",
"^.^.^.^.^.^.^.^.^.^.^.^.^.^.^.^.^.^.+ $ $ @ @ + , f d ; % 6 g z z g 0 %   ^.^.^.^.^.^.^.^.^.^.^.^.^.",
"^.^.^.^.^.^.^.^.^.^.^.^.^.^.^.^.^.  % 9 s 0 7 3 9 g g 9 6 f z z g 6 # .   ^.^.^.^.^.^.^.^.^.^.^.^.^.",
"^.^.^.^.^.^.^.^.^.^.^.^.^.^.^.^.X @ 6 z x x z f g z z g g z x x g < + + X . ^.^.^.^.^.^.^.^.^.^.^.^.",
"^.^.^.^.^.^.^.^.^.^.^.^.^.^.^.  : 8 g z x x x z z x x x z x x x x g 7 6 > #   ^.^.^.^.^.^.^.^.^.^.^.",
"^.^.^.^.^.^.^.^.^.^.^.^.^.^.X X 6 z z M x x x x x x x x x x x x x x z g s ; X . ^.^.^.^.^.^.^.^.^.^.",
"^.^.^.^.^.^.^.^.^.^.^.^.^.  : 9 g x z x x x x x x x x x x x x x x x x z z 9 > #   ^.^.^.^.^.^.^.^.^.",
"^.^.^.^.^.^.^.^.^.^.^.^.    < z x x x x x z x z x x x x x x x x z x x x z f a ;     ^.^.^.^.^.^.^.^.",
"^.^.^.^.^.^.^.^.^.^.^.^.    < x x x M z z f f f z z c x x x x g g z x x x f a %     ^.^.^.^.^.^.^.^.",
"^.^.^.^.^.^.^.^.^.^.^.^.  . 6 z x z x M x z f s d z x x c x z f d g x x z f a ;     ^.^.^.^.^.^.^.^.",
"^.^.^.^.^.^.^.^.^.^.^.  % : s x g f Z $.$. .S g d z c x x x x f s s f g f f s %     ^.^.^.^.^.^.^.^.",
"^.^.^.^.^.^.^.^.^.^.    ; a g z z f L 4.7.7.%.x f z x x x x z f s s s s s s s ;     ^.^.^.^.^.^.^.^.",
"^.^.^.^.^.^.^.^.^.^.    ; s d f Z L *.5.7.7.1.$.S x g z x x x f s s s f f d a %     ^.^.^.^.^.^.^.^.",
"^.^.^.^.^.^.^.^.^.^.  . ; s a a H 4.7.t.7.7.7.6.%.c f z x x z f s s s g x f a ;     ^.^.^.^.^.^.^.^.",
"^.^.^.^.^.^.^.^.^.^.    ; 7 3 ; 0 A ;.i.d.d.3.P H H F Z z z z S H v g z x g 7 ;     ^.^.^.^.^.^.^.^.",
"^.^.^.^.^.^.^.^.^.^.    ; 7 ;   @ ; { a.Y.~.8.l j *.-.F z f z $.,.L c x x f 7 ;     ^.^.^.^.^.^.^.^.",
"^.^.^.^.^.^.^.^.^.^.^.  # ; +   X ; } K.~.~.8.y k 2.q.S z S  .,.4.L z z g d a ;     ^.^.^.^.^.^.^.^.",
"^.^.^.^.^.^.^.^.^.^.^.^..       X % { K.~.~.8.y m p.w.D c $.5.7.4.L x f s s a ;     ^.^.^.^.^.^.^.^.",
"^.^.^.^.^.^.^.^.^.^.^.^.^.      u ( 8.P.~.~.p.o.:.J.J.8.&.1.7.7.4.H f d a 3 ; #   ^.^.^.^.^.^.^.^.^.",
"^.^.^.^.^.^.^.^.^.^.^.^.^.^.    V s.P.~.~.~.U.L.L.Y.U.K.g.u.7.7.,.F s a 7 ; .   ^.^.^.^.^.^.^.^.^.^.",
"^.^.^.^.^.^.^.^.^.^.^.^.^.^.    B i.L.Y.~.~.~.~.~.~.~.L.d.y.5.-.L c a 3 ; #   ^.^.^.^.^.^.^.^.^.^.^.",
"^.^.^.^.^.^.^.^.^.^.^.^.^.^.    m 6.g.Y.~.~.~.~.~.~.L.i.7.7.,.H z d 7 ; . . ^.^.^.^.^.^.^.^.^.^.^.^.",
"^.^.^.^.^.^.^.^.^.^.^.^.^.^.^.  h G 2.d.L.f.L.L.L.L.d.u.5.=.P c 7 3 , #   ^.^.^.^.^.^.^.^.^.^.^.^.^.",
"^.^.^.^.^.^.^.^.^.^.^.^.^.^.^.^.% = C 6.u.u.u.u.u.7.7.7.,.F z d 6 ; . . ^.^.^.^.^.^.^.^.^.^.^.^.^.^.",
"^.^.^.^.^.^.^.^.^.^.^.^.^.^.^.^.^.  0  .>.0.0.0.0.0.q.>.I v 7 s 6 %   ^.^.^.^.^.^.^.^.^.^.^.^.^.^.^.",
"^.^.^.^.^.^.^.^.^.^.^.^.^.^.^.^.^.  , z } #.S.S.S.S.@.| Z g s s 6 #   ^.^.^.^.^.^.^.^.^.^.^.^.^.^.^.",
"^.^.^.^.^.^.^.^.^.^.^.^.^.^.^.^., 1 8 9 ) B.G.V.V.V.O.( z g d s 0 0 u 5 ^.^.^.^.^.^.^.^.^.^.^.^.^.^.",
"^.^.^.^.^.^.^.^.^.^.^.^.^.^.^.  h  .A d } G.R.G.V.V.O.[ x x g d j } 9.N   ^.^.^.^.^.^.^.^.^.^.^.^.^.",
"^.^.^.^.^.^.^.^.^.^.^.^.^.^.    k 4.I g ..H.W.E.T.V.O.[ v c x M K w.a.V   ^.^.^.^.^.^.^.^.^.^.^.^.^.",
"^.^.^.^.^.^.^.^.^.^.^.^.^.^.    k 5.I g ..R.!.Q.R.V.O.[ x x A :.p.a.a.V   ^.^.^.^.^.^.^.^.^.^.^.^.^.",
"^.^.^.^.^.^.^.^.^.^.^.^.^.^.^.  l %.F f ] G.Q.Q.E.V.M.[ c x F 2.s.s.e.N   ^.^.^.^.^.^.^.^.^.^.^.^.^.",
"^.^.^.^.^.^.^.^.^.^.^.^.^.^.^.^.1 y 0 9 ' N.Z.F.A.C.M.) x x v D K V i 5 ^.^.^.^.^.^.^.^.^.^.^.^.^.^.",
"^.^.^.^.^.^.^.^.^.^.^.^.^.^.^.^.^.  % 3 Q v.m.m.m.b.c.` m m n l t $   ^.^.^.^.^.^.^.^.^.^.^.^.^.^.^.",
"^.^.^.^.^.^.^.^.^.^.^.^.^.^.^.^.^.o O # T z.m.m.b.b.k.l.l./ / ^ E q   o ^.^.^.^.^.^.^.^.^.^.^.^.^.^.",
"^.^.^.^.^.^.^.^.^.^.^.^.^.^.^.^.* * o   e l.v.v.z.h.h.x.v.v.v.j.! w   & ^.^.^.^.^.^.^.^.^.^.^.^.^.^.",
"^.^.^.^.^.^.^.^.^.^.^.^.^.^.^.^.* * o   q ~ ` ~ E Y Y U T ~ ` W p -   o ^.^.^.^.^.^.^.^.^.^.^.^.^.^.",
"^.^.^.^.^.^.^.^.^.^.^.^.^.* * * * * o   ; j j d < X     @ 0 j d 6 @   & * * ^.^.^.^.^.^.^.^.^.^.^.^.",
"^.^.^.^.^.^.^.^.^.^.^.^.^.* * * * * & o = 8 8 1 = O o o @ 1 8 8 , $ o & * * ^.^.^.^.^.^.^.^.^.^.^.^.",
"^.^.^.^.^.^.^.^.^.^.^.^.^.^.^.* * * * * * * * * * * * * * * * * * * * * - ^.^.^.^.^.^.^.^.^.^.^.^.^.",
"^.^.^.^.^.^.^.^.^.^.^.^.^.^.^.^.* * * * * * * * * * * * * * * * * * * * ^.^.^.^.^.^.^.^.^.^.^.^.^.^.",
"^.^.^.^.^.^.^.^.^.^.^.^.^.^.^.^.* * * * * * * * * * * * * * * * * * * * ^.^.^.^.^.^.^.^.^.^.^.^.^.^.",
"^.^.^.^.^.^.^.^.^.^.^.^.^.^.^.^.^.^.^.^.^.^.^.^.^.^.^.^.^.^.^.^.^.^.^.^.^.^.^.^.^.^.^.^.^.^.^.^.^.^."
};
