/* XPM */
static char *result[] = {
/* columns rows colors chars-per-pixel */
"50 50 177 2 ",
"   c #010100",
".  c #0A0603",
"X  c #0E0805",
"o  c #05060B",
"O  c #0E0B0C",
"+  c #110B07",
"@  c #150E09",
"#  c #180F09",
"$  c #17100A",
"%  c #1B110B",
"&  c #080A11",
"*  c #0C0E1A",
"=  c #1C1511",
"-  c #13131B",
";  c #21150C",
":  c #26190E",
">  c #2A190F",
",  c #251912",
"<  c #2C1D12",
"1  c #241D19",
"2  c #261A16",
"3  c #311E12",
"4  c #301F1A",
"5  c #2C261F",
"6  c #342114",
"7  c #3D2516",
"8  c #33241B",
"9  c #3C2718",
"0  c #3C281A",
"q  c #1A1D25",
"w  c #0C1830",
"e  c #0E203F",
"r  c #12253F",
"t  c #282522",
"y  c #3E2D24",
"u  c #3D3126",
"i  c #2A2C3D",
"p  c #402717",
"a  c #412817",
"s  c #442B1A",
"d  c #492E1C",
"f  c #4C311E",
"g  c #402E24",
"h  c #4E3323",
"j  c #483328",
"k  c #4F392B",
"l  c #423024",
"z  c #523621",
"x  c #563A23",
"c  c #593B26",
"v  c #573D2B",
"b  c #453E33",
"n  c #513F33",
"m  c #5D402A",
"M  c #55402F",
"N  c #494237",
"B  c #524238",
"V  c #51493C",
"C  c #5C4435",
"Z  c #61422C",
"A  c #644531",
"S  c #694731",
"D  c #6C4B35",
"F  c #684C39",
"G  c #714D36",
"H  c #734F39",
"J  c #76523A",
"K  c #7B553D",
"L  c #7E583F",
"P  c #112748",
"I  c #162441",
"U  c #1E3251",
"Y  c #202F4A",
"T  c #2B3650",
"R  c #383B50",
"E  c #333B51",
"W  c #1C376D",
"Q  c #394258",
"!  c #3C557E",
"~  c #5E4D42",
"^  c #564A49",
"/  c #474857",
"(  c #41485D",
")  c #484753",
"_  c #505157",
"`  c #5E5353",
"'  c #604C41",
"]  c #645245",
"[  c #68534C",
"{  c #735544",
"}  c #7D5841",
"|  c #665853",
" . c #615450",
".. c #796957",
"X. c #6F6C79",
"o. c #65697D",
"O. c #7D6F73",
"+. c #7D747C",
"@. c #835C42",
"#. c #8A6147",
"$. c #8D644B",
"%. c #82654E",
"&. c #92674C",
"*. c #94694D",
"=. c #886750",
"-. c #826C56",
";. c #946D56",
":. c #9A6D51",
">. c #8A735C",
",. c #9E7155",
"<. c #93735C",
"1. c #9A785D",
"2. c #A17356",
"3. c #A57559",
"4. c #A37A5E",
"5. c #AC7B5D",
"6. c #8B7763",
"7. c #8D7B66",
"8. c #9C7B6D",
"9. c #9B7863",
"0. c #8C7E71",
"q. c #9E866B",
"w. c #97826A",
"e. c #9D8870",
"r. c #968670",
"t. c #AF8163",
"y. c #AE896C",
"u. c #B08466",
"i. c #B48D6F",
"p. c #A18D75",
"a. c #AD987E",
"s. c #AA9278",
"d. c #B69376",
"f. c #BA9B7E",
"g. c #B2977B",
"h. c #1E4486",
"j. c #264B8C",
"k. c #2A538F",
"l. c #365385",
"z. c #2C5B9E",
"x. c #275397",
"c. c #345890",
"v. c #2C5EA4",
"b. c #275AA7",
"n. c #3060A6",
"m. c #2C64B4",
"M. c #425980",
"N. c #4A6087",
"B. c #556484",
"V. c #52709F",
"C. c #7A7B8C",
"Z. c #787E97",
"A. c #4971AD",
"S. c #557CB5",
"D. c #5077B2",
"F. c #837D8A",
"G. c #7D829A",
"H. c #7281A2",
"J. c #85899C",
"K. c #96969F",
"L. c #A79782",
"P. c #AD9B80",
"I. c #A99C8C",
"U. c #B29D82",
"Y. c #BB9E81",
"T. c #B7A286",
"R. c #BAA286",
"E. c #BDA78A",
"W. c #BEA98C",
"Q. c #888DA2",
"!. c #8D92A6",
"~. c #8392AE",
"^. c #999EAE",
"/. c #8E9CB5",
"(. c #9FA4B2",
"). c #C1AC8F",
"_. c None",
/* pixels */
"_._._._._._._._._._._._._._._._._._._._._._._._._._._._._._._._._._._._._._._._._._._._._._._._._._.",
"_._._._._._._._._._._._._._._._._._._._._._._._._._._._._._._._._._._._._._._._._._._._._._._._._._.",
"_._._._._._._._._._._._._._._._._._._._._._._._._._._._._._._._._._._._._._._._._._._._._._._._._._.",
"_._._._._._._._._._._._._._._._._._._._._._._._._._._._._._._._._._._._._._._._._._._._._._._._._._.",
"_._._._._._._._._._._._._._._._._._._._._._._._._._._._._._._._._._._._._._._._._._._._._._._._._._.",
"_._._._._._._._._._._._._._._._._._._._._._._._._._._._._._._._._._._._._._._._._._._._._._._._._._.",
"_._._._._._._._._._._._._._.                _._.        _._._._._._._._._._._._._._._._._._._._._._.",
"_._._._._._._._._._._._._._.  . % % % @ @ X _._.$ @ .     _._._._._._._._._._._._._._._._._._._._._.",
"_._._._._._._._._._._._._._.  % 0 s s 7 6 : . @ 6 6 @           _._._._._._._._._._._._._._._._._._.",
"_._._._._._._._._._._._._._.  % 9 d x z d 6 % ; s f : X @ $ $ @ + _._._._._._._._._._._._._._._._._.",
"_._._._._._._._._._._._._._.  . @ < z x z d 6 7 f h 9 6 9 s a 9 =   _._._._._._._._._._._._._._._._.",
"_._._._._._._._._._._._._.. X + @ < f x x z f d z z f d f x x h 6 @ + _._._._._._._._._._._._._._._.",
"_._._._._._._._._._._._.  # < 6 9 d x x x x z z x x z z x x x x d 9 =   _._._._._._._._._._._._._._.",
"_._._._._._._._._._._.. . : a f x x x x x x x x x x x x x x x x x z 6 X X _._._._._._._._._._._._._.",
"_._._._._._._._._._.  # > 7 f z x x x x x m x x x x x x x x x x x x d 9 ;   _._._._._._._._._._._._.",
"_._._._._._._._._.    ; p d x x x x x x x x x x x x z x x x x x x x x x <     _._._._._._._._._._._.",
"_._._._._._._._._.    ; p f x x x f f f z x x x x x z d d f f x x x x x <     _._._._._._._._._._._.",
"_._._._._._._._._.    ; p d z x x d s f x x x x x z d a d f x Z c x x x 3 . . _._._._._._._._._._._.",
"_._._._._._._._._.    ; p a d d d d 9 f z x x x x z d f S L @.@.A d z x 7 : #   _._._._._._._._._._.",
"_._._._._._._._._.    ; p a a p 7 a 7 d x x x x x z f x #.5.5.2.G s h x d p :     _._._._._._._._._.",
"_._._._._._._._._.    % 7 d d d a a a d z x x z f x S @.:.5.5.5.&.J Z d s p ; .   _._._._._._._._._.",
"_._._._._._._._._.    ; p f x f a a a f z x z z d c #.5.5.5.5.5.5.3.G 7 p p ;     _._._._._._._._._.",
"_._._._._._._._._.    ; p d x z f m G S z f x Z G H D { 1.d.d.y.=.A s ; 3 p ;     _._._._._._._._._.",
"_._._._._._._._._.    ; p d x x x J :.@.x d z D &.$.h u 7.).W.f.' ; +   ; 7 :     _._._._._._._._._.",
"_._._._._._._._._.    % p s f z x J 2.*.} S x A 1.<.k y 6.).).U.] # +   + ; # . _._._._._._._._._._.",
"_._._._._._._._._.    ; p a a d x J 2.5.3.@.v F p.p.n y 6.).W.U.] ; +         _._._._._._._._._._._.",
"_._._._._._._._._._.  @ : 3 p d d H ,.5.5.,.=.>.s.a.-...p.).).T.7.~ t       _._._._._._._._._._._._.",
"_._._._._._._._._._._..   ; 7 a a S :.5.5.y.g.T.E.E.T.U.E.).).).T.s.V     _._._._._._._._._._._._._.",
"_._._._._._._._._._._._.  # > 3 p c K &.3.u.d.Y.).).).).).).).W.).y.B     _._._._._._._._._._._._._.",
"_._._._._._._._._._._._._.. . ; 7 s d G :.5.5.i.Y.).).).).).).W.d.4.v     _._._._._._._._._._._._._.",
"_._._._._._._._._._._._._._.  % 3 p p c } &.3.u.d.f.f.f.f.f.Y.d.<.F g   _._._._._._._._._._._._._._.",
"_._._._._._._._._._._._._._.  # 7 p p d z G :.5.5.u.u.u.u.u.u.1.C = = _._._._._._._._._._._._._._._.",
"_._._._._._._._._._._._._._.  @ > 6 7 7 a x } ;.9.9.8.8.8.8.;.} 0   _._._._._._._._._._._._._._._._.",
"_._._._._._._._._._._._._._._.. X ; 7 7 a f m { O.J.F.F.F.0. .h ;   _._._._._._._._._._._._._._._._.",
"_._._._._._._._._._._._._._._._.  $ 7 0 s f z ~ X.Z.Z.Z.J.C.^ 6 $   _._._._._._._._._._._._._._._._.",
"_._._._._._._._._._._._._._._._.  $ 6 s z z x F X.Z.Z.G.!.J.| 6 %   _._._._._._._._._._._._._._._._.",
"_._._._._._._._._._._._._._._.1 5 u M m c x c ' X.G.J.Q.^.!.| 7 4 2 = _._._._._._._._._._._._._._._.",
"_._._._._._._._._._._._._._.  b ..w.r.-.A x x ~ X.G.!.^.(.K.| s A J g   _._._._._._._._._._._._._._.",
"_._._._._._._._._._._._._._.  V a.).).q.F x x ~ o.H.~././.J. .h L 2.k     _._._._._._._._._._._._._.",
"_._._._._._._._._._._._._._.  V a.).).q.D x x ^ N.A.D.S.S.V.) f L 2.k     _._._._._._._._._._._._._.",
"_._._._._._._._._._._._._._.  N q.L.I.0.] n B / c.m.m.m.m.z.E 0 G $.j   _._._._._._._._._._._._._._.",
"_._._._._._._._._._._._._._.o t b _ B.B.M.l.l.l.x.x.m.m.m.z.Y % 5 g 1 o _._._._._._._._._._._._._._.",
"_._._._._._._._._._._._._._._.o   w W j.z.n.b.x.h.h.x.n.n.k.I       o _._._._._._._._._._._._._._._.",
"_._._._._._._._._._._._._._._.o   - Y R ( Q Y P w r T Q ( Q q     o & _._._._._._._._._._._._._._._.",
"_._._._._._._._._._._._._.* * o   $ 6 d z 0 +   o X < p h l ;   o * * * * * _._._._._._._._._._._._.",
"_._._._._._._._._._._._._.* * & o $ 2 8 8 4 & o o O , 4 0 8 = o & * * * * * _._._._._._._._._._._._.",
"_._._._._._._._._._._._._._.* * * * * * * * * * * * * * * * * * * * * * _._._._._._._._._._._._._._.",
"_._._._._._._._._._._._._._._.* * * * * * * * * * * * * * * * * * * * _._._._._._._._._._._._._._._.",
"_._._._._._._._._._._._._._._.* * * * * * * * * * * * * * * * * * * * _._._._._._._._._._._._._._._.",
"_._._._._._._._._._._._._._._._._._._._._._._._._._._._._._._._._._._._._._._._._._._._._._._._._._."
};
