/* XPM */
static char *result[] = {
/* columns rows colors chars-per-pixel */
"50 50 157 2 ",
"   c #020304",
".  c #060606",
"X  c #0C0E1A",
"o  c #1D1D1D",
"O  c gray14",
"+  c #1D225C",
"@  c #1D225D",
"#  c #1D235D",
"$  c #1C235E",
"%  c #1D235E",
"&  c #1D245D",
"*  c #1E255E",
"=  c #1E255F",
"-  c #1F2660",
";  c #202861",
":  c #202962",
">  c #202963",
",  c #202A62",
"<  c #212A62",
"1  c #212B62",
"2  c #25306B",
"3  c #25366D",
"4  c #27366E",
"5  c #27386E",
"6  c #293470",
"7  c #2A3874",
"8  c #2B3875",
"9  c #2A3E75",
"0  c #2C3D78",
"q  c #7E345A",
"w  c #5B3A70",
"e  c #2C4C50",
"r  c #2F5255",
"t  c #32585C",
"y  c #335A5E",
"u  c #2A4075",
"i  c #2B4075",
"p  c #2C4276",
"a  c #2E437B",
"s  c #2D467A",
"d  c #2F497C",
"f  c #2F487D",
"g  c #2F4A7E",
"h  c #34527F",
"j  c #3F6E72",
"k  c #6B5E7F",
"l  c #426568",
"z  c #456568",
"x  c #437579",
"c  c #457A7F",
"v  c #824D6B",
"b  c #344786",
"n  c #394086",
"m  c #344983",
"M  c #33418A",
"N  c #364088",
"B  c #34438B",
"V  c #35468C",
"C  c #384389",
"Z  c #374A8D",
"A  c #345485",
"S  c #365887",
"D  c #385980",
"F  c #355889",
"G  c #375A8B",
"H  c #3B598A",
"J  c #395E8C",
"K  c #3B5291",
"L  c #3E5994",
"P  c #3C5A98",
"I  c #3C6393",
"U  c #3C6695",
"Y  c #3D6896",
"T  c #3F6B99",
"R  c #405F96",
"E  c #425C9D",
"W  c #625380",
"Q  c #436498",
"!  c #44739A",
"~  c #467798",
"^  c #45769D",
"/  c #45779E",
"(  c #46769E",
")  c #4A7B98",
"_  c #487B9B",
"`  c #71758E",
"'  c #466FA0",
"]  c #4568A4",
"[  c #4770A1",
"{  c #4473A3",
"}  c #4B76A0",
"|  c #4B77A0",
" . c #4A7AA5",
".. c #4978AB",
"X. c #4A8186",
"o. c #4A8392",
"O. c #4F8A90",
"+. c #4E859C",
"@. c #4F869D",
"#. c #528F95",
"$. c #549399",
"%. c #4980AA",
"&. c #4982AC",
"*. c #4E85AF",
"=. c #5081A4",
"-. c #5082A4",
";. c #518AA1",
":. c #5389A7",
">. c #548CA9",
",. c #568FAA",
"<. c #508CAC",
"1. c #5690AB",
"2. c #5993AF",
"3. c #5894AC",
"4. c #4B86B0",
"5. c #4C86B1",
"6. c #4C88B1",
"7. c #4E88B1",
"8. c #4F88B1",
"9. c #4C89B2",
"0. c #4E89B2",
"q. c #4D8AB3",
"w. c #4F8DB3",
"e. c #5392B1",
"r. c #5191B3",
"t. c #5394B3",
"y. c #5594B1",
"u. c #5594B2",
"i. c #5191B4",
"p. c #5292B4",
"a. c #5495B4",
"s. c #5597B5",
"d. c #5A9EB3",
"f. c #599DB5",
"g. c #5A9FB4",
"h. c #5B9FB5",
"j. c #5A9FB6",
"k. c #5BA0B3",
"l. c #5EA1B1",
"z. c #5BA1B6",
"x. c #5CA2B6",
"c. c #5FA5B4",
"v. c #5EA5B6",
"b. c #5FA7B7",
"n. c #60A7B4",
"m. c #62AAB5",
"M. c #61ABB7",
"N. c #64AFB7",
"B. c #63AEB8",
"V. c #64AFB8",
"C. c #64B0B8",
"Z. c #65B1B8",
"A. c gray64",
"S. c #9ABDC0",
"D. c #95C9CE",
"F. c #A3C4C6",
"G. c None",
/* pixels */
"G.G.G.G.G.G.G.G.G.G.G.G.G.G.G.G.G.G.G.G.G.G.G.G.G.G.G.G.G.G.G.G.G.G.G.G.G.G.G.G.G.G.G.G.G.G.G.G.G.G.",
"G.G.G.G.G.G.G.G.G.G.G.G.G.G.G.G.G.G.G.G.G.G.G.G.G.G.G.G.G.G.G.G.G.G.G.G.G.G.G.G.G.G.G.G.G.G.G.G.G.G.",
"G.G.G.G.G.G.G.G.G.G.G.G.G.G.G.G.G.G.G.G.G.G.G.G.G.G.G.G.G.G.G.G.G.G.G.G.G.G.G.G.G.G.G.G.G.G.G.G.G.G.",
"G.G.G.G.G.G.G.G.G.G.G.G.G.G.G.G.G.G.G.G.G.G.% $ $ $ $ % G.G.G.G.G.G.G.G.G.G.G.G.G.G.G.G.G.G.G.G.G.G.",
"G.G.G.G.G.G.G.G.G.G.G.G.G.G.G.G.G.G.G.G.G.3 d h D D h d 3 G.G.G.G.G.G.G.G.G.G.G.G.G.G.G.G.G.G.G.G.G.",
"G.G.G.G.G.G.G.G.G.G.G.G.G.G.G.G.G.G.G.G.* u %.j.Z.Z.j.%.i = = G.G.G.G.G.G.G.G.G.G.G.G.G.G.G.G.G.G.G.",
"G.G.G.G.G.G.G.G.G.G.G.G.G.G.G.G.G.G.G.& A / d.M.Z.Z.M.k.;.~ U u G.G.G.G.G.G.G.G.G.G.G.G.G.G.G.G.G.G.",
"G.G.G.G.G.G.G.G.G.G.G.G.G.G.G.G.G.G.4 p ^ f.B.Z.Z.Z.Z.Z.Z.b.t.J 9 G.G.G.G.G.G.G.G.G.G.G.G.G.G.G.G.G.",
"G.G.G.G.G.G.G.G.G.G.G.G.G.G.G.G.G.# s &.g.V.Z.Z.Z.Z.Z.Z.Z.C.B.e.Y : G.G.G.G.G.G.G.G.G.G.G.G.G.G.G.G.",
"G.G.G.G.G.G.G.G.G.G.G.G.G.G.G.G.G.@ s 6.x.Z.Z.D.F.z c Z.Z.O.e o._ < G.G.G.G.G.G.G.G.G.G.G.G.G.G.G.G.",
"G.G.G.G.G.G.G.G.G.G.G.G.G.G.G.G.G.5 S r.v.Z.Z.S.A.O r Z.Z.j   x @.1 G.G.G.G.G.G.G.G.G.G.G.G.G.G.G.G.",
"G.G.G.G.G.G.G.G.G.G.G.G.G.G.G.G., I <.M.V.Z.Z.l o . r Z.Z.j   x @.1 G.G.G.G.G.G.G.G.G.G.G.G.G.G.G.G.",
"G.G.G.G.G.G.G.G.G.G.G.G.G.G.G.G.: T s.C.Z.Z.Z.X.t t X.Z.Z.#.y $.@.1 G.G.G.G.G.G.G.G.G.G.G.G.G.G.G.G.",
"G.G.G.G.G.G.G.G.G.G.G.G.G.G.G.G.: T a.M.c.l.l.m.Z.Z.Z.Z.Z.Z.Z.n.) < G.G.G.G.G.G.G.G.G.G.G.G.G.G.G.G.",
"G.G.G.G.G.G.G.G.G.G.G.G.G.G.G.G.: T w.p.' L L :.Z.Z.Z.Z.Z.Z.N.| m - G.G.G.G.G.G.G.G.G.G.G.G.G.G.G.G.",
"G.G.G.G.G.G.G.G.G.G.G.G.G.G.G.G.: T q.q. .Q V Q -.-.-.-.-.-.=.} H ; G.G.G.G.G.G.G.G.G.G.G.G.G.G.G.G.",
"G.G.G.G.G.G.G.G.G.G.G.G.G.G.G.G.: Y 4.q.z.3.K C n n N M M B Z >.+.1 G.G.G.G.G.G.G.G.G.G.G.G.G.G.G.G.",
"G.G.G.G.G.G.G.G.G.G.G.G.G.G.G.G.G.9 G 9.i.u.1.k q q w M M R ,.y.! , G.G.G.G.G.G.G.G.G.G.G.G.G.G.G.G.",
"G.G.G.G.G.G.G.G.G.G.G.G.G.G.G.G.G.G.u U { *.h.` v v W P P [ 2.( F > G.G.G.G.G.G.G.G.G.G.G.G.G.G.G.G.",
"G.G.G.G.G.G.G.G.G.G.G.G.G.G.G.G.G.G.G.= b ] 5.0.8.8.7.9.9...E 7 = G.G.G.G.G.G.G.G.G.G.G.G.G.G.G.G.G.",
"G.G.G.G.G.G.G.G.G.G.G.G.G.G.G.G.G.G.G.G.6 0 f g g g g g g a 8 2 G.G.G.G.G.G.G.G.G.G.G.G.G.G.G.G.G.G.",
"G.G.G.G.G.G.G.G.G.G.G.G.G.G.G.G.G.G.G.G.G.$ $ $ $ $ $ $ $ $ + G.G.G.G.G.G.G.G.G.G.G.G.G.G.G.G.G.G.G.",
"G.G.G.G.G.G.G.G.G.G.G.G.G.G.G.G.G.G.G.G.G.G.G.G.G.G.G.G.G.G.G.G.G.G.G.G.G.G.G.G.G.G.G.G.G.G.G.G.G.G.",
"G.G.G.G.G.G.G.G.G.G.G.G.G.G.G.G.G.G.G.G.G.G.G.G.G.G.G.G.G.G.G.G.G.G.G.G.G.G.G.G.G.G.G.G.G.G.G.G.G.G.",
"G.G.G.G.G.G.G.G.G.G.G.G.G.G.G.G.G.G.G.G.G.G.G.G.G.G.G.G.G.G.G.G.G.G.G.G.G.G.G.G.G.G.G.G.G.G.G.G.G.G.",
"G.G.G.G.G.G.G.G.G.G.G.G.G.G.G.G.G.G.G.G.G.G.G.G.G.G.G.G.G.G.G.G.G.G.G.G.G.G.G.G.G.G.G.G.G.G.G.G.G.G.",
"G.G.G.G.G.G.G.G.G.G.G.G.G.G.G.G.G.G.G.G.G.G.G.G.G.G.G.G.G.G.G.G.G.G.G.G.G.G.G.G.G.G.G.G.G.G.G.G.G.G.",
"G.G.G.G.G.G.G.G.G.G.G.G.G.G.G.G.G.G.G.G.G.G.G.G.G.G.G.G.G.G.G.G.G.G.G.G.G.G.G.G.G.G.G.G.G.G.G.G.G.G.",
"G.G.G.G.G.G.G.G.G.G.G.G.G.G.G.G.G.G.G.G.G.G.G.G.G.G.G.G.G.G.G.G.G.G.G.G.G.G.G.G.G.G.G.G.G.G.G.G.G.G.",
"G.G.G.G.G.G.G.G.G.G.G.G.G.G.G.G.G.G.G.G.G.G.G.G.G.G.G.G.G.G.G.G.G.G.G.G.G.G.G.G.G.G.G.G.G.G.G.G.G.G.",
"G.G.G.G.G.G.G.G.G.G.G.G.G.G.G.G.G.G.X X X X X X X X X X X X X X G.G.G.G.G.G.G.G.G.G.G.G.G.G.G.G.G.G.",
"G.G.G.G.G.G.G.G.G.G.G.G.G.G.G.G.G.G.X X X X X X X X X X X X X X G.G.G.G.G.G.G.G.G.G.G.G.G.G.G.G.G.G.",
"G.G.G.G.G.G.G.G.G.G.G.G.G.G.G.G.X X X X X X X X X X X X X X X X X X G.G.G.G.G.G.G.G.G.G.G.G.G.G.G.G.",
"G.G.G.G.G.G.G.G.G.G.G.G.G.G.G.G.X X X X X X X X X X X X X X X X X X G.G.G.G.G.G.G.G.G.G.G.G.G.G.G.G.",
"G.G.G.G.G.G.G.G.G.G.G.G.G.G.G.G.X X X X X X X X X X X X X X X X X X G.G.G.G.G.G.G.G.G.G.G.G.G.G.G.G.",
"G.G.G.G.G.G.G.G.G.G.G.G.G.G.G.G.G.G.X X X X X X X X X X X X X X G.G.G.G.G.G.G.G.G.G.G.G.G.G.G.G.G.G.",
"G.G.G.G.G.G.G.G.G.G.G.G.G.G.G.G.G.G.X X X X X X X X X X X X X X G.G.G.G.G.G.G.G.G.G.G.G.G.G.G.G.G.G.",
"G.G.G.G.G.G.G.G.G.G.G.G.G.G.G.G.G.G.G.G.G.G.G.G.G.G.G.G.G.G.G.G.G.G.G.G.G.G.G.G.G.G.G.G.G.G.G.G.G.G.",
"G.G.G.G.G.G.G.G.G.G.G.G.G.G.G.G.G.G.G.G.G.G.G.G.G.G.G.G.G.G.G.G.G.G.G.G.G.G.G.G.G.G.G.G.G.G.G.G.G.G.",
"G.G.G.G.G.G.G.G.G.G.G.G.G.G.G.G.G.G.G.G.G.G.G.G.G.G.G.G.G.G.G.G.G.G.G.G.G.G.G.G.G.G.G.G.G.G.G.G.G.G.",
"G.G.G.G.G.G.G.G.G.G.G.G.G.G.G.G.G.G.G.G.G.G.G.G.G.G.G.G.G.G.G.G.G.G.G.G.G.G.G.G.G.G.G.G.G.G.G.G.G.G.",
"G.G.G.G.G.G.G.G.G.G.G.G.G.G.G.G.G.G.G.G.G.G.G.G.G.G.G.G.G.G.G.G.G.G.G.G.G.G.G.G.G.G.G.G.G.G.G.G.G.G.",
"G.G.G.G.G.G.G.G.G.G.G.G.G.G.G.G.G.G.G.G.G.G.G.G.G.G.G.G.G.G.G.G.G.G.G.G.G.G.G.G.G.G.G.G.G.G.G.G.G.G.",
"G.G.G.G.G.G.G.G.G.G.G.G.G.G.G.G.G.G.G.G.G.G.G.G.G.G.G.G.G.G.G.G.G.G.G.G.G.G.G.G.G.G.G.G.G.G.G.G.G.G.",
"G.G.G.G.G.G.G.G.G.G.G.G.G.G.G.G.G.G.G.G.G.G.G.G.G.G.G.G.G.G.G.G.G.G.G.G.G.G.G.G.G.G.G.G.G.G.G.G.G.G.",
"G.G.G.G.G.G.G.G.G.G.G.G.G.G.G.G.G.G.G.G.G.G.G.G.G.G.G.G.G.G.G.G.G.G.G.G.G.G.G.G.G.G.G.G.G.G.G.G.G.G.",
"G.G.G.G.G.G.G.G.G.G.G.G.G.G.G.G.G.G.G.G.G.G.G.G.G.G.G.G.G.G.G.G.G.G.G.G.G.G.G.G.G.G.G.G.G.G.G.G.G.G.",
"G.G.G.G.G.G.G.G.G.G.G.G.G.G.G.G.G.G.G.G.G.G.G.G.G.G.G.G.G.G.G.G.G.G.G.G.G.G.G.G.G.G.G.G.G.G.G.G.G.G.",
"G.G.G.G.G.G.G.G.G.G.G.G.G.G.G.G.G.G.G.G.G.G.G.G.G.G.G.G.G.G.G.G.G.G.G.G.G.G.G.G.G.G.G.G.G.G.G.G.G.G.",
"G.G.G.G.G.G.G.G.G.G.G.G.G.G.G.G.G.G.G.G.G.G.G.G.G.G.G.G.G.G.G.G.G.G.G.G.G.G.G.G.G.G.G.G.G.G.G.G.G.G."
};
