/* XPM */
static char *result[] = {
/* columns rows colors chars-per-pixel */
"50 50 181 2 ",
"   c #05070E",
".  c #060A0B",
"X  c #0C0E1A",
"o  c #0A1213",
"O  c #0A1018",
"+  c #0C101C",
"@  c #0E171F",
"#  c #111526",
"$  c #131831",
"%  c #161B31",
"&  c #15232C",
"*  c #17282A",
"=  c #1B2F30",
"-  c #18213A",
";  c #191F47",
":  c #1A1F4E",
">  c #1B204C",
",  c #1C225C",
"<  c #1C225D",
"1  c #1D235D",
"2  c #1D235E",
"3  c #1E235E",
"4  c #1D245D",
"5  c #1D245E",
"6  c #27345F",
"7  c #1F2961",
"8  c #202964",
"9  c #212A66",
"0  c #222B66",
"q  c #263066",
"w  c #233069",
"e  c #273369",
"r  c #25356B",
"t  c #26346B",
"y  c #27316D",
"u  c #25346C",
"i  c #28356B",
"p  c #28356D",
"a  c #29356F",
"s  c #2B3B68",
"d  c #2A386F",
"f  c #2D3E6C",
"g  c #293E73",
"h  c #2A3E73",
"j  c #2A3E74",
"k  c #2E3D7A",
"l  c #2F3E7D",
"z  c #4F3E79",
"x  c #573B73",
"c  c #5C3A70",
"v  c #2F526C",
"b  c #335A69",
"n  c #2A4076",
"m  c #2C4379",
"M  c #2D4579",
"N  c #324577",
"B  c #344F79",
"V  c #395C7E",
"C  c #3D6970",
"Z  c gray29",
"A  c #92324F",
"S  c #9D3148",
"D  c #836C7C",
"F  c #3E3F83",
"G  c #344585",
"H  c #334E84",
"J  c #33418A",
"K  c #34438B",
"L  c #364888",
"P  c #384C8F",
"I  c #394E8F",
"U  c #335284",
"Y  c #335285",
"T  c #355687",
"R  c #385087",
"E  c #355688",
"W  c #395289",
"Q  c #3C528E",
"!  c #3B568D",
"~  c #365A8B",
"^  c #375B8B",
"/  c #385D8B",
"(  c #3A4F90",
")  c #3A5190",
"_  c #3D5392",
"`  c #3A6191",
"'  c #3D6896",
"]  c #525184",
"[  c #405E96",
"{  c #405F9A",
"}  c #425B9E",
"|  c #425C9F",
" . c #425D9F",
".. c #435E9F",
"X. c #457682",
"o. c #477C81",
"O. c #44708E",
"+. c #487C88",
"@. c #406C96",
"#. c #436498",
"$. c #41669D",
"%. c #45699A",
"&. c #4A7B95",
"*. c #49729E",
"=. c #4360A0",
"-. c #4361A0",
";. c #4462A1",
":. c #4567A3",
">. c #4569A4",
",. c #466DA6",
"<. c #476EA7",
"1. c #476FA7",
"2. c #4477A3",
"3. c #4B77A0",
"4. c #4579A5",
"5. c #4772A8",
"6. c #477EA9",
"7. c #477EAA",
"8. c #4979AB",
"9. c #4A7CAD",
"0. c #4B7EAD",
"q. c #4A7FAE",
"w. c #4C7EAC",
"e. c #4C7EAD",
"r. c #4B8388",
"t. c #4C858B",
"y. c #4F8B90",
"u. c #4B809C",
"i. c #508996",
"p. c #549399",
"a. c #55949A",
"s. c #758594",
"d. c #788491",
"f. c #4880AA",
"g. c #4B81AF",
"h. c #5083A5",
"j. c #5E89A2",
"k. c #538BAB",
"l. c #548BA8",
"z. c #508CAB",
"x. c #548FAC",
"c. c #5894AC",
"v. c #5A99AE",
"b. c #4C85B1",
"n. c #4C88B2",
"m. c #4D89B3",
"M. c #4D8AB3",
"N. c #4D8BB3",
"B. c #4E8CB3",
"V. c #508EB4",
"C. c #508FB4",
"Z. c #5191B4",
"A. c #5292B4",
"S. c #5596B4",
"D. c #5698B1",
"F. c #5699B5",
"G. c #579AB5",
"H. c #5D9FB0",
"J. c #5899B4",
"K. c #5A9EB5",
"L. c #599EB6",
"P. c #5A9FB6",
"I. c #6F99A3",
"U. c #5FA3B2",
"Y. c #5CA2B6",
"T. c #5EA5B6",
"R. c #60A7AE",
"E. c #60A9AF",
"W. c #60A6B3",
"Q. c #62AAB5",
"!. c #60A8B7",
"~. c #62ACB7",
"^. c #6CAAB0",
"/. c #63AEB8",
"(. c #65B0B8",
"). c #65B1B8",
"_. c #6AB3BA",
"`. c #7CBCC2",
"'. c #839192",
"]. c #CDE5E8",
"[. c None",
/* pixels */
"[.[.[.[.[.[.[.[.[.[.[.[.[.[.[.[.[.[.[.[.[.[.[.[.[.[.[.[.[.[.[.[.[.[.[.[.[.[.[.[.[.[.[.[.[.[.[.[.[.[.",
"[.[.[.[.[.[.[.[.[.[.[.[.[.[.[.[.[.[.[.[.[.[.[.[.[.[.[.[.[.[.[.[.[.[.[.[.[.[.[.[.[.[.[.[.[.[.[.[.[.[.",
"[.[.[.[.[.[.[.[.[.[.[.[.[.[.[.[.[.[.[.[.[.[.[.[.[.[.[.[.[.[.[.[.[.[.[.[.[.[.[.[.[.[.[.[.[.[.[.[.[.[.",
"[.[.[.[.[.[.[.[.[.[.[.[.[.[.[.[.[.[.[.[.[.[.[.[.[.[.[.[.[.[.[.[.[.[.[.[.[.[.[.[.[.[.[.[.[.[.[.[.[.[.",
"[.[.[.[.[.[.[.[.[.[.[.[.[.[.[.[.[.[.[.[.[.[.[.[.[.[.[.[.[.[.[.[.[.[.[.[.[.[.[.[.[.[.[.[.[.[.[.[.[.[.",
"[.[.[.[.[.[.[.[.[.[.[.[.[.[.[.[.[.[.[.[.[.[.[.[.[.[.[.[.[.[.[.[.[.[.[.[.[.[.[.[.[.[.[.[.[.[.[.[.[.[.",
"[.[.[.[.[.[.[.[.[.[.[.[.[.[.[.[.[.[.[.[.[.[.[.[.[.[.[.[.[.[.[.[.[.[.[.[.[.[.[.[.[.[.[.[.[.[.[.[.[.[.",
"[.[.[.[.[.[.[.[.[.[.[.[.[.[.[.[.[.[.[.[.[.[.[.[.[.[.[.[.[.[.[.[.[.[.[.[.[.[.[.[.[.[.[.[.[.[.[.[.[.[.",
"[.[.[.[.[.[.[.[.[.[.[.[.[.[.[.[.[.[.[.[.[.[.[.[.[.[.[.[.[.[.[.[.[.[.[.[.[.[.[.[.[.[.[.[.[.[.[.[.[.[.",
"[.[.[.[.[.[.[.[.[.[.[.[.[.[.[.[.[.[.[.[.[.[.[.[.[.[.[.[.[.[.[.[.[.[.[.[.[.[.[.[.[.[.[.[.[.[.[.[.[.[.",
"[.[.[.[.[.[.[.[.[.[.[.[.[.[.[.[.[.[.[.[.[.[.[.[.[.[.[.[.[.[.[.[.[.[.[.[.[.[.[.[.[.[.[.[.[.[.[.[.[.[.",
"[.[.[.[.[.[.[.[.[.[.[.[.[.[.[.[.[.[.[.[.[.[.[.[.[.[.[.[.[.[.[.[.[.[.[.[.[.[.[.[.[.[.[.[.[.[.[.[.[.[.",
"[.[.[.[.[.[.[.[.[.[.[.[.[.[.[.[.[.[.[.[.[.[.[.[.[.[.[.[.[.[.[.[.[.[.[.[.[.[.[.[.[.[.[.[.[.[.[.[.[.[.",
"[.[.[.[.[.[.[.[.[.[.[.[.[.[.[.[.[.[.[.[.[.[.[.[.[.[.[.[.[.[.[.[.[.[.[.[.[.[.[.[.[.[.[.[.[.[.[.[.[.[.",
"[.[.[.[.[.[.[.[.[.[.[.[.[.[.[.[.[.[.[.[.[.[.[.[.[.[.[.[.[.[.[.[.[.[.[.[.[.[.[.[.[.[.[.[.[.[.[.[.[.[.",
"[.[.[.[.[.[.[.[.[.[.[.[.[.[.[.[.[.[.[.[.[.[.[.[.[.[.[.[.[.[.[.[.[.[.[.[.[.[.[.[.[.[.[.[.[.[.[.[.[.[.",
"[.[.[.[.[.[.[.[.[.[.[.[.[.[.[.[.[.[.[.[.[.[.[.[.[.[.[.[.[.[.[.[.[.[.[.[.[.[.[.[.[.[.[.[.[.[.[.[.[.[.",
"[.[.[.[.[.[.[.[.[.[.[.[.[.[.[.[.[.[.[.[.[.[.[.[.[.[.[.[.[.[.[.[.[.[.[.[.[.[.[.[.[.[.[.[.[.[.[.[.[.[.",
"[.[.[.[.[.[.[.[.[.[.[.[.[.[.[.[.[.[.[.[.[.[.[.[.[.[.[.[.[.[.[.[.[.[.[.[.[.[.[.[.[.[.[.[.[.[.[.[.[.[.",
"[.[.[.[.[.[.[.[.[.[.[.[.[.[.[.[.[.[.[.[.[.[.[.[.[.[.[.[.[.[.[.[.[.[.[.[.[.[.[.[.[.[.[.[.[.[.[.[.[.[.",
"[.[.[.[.[.[.[.[.[.[.[.[.[.[.[.[.[.[.[.[.[.[.4 5 5 5 5 5 5 5 3 [.[.[.[.[.[.[.[.[.[.[.[.[.[.[.[.[.[.[.",
"[.[.[.[.[.[.[.[.[.[.[.[.[.[.[.[.[.[.[.[.[.[.g h h h h h h h j r [.[.[.[.[.[.[.[.[.[.[.[.[.[.[.[.[.[.",
"[.[.[.[.[.[.[.[.[.[.[.[.[.[.[.[.[.[.[.1 2 g 2.f.f.f.f.f.f.f.7.M 2 2 [.[.[.[.[.[.[.[.[.[.[.[.[.[.[.[.",
"[.[.[.[.[.[.[.[.[.[.[.[.[.[.[.[.[.[.h ~ ^ @.D.P.P.P.P.P.P.P.K.u.O.O.B [.[.[.[.[.[.[.[.[.[.[.[.[.[.[.",
"[.[.[.[.[.[.[.[.[.[.[.[.[.[.[.[.[.u U n.V.F./.)._.`.^.a.E.).).).R.p.V t [.[.[.[.[.[.[.[.[.[.[.[.[.[.",
"[.[.[.[.[.[.[.[.[.[.[.[.[.[.[.[.7 ` 6.M.L.~.(.).`.].'.= y.).).).t.* v ' w [.[.[.[.[.[.[.[.[.[.[.[.[.",
"[.[.[.[.[.[.[.[.[.[.[.[.[.[.[.n T 4.M.M.Y.U.h.v.^.'.Z o r.).).).o.. b z./ m [.[.[.[.[.[.[.[.[.[.[.[.",
"[.[.[.[.[.[.[.[.[.[.[.[.[.[.8 Y M.M.M.M.Y.c.P 3.i.&   @ +.W.W.W.X.O C !.C.E 1 [.[.[.[.[.[.[.[.[.[.[.",
"[.[.[.[.[.[.[.[.[.[.[.[.[.9 G $.M.M.M.M.Y.c.P ) ! d q i W [ [ [ R e &.!.C.E 1 [.[.[.[.[.[.[.[.[.[.[.",
"[.[.[.[.[.[.[.[.[.[.[.[., 0 ( 1.M.M.M.M.Y.H.*.] c c c x F J J J I %.k.J.e.H 1 [.[.[.[.[.[.[.[.[.[.[.",
"[.[.[.[.[.[.[.[.[.[.[.[., 0 ( <.m.M.M.M.Y.(.).D S S S A z K K K #.Q.G.q.-.l < [.[.[.[.[.[.[.[.[.[.[.",
"[.[.[.[.[.[.[.[.[.[.[.[., 0 ( ;.,.g.M.M.A.L./.I.d.d.d.s.j.l.l.l.x.S.w.{ k y [.[.[.[.[.[.[.[.[.[.[.[.",
"[.[.[.[.[.[.[.[.[.[.[.[., 0 ( }  .5.9.9.b.Z.Y.T.T.T.T.T.T.T.T.T.J.0.>.( 0 , [.[.[.[.[.[.[.[.[.[.[.[.",
"[.[.[.[.[.[.[.[.[.[.[.[., 0 ( } }  .....8.N.B.B.B.B.B.B.B.B.B.B.0.=.| ( 0 , [.[.[.[.[.[.[.[.[.[.[.[.",
"[.[.[.[.[.[.[.[.[.[.[.[.[.; 6 s f _ } } :.1.1.1.1.1.1.1.1.1.1.1.>.| L a > [.[.[.[.[.[.[.[.[.[.[.[.[.",
"[.[.[.[.[.[.[.[.[.[.[.[.[.[.[.X # N Q Q Q Q Q Q Q Q Q Q Q Q Q Q Q Q p : [.[.[.[.[.[.[.[.[.[.[.[.[.[.",
"[.[.[.[.[.[.[.[.[.[.[.[.[.[.[.X + % - - - - - - - - - - - - - - - - $ [.[.[.[.[.[.[.[.[.[.[.[.[.[.[.",
"[.[.[.[.[.[.[.[.[.[.[.[.[.[.[.[.[.[.[.[.[.[.[.[.[.[.[.[.[.[.[.[.[.[.[.[.[.[.[.[.[.[.[.[.[.[.[.[.[.[.",
"[.[.[.[.[.[.[.[.[.[.[.[.[.[.[.[.[.[.[.[.[.[.[.[.[.[.[.[.[.[.[.[.[.[.[.[.[.[.[.[.[.[.[.[.[.[.[.[.[.[.",
"[.[.[.[.[.[.[.[.[.[.[.[.[.[.[.[.[.[.[.[.[.[.[.[.[.[.[.[.[.[.[.[.[.[.[.[.[.[.[.[.[.[.[.[.[.[.[.[.[.[.",
"[.[.[.[.[.[.[.[.[.[.[.[.[.[.[.[.[.[.[.[.[.[.[.[.[.[.[.[.[.[.[.[.[.[.[.[.[.[.[.[.[.[.[.[.[.[.[.[.[.[.",
"[.[.[.[.[.[.[.[.[.[.[.[.[.[.[.[.[.[.[.[.[.[.[.[.[.[.[.[.[.[.[.[.[.[.[.[.[.[.[.[.[.[.[.[.[.[.[.[.[.[.",
"[.[.[.[.[.[.[.[.[.[.[.[.[.[.[.[.[.[.[.[.[.[.[.[.[.[.[.[.[.[.[.[.[.[.[.[.[.[.[.[.[.[.[.[.[.[.[.[.[.[.",
"[.[.[.[.[.[.[.[.[.[.[.[.[.[.[.[.[.[.[.[.[.[.[.[.[.[.[.[.[.[.[.[.[.[.[.[.[.[.[.[.[.[.[.[.[.[.[.[.[.[.",
"[.[.[.[.[.[.[.[.[.[.[.[.[.[.[.[.[.[.[.[.[.[.[.[.[.[.[.[.[.[.[.[.[.[.[.[.[.[.[.[.[.[.[.[.[.[.[.[.[.[.",
"[.[.[.[.[.[.[.[.[.[.[.[.[.[.[.[.[.[.[.[.[.[.[.[.[.[.[.[.[.[.[.[.[.[.[.[.[.[.[.[.[.[.[.[.[.[.[.[.[.[.",
"[.[.[.[.[.[.[.[.[.[.[.[.[.[.[.[.[.[.[.[.[.[.[.[.[.[.[.[.[.[.[.[.[.[.[.[.[.[.[.[.[.[.[.[.[.[.[.[.[.[.",
"[.[.[.[.[.[.[.[.[.[.[.[.[.[.[.[.[.[.[.[.[.[.[.[.[.[.[.[.[.[.[.[.[.[.[.[.[.[.[.[.[.[.[.[.[.[.[.[.[.[.",
"[.[.[.[.[.[.[.[.[.[.[.[.[.[.[.[.[.[.[.[.[.[.[.[.[.[.[.[.[.[.[.[.[.[.[.[.[.[.[.[.[.[.[.[.[.[.[.[.[.[.",
"[.[.[.[.[.[.[.[.[.[.[.[.[.[.[.[.[.[.[.[.[.[.[.[.[.[.[.[.[.[.[.[.[.[.[.[.[.[.[.[.[.[.[.[.[.[.[.[.[.[."
};
