/* XPM */
static char *result[] = {
/* columns rows colors chars-per-pixel */
"50 50 130 2 ",
"   c #0B0D0D",
".  c #0C0E1A",
"X  c #0C101D",
"o  c #111515",
"O  c #1B1E1E",
"+  c #111534",
"@  c #131739",
"#  c #161A3E",
"$  c #162729",
"%  c #1C2B2C",
"&  c #1A2F30",
"*  c #1D3436",
"=  c #1C2256",
"-  c #1D235C",
";  c #212B65",
":  c #242F6A",
">  c #233066",
",  c #25326B",
"<  c #28376F",
"1  c #26386E",
"2  c #2A3673",
"3  c #2A3B74",
"4  c #2E3D7C",
"5  c #463D7D",
"6  c #533B75",
"7  c #523E78",
"8  c #66386A",
"9  c #264346",
"0  c #2A494C",
"q  c #2E5154",
"w  c #32585C",
"e  c #345963",
"r  c #3C5F62",
"t  c #2D4474",
"y  c #2F437B",
"u  c #2F4A7E",
"i  c #314B77",
"p  c #334D78",
"a  c #3A666A",
"s  c #3D6A6E",
"d  c #3E687F",
"f  c gray29",
"g  c #6B4B76",
"h  c #426D71",
"j  c #43767A",
"k  c #853355",
"l  c #823A5C",
"z  c #884662",
"x  c #854D69",
"c  c #3E3F83",
"v  c #354485",
"b  c #334B84",
"n  c #34428A",
"m  c #374A8E",
"M  c #394C8E",
"N  c #355687",
"B  c #365289",
"V  c #38508C",
"C  c #37588B",
"Z  c #395B8D",
"A  c #3A4F90",
"S  c #3C5392",
"D  c #3E5A95",
"F  c #3E6588",
"G  c #3B6392",
"H  c #45528D",
"J  c #4A5188",
"K  c #406789",
"L  c #477C81",
"P  c #497F84",
"I  c #43639A",
"U  c #446B9B",
"Y  c #467196",
"T  c #43729D",
"R  c #49729F",
"E  c #4B7F9A",
"W  c #58749D",
"Q  c #6E6985",
"!  c #627297",
"~  c #617599",
"^  c #727A90",
"/  c #4466A1",
"(  c #4569A4",
")  c #4573A4",
"_  c #4974A6",
"`  c #4679A0",
"'  c #4B7CA3",
"]  c #4677A8",
"[  c #4977AA",
"{  c #4B7FAD",
"}  c #498087",
"|  c #4C848A",
" . c #4D829B",
".. c #55949A",
"X. c #57999E",
"o. c #7C8182",
"O. c #719A9E",
"+. c #4F80A4",
"@. c #4A82AD",
"#. c #4D88AF",
"$. c #5184A6",
"%. c #5A84A7",
"&. c #538AA4",
"*. c #548BA9",
"=. c #5592A4",
"-. c #5A9DA4",
";. c #5693AC",
":. c #5A96AD",
">. c #5B9AAF",
",. c #4E8CB2",
"<. c #518DB2",
"1. c #5494B3",
"2. c #5A9EB5",
"3. c #5EA4AB",
"4. c #5CA2B6",
"5. c #60A8AF",
"6. c #7EA1A4",
"7. c #61A6B4",
"8. c #63ADB6",
"9. c #68AEB5",
"0. c #64AFB8",
"q. c #64B0B7",
"w. c #65B1B8",
"e. c #6BB3BB",
"r. c #888B8B",
"t. c #8BC4CA",
"y. c #A1CBCF",
"u. c #B0D6DA",
"i. c #DAE3E4",
"p. c None",
/* pixels */
"p.p.p.p.p.p.p.p.p.p.p.p.p.p.p.p.p.p.p.p.p.p.p.p.p.p.p.p.p.p.p.p.p.p.p.p.p.p.p.p.p.p.p.p.p.p.p.p.p.p.",
"p.p.p.p.p.p.p.p.p.p.p.p.p.p.p.p.p.p.p.p.p.p.p.p.p.p.p.p.p.p.p.p.p.p.p.p.p.p.p.p.p.p.p.p.p.p.p.p.p.p.",
"p.p.p.p.p.p.p.p.p.p.p.p.p.p.p.p.p.p.p.p.p.p.p.p.p.p.p.p.p.p.p.p.p.p.p.p.p.p.p.p.p.p.p.p.p.p.p.p.p.p.",
"p.p.p.p.p.p.p.p.p.p.p.p.p.p.p.p.p.p.p.p.p.p.p.p.p.p.p.p.p.p.p.p.p.p.p.p.p.p.p.p.p.p.p.p.p.p.p.p.p.p.",
"p.p.p.p.p.p.p.p.p.p.p.p.p.p.p.p.p.p.p.p.p.p.p.p.p.p.p.p.p.p.p.p.p.p.p.p.p.p.p.p.p.p.p.p.p.p.p.p.p.p.",
"p.p.p.p.p.p.p.p.p.p.p.p.p.p.p.p.p.p.p.p.p.p.p.p.p.p.p.p.p.p.p.p.p.p.p.p.p.p.p.p.p.p.p.p.p.p.p.p.p.p.",
"p.p.p.p.p.p.p.p.p.p.p.p.p.p.p.p.p.p.p.p.p.p.p.p.p.p.p.p.p.p.p.p.p.p.p.p.p.p.p.p.p.p.p.p.p.p.p.p.p.p.",
"p.p.p.p.p.p.p.p.p.p.p.p.p.p.p.p.p.p.p.- - - - - - ; - - - - p.p.p.p.p.p.p.p.p.p.p.p.p.p.p.p.p.p.p.p.",
"p.p.p.p.p.p.p.p.p.p.p.p.p.p.p.p.p.p.: : > , , , : , , , , , , p.p.p.p.p.p.p.p.p.p.p.p.p.p.p.p.p.p.p.",
"p.p.p.p.p.p.p.p.p.p.p.p.p.p.p.p.p.; b G G G G G G G G G G G N 1 p.p.p.p.p.p.p.p.p.p.p.p.p.p.p.p.p.p.",
"p.p.p.p.p.p.p.p.p.p.p.p.p.p.p.p.; , G #.,.<.<.<.,.,.,.,.,.,.T y > p.p.p.p.p.p.p.p.p.p.p.p.p.p.p.p.p.",
"p.p.p.p.p.p.p.p.p.p.p.p.p.p.p.; 4 b G ,.1.4.4.4.4.4.4.4.4.4.;. .K t p.p.p.p.p.p.p.p.p.p.p.p.p.p.p.p.",
"p.p.p.p.p.p.p.p.p.p.p.p.p.p.- ; v I [ ,.4.8.e.e.9.3.3.q.q.q.4.3. .p ; p.p.p.p.p.p.p.p.p.p.p.p.p.p.p.",
"p.p.p.p.p.p.p.p.p.p.p.p.p.p.- ; B ) <.2.7.e.t.u.6.a j 3.q.q...s e d F t p.p.p.p.p.p.p.p.p.p.p.p.p.p.",
"p.p.p.p.p.p.p.p.p.p.p.p.p.p.; 1 D #.2.8.q.e.y.i.r.O 0 X.w.w.} & * } &.p - p.p.p.p.p.p.p.p.p.p.p.p.p.",
"p.p.p.p.p.p.p.p.p.p.p.p.p., u Z ) ,.2.0.q.q.O.o.f   9 X.w.w.L $ & | =.p - p.p.p.p.p.p.p.p.p.p.p.p.p.",
"p.p.p.p.p.p.p.p.p.p.p.p.- , Z { #.,.4.q.w.5.h % o   0 X.w.w.} % * | =.p - p.p.p.p.p.p.p.p.p.p.p.p.p.",
"p.p.p.p.p.p.p.p.p.p.p.p.- 1 G ,.1.2.4.q.w.8.| w q q j 3.w.w...a s X.=.p - p.p.p.p.p.p.p.p.p.p.p.p.p.",
"p.p.p.p.p.p.p.p.p.p.p.p.- 1 G ,.2.0.q.q.w.w.7.-.-.-.5.q.w.w.5.5.3.8.=.p - p.p.p.p.p.p.p.p.p.p.p.p.p.",
"p.p.p.p.p.p.p.p.p.p.p.p.- , G ,.4.q.w.w.w.w.w.0.w.w.q.q.w.w.q.q.e.9.=.p - p.p.p.p.p.p.p.p.p.p.p.p.p.",
"p.p.p.p.p.p.p.p.p.p.p.p.- , G ,.4.0.0.0.8.8.9.0.w.w.w.w.w.q.q.w.9.9.&.p - p.p.p.p.p.p.p.p.p.p.p.p.p.",
"p.p.p.p.p.p.p.p.p.p.p.p.- , G ,.4.4.>.*.&.&.2.8.w.w.w.9.w.e.w.w.7.;.Y 3 - p.p.p.p.p.p.p.p.p.p.p.p.p.",
"p.p.p.p.p.p.p.p.p.p.p.p.- 1 G ,.4.7.+.D S D ' 7.0.0.0.0.0.w.q.q.>.R m , - p.p.p.p.p.p.p.p.p.p.p.p.p.",
"p.p.p.p.p.p.p.p.p.p.p.p.- , G ,.4.4.*.U S n I &.*.*.*.*.*.*.&.&.' R C , ; p.p.p.p.p.p.p.p.p.p.p.p.p.",
"p.p.p.p.p.p.p.p.p.p.p.p.- 1 G ,.2.8.7.:.R A A H H D S D S S D D U *.E t - p.p.p.p.p.p.p.p.p.p.p.p.p.",
"p.p.p.p.p.p.p.p.p.p.p.p.p., N T *.4.8.7.*.I H 7 6 6 5 v n n m D _ 1.$.i - p.p.p.p.p.p.p.p.p.p.p.p.p.",
"p.p.p.p.p.p.p.p.p.p.p.p.p.p.1 y U 1.7.8.7.:.Q l k k 8 c n n I $.>.1.` t - p.p.p.p.p.p.p.p.p.p.p.p.p.",
"p.p.p.p.p.p.p.p.p.p.p.p.p.p.- , C { 1.2.7.7.^ x z z g H S S I &.*.` G t - p.p.p.p.p.p.p.p.p.p.p.p.p.",
"p.p.p.p.p.p.p.p.p.p.p.p.p.p.- : b ( { 1.1.1.%.~ ! W W ] ] ] ] _ I b 3 p.p.p.p.p.p.p.p.p.p.p.p.p.p.p.",
"p.p.p.p.p.p.p.p.p.p.p.p.p.p.p.; 4 S / { { { { { { { { @.{ { ) D v , - p.p.p.p.p.p.p.p.p.p.p.p.p.p.p.",
"p.p.p.p.p.p.p.p.p.p.p.p.p.p.p.p., 3 M U ( ( ( ( ( ( ( ( ( ( D c < p.p.p.p.p.p.p.p.p.p.p.p.p.p.p.p.p.",
"p.p.p.p.p.p.p.p.p.p.p.p.p.p.p.p.p.; 4 A A S A A A S A A A A n ; - p.p.p.p.p.p.p.p.p.p.p.p.p.p.p.p.p.",
"p.p.p.p.p.p.p.p.p.p.p.p.p.p.p.p.p.p., 2 2 2 2 2 2 2 2 2 2 2 2 p.p.p.p.p.p.p.p.p.p.p.p.p.p.p.p.p.p.p.",
"p.p.p.p.p.p.p.p.p.p.p.p.p.p.p.p.p.p.= = = - - ; - = = - = - = p.p.p.p.p.p.p.p.p.p.p.p.p.p.p.p.p.p.p.",
"p.p.p.p.p.p.p.p.p.p.p.p.p.p.p.p.p.p.+ # # # # # # # # # # # @ p.p.p.p.p.p.p.p.p.p.p.p.p.p.p.p.p.p.p.",
"p.p.p.p.p.p.p.p.p.p.p.p.p.p.p.p.p.p.. . X X X X X X X X X X X p.p.p.p.p.p.p.p.p.p.p.p.p.p.p.p.p.p.p.",
"p.p.p.p.p.p.p.p.p.p.p.p.p.p.p.p.. .   . . . . . . . . . . . . . . . p.p.p.p.p.p.p.p.p.p.p.p.p.p.p.p.",
"p.p.p.p.p.p.p.p.p.p.p.p.p.p.p.. . . . . . . . . . . . . . . . . . . p.p.p.p.p.p.p.p.p.p.p.p.p.p.p.p.",
"p.p.p.p.p.p.p.p.p.p.p.p.p.p.. . . . . . . . . . . . . . . . . . . . . . p.p.p.p.p.p.p.p.p.p.p.p.p.p.",
"p.p.p.p.p.p.p.p.p.p.p.p.p.p.. . . . . . . . . . . . . . . . . . . . . . p.p.p.p.p.p.p.p.p.p.p.p.p.p.",
"p.p.p.p.p.p.p.p.p.p.p.p.p.p.. . . . . . . . . . . . . . . . . . . . . . p.p.p.p.p.p.p.p.p.p.p.p.p.p.",
"p.p.p.p.p.p.p.p.p.p.p.p.p.p.p.. . . . . . . . . . . . . . . . . . . p.p.p.p.p.p.p.p.p.p.p.p.p.p.p.p.",
"p.p.p.p.p.p.p.p.p.p.p.p.p.p.p.p.. . . . . . . . . . . . . . . . . . p.p.p.p.p.p.p.p.p.p.p.p.p.p.p.p.",
"p.p.p.p.p.p.p.p.p.p.p.p.p.p.p.p.p.p.p.p.p.p.p.p.p.p.p.p.p.p.p.p.p.p.p.p.p.p.p.p.p.p.p.p.p.p.p.p.p.p.",
"p.p.p.p.p.p.p.p.p.p.p.p.p.p.p.p.p.p.p.p.p.p.p.p.p.p.p.p.p.p.p.p.p.p.p.p.p.p.p.p.p.p.p.p.p.p.p.p.p.p.",
"p.p.p.p.p.p.p.p.p.p.p.p.p.p.p.p.p.p.p.p.p.p.p.p.p.p.p.p.p.p.p.p.p.p.p.p.p.p.p.p.p.p.p.p.p.p.p.p.p.p.",
"p.p.p.p.p.p.p.p.p.p.p.p.p.p.p.p.p.p.p.p.p.p.p.p.p.p.p.p.p.p.p.p.p.p.p.p.p.p.p.p.p.p.p.p.p.p.p.p.p.p.",
"p.p.p.p.p.p.p.p.p.p.p.p.p.p.p.p.p.p.p.p.p.p.p.p.p.p.p.p.p.p.p.p.p.p.p.p.p.p.p.p.p.p.p.p.p.p.p.p.p.p.",
"p.p.p.p.p.p.p.p.p.p.p.p.p.p.p.p.p.p.p.p.p.p.p.p.p.p.p.p.p.p.p.p.p.p.p.p.p.p.p.p.p.p.p.p.p.p.p.p.p.p.",
"p.p.p.p.p.p.p.p.p.p.p.p.p.p.p.p.p.p.p.p.p.p.p.p.p.p.p.p.p.p.p.p.p.p.p.p.p.p.p.p.p.p.p.p.p.p.p.p.p.p."
};
