/* XPM */
static char *result[] = {
/* columns rows colors chars-per-pixel */
"50 50 143 2 ",
"   c #0C0E1A",
".  c #0C101C",
"X  c #0D1122",
"o  c #111526",
"O  c #10152C",
"+  c #121631",
"@  c #131831",
"#  c #161B31",
"$  c #15183B",
"%  c #18213A",
"&  c #2E2E30",
"*  c #1A1F4E",
"=  c #1B204C",
"-  c #1F2951",
";  c #1D2458",
":  c #1F265B",
">  c #1C225C",
",  c #1D235C",
"<  c #1D235E",
"1  c #1E225E",
"2  c #233C40",
"3  c #202961",
"4  c #222B63",
"5  c #222965",
"6  c #222B66",
"7  c #222D66",
"8  c #232D67",
"9  c #233168",
"0  c #243169",
"q  c #28376B",
"w  c #28356D",
"e  c #29356F",
"r  c #2D3E6C",
"t  c #313A6B",
"y  c #283A71",
"u  c #2D3F70",
"i  c #2C3A77",
"p  c #2E3D7B",
"a  c #443E7F",
"s  c #533B76",
"d  c #693767",
"f  c #2F5156",
"g  c #2C4071",
"h  c #2D4372",
"j  c #324577",
"k  c #314778",
"l  c #32427F",
"z  c #304B7E",
"x  c #694879",
"c  c #755779",
"v  c #982F4A",
"b  c #313F83",
"n  c #33418A",
"m  c #33428B",
"M  c #34438B",
"N  c #364888",
"B  c #36498D",
"V  c #325082",
"C  c #395981",
"Z  c #3B5F83",
"A  c #3C528E",
"S  c #375B8B",
"D  c #3A4F90",
"F  c #384F92",
"G  c #3C5193",
"H  c #3D5392",
"J  c #3C5096",
"K  c #3C5196",
"L  c #3B5D93",
"P  c #3D5B95",
"I  c #3E5F9A",
"U  c #3C6184",
"Y  c #3E6588",
"T  c #3F688D",
"R  c #3A6292",
"E  c #3F629D",
"W  c #484885",
"Q  c #544C86",
"!  c #595A8E",
"~  c #425B9E",
"^  c #425C9F",
"/  c #425D9F",
"(  c #457582",
")  c #44708E",
"_  c #507F84",
"`  c #436698",
"'  c #44679A",
"]  c #476D9C",
"[  c #58649F",
"{  c #41719E",
"}  c #4360A0",
"|  c #4462A1",
" . c #4364A1",
".. c #426BA2",
"X. c #426DA1",
"o. c #436EA3",
"O. c #4569A4",
"+. c #456EA5",
"@. c #476EA6",
"#. c #476EA7",
"$. c #476FA7",
"%. c #4273A0",
"&. c #4579A4",
"*. c #4B78A0",
"=. c #4772A8",
"-. c #497AAB",
";. c #6972A2",
":. c #4C858A",
">. c #508D92",
",. c #4A84AE",
"<. c #4F88AE",
"1. c #5185A3",
"2. c #5286A6",
"3. c #538EA1",
"4. c #508BA8",
"5. c #5591AE",
"6. c #5997AD",
"7. c #5999A9",
"8. c #5A99AE",
"9. c #4C86B1",
"0. c #4E8BB3",
"q. c #4E8CB3",
"w. c #508AB0",
"e. c #5191B4",
"r. c #5495B4",
"t. c #5597B5",
"y. c #5BA0B6",
"u. c #5CA3B6",
"i. c #5DA4B6",
"p. c #5EA5B6",
"a. c #61A9B3",
"s. c #62ABB4",
"d. c #60A9B7",
"f. c #64AFB7",
"g. c #63AEB8",
"h. c #7CADBE",
"j. c #64B0B7",
"k. c #65B0B8",
"l. c #65B1B8",
"z. c #9FA5C8",
"x. c #8EBDC1",
"c. c #CECED0",
"v. c None",
/* pixels */
"v.v.v.v.v.v.v.v.v.v.v.v.v.v.v.v.v.v.v.v.v.v.v.v.v.v.v.v.v.v.v.v.v.v.v.v.v.v.v.v.v.v.v.v.v.v.v.v.v.v.",
"v.v.v.v.v.v.v.v.v.v.v.v.v.v.v.v.v.v.v.v.v.v.v.v.v.v.v.v.v.v.v.v.v.v.v.v.v.v.v.v.v.v.v.v.v.v.v.v.v.v.",
"v.v.v.v.v.v.v.v.v.v.v.v.v.v.v.v.v.v.v.v.v.v.v.v.v.v.v.v.v.v.v.v.v.v.v.v.v.v.v.v.v.v.v.v.v.v.v.v.v.v.",
"v.v.v.v.v.v.v.v.v.v.v.v.v.v.v.v.v.v.v.v.v.v.v.v.v.v.v.v.v.v.v.v.v.v.v.v.v.v.v.v.v.v.v.v.v.v.v.v.v.v.",
"v.v.v.v.v.v.v.v.v.v.v.v.v.v.v.v.v.v.v.v.v.v.v.v.v.v.v.v.v.v.v.v.v.v.v.v.v.v.v.v.v.v.v.v.v.v.v.v.v.v.",
"v.v.v.v.v.v.v.v.v.v.v.v.v.v.v.v.v.v.v.v.v.v.v.v.v.v.v.v.v.v.v.v.v.v.v.v.v.v.v.v.v.v.v.v.v.v.v.v.v.v.",
"v.v.v.v.v.v.v.v.v.v.v.v.v.v.v.v.v.v.v.v.v.v.v.v.v.v.v.v.v.v.v.v.v.v.v.v.v.v.v.v.v.v.v.v.v.v.v.v.v.v.",
"v.v.v.v.v.v.v.v.v.v.v.v.v.v.v.v.v.v.v.v.v.v.v.v.v.v.v.v.v.v.v.v.v.v.v.v.v.v.v.v.v.v.v.v.v.v.v.v.v.v.",
"v.v.v.v.v.v.v.v.v.v.v.v.v.v.v.v.v.v.v.v.v.v.v.v.v.v.v.v.v.v.v.v.v.v.v.v.v.v.v.v.v.v.v.v.v.v.v.v.v.v.",
"v.v.v.v.v.v.v.v.v.v.v.v.v.v.v.v.v.v.v.v.v.v.v.v.v.v.v.v.v.v.v.v.v.v.v.v.v.v.v.v.v.v.v.v.v.v.v.v.v.v.",
"v.v.v.v.v.v.v.v.v.v.v.v.v.v.v.v.v.v.v.v.v.v.v.v.v.v.v.v.v.v.v.v.v.v.v.v.v.v.v.v.v.v.v.v.v.v.v.v.v.v.",
"v.v.v.v.v.v.v.v.v.v.v.v.v.v.v.v.v.v.v.v.v.v.v.v.v.v.v.v.v.v.v.v.v.v.v.v.v.v.v.v.v.v.v.v.v.v.v.v.v.v.",
"v.v.v.v.v.v.v.v.v.v.v.v.v.v.v.v.v.v.v.v.v.v.v.v.v.v.v.v.v.v.v.v.v.v.v.v.v.v.v.v.v.v.v.v.v.v.v.v.v.v.",
"v.v.v.v.v.v.v.v.v.v.v.v.v.v.v.v.v.v.v.v.v.v.v.v.v.v.v.v.v.v.v.v.v.v.v.v.v.v.v.v.v.v.v.v.v.v.v.v.v.v.",
"v.v.v.v.v.v.v.v.v.v.v.v.v.v.v.v.v.v.v.v.v.v.v.v.v.v.v.v.v.v.v.v.v.v.v.v.v.v.v.v.v.v.v.v.v.v.v.v.v.v.",
"v.v.v.v.v.v.v.v.v.v.v.v.v.v.v.v.v.v.v.v.v.v.v.v.v.v.v.v.v.v.v.v.v.v.v.v.v.v.v.v.v.v.v.v.v.v.v.v.v.v.",
"v.v.v.v.v.v.v.v.v.v.v.v.v.v.v.v.v.v.v.v.v.v.v.v.v.v.v.v.v.v.v.v.v.v.v.v.v.v.v.v.v.v.v.v.v.v.v.v.v.v.",
"v.v.v.v.v.v.v.v.v.v.v.v.v.v.v.v.v.v.v.v.v.v.v.v.v.v.v.v.v.v.v.v.v.v.v.v.v.v.v.v.v.v.v.v.v.v.v.v.v.v.",
"v.v.v.v.v.v.v.v.v.v.v.v.v.v.v.v.v.v.v.v.v.v.v.v.v.v.v.v.v.v.v.v.v.v.v.v.v.v.v.v.v.v.v.v.v.v.v.v.v.v.",
"v.v.v.v.v.v.v.v.v.v.v.v.v.v.v.v.v.v.v.v.v.v.v.v.v.v.v.v.v.v.v.v.v.v.v.v.v.v.v.v.v.v.v.v.v.v.v.v.v.v.",
"v.v.v.v.v.v.v.v.v.v.v.v.v.v.v.v.v.v.v.v.v.v.v.v.v.v.v.v.v.v.v.v.v.v.v.v.v.v.v.v.v.v.v.v.v.v.v.v.v.v.",
"v.v.v.v.v.v.v.v.v.v.v.v.v.v.v.v.v.v.v.v.v.v.v.v.v.v.v.v.v.v.v.v.v.v.v.v.v.v.v.v.v.v.v.v.v.v.v.v.v.v.",
"v.v.v.v.v.v.v.v.v.v.v.v.v.v.v.v.v., < < < < < < < < < < < < < < , v.v.v.v.v.v.v.v.v.v.v.v.v.v.v.v.v.",
"v.v.v.v.v.v.v.v.v.v.v.v.v.v.v.v.3 V S S T ) ) ) ) ) ) ) ) ) ) ) U 4 v.v.v.v.v.v.v.v.v.v.v.v.v.v.v.v.",
"v.v.v.v.v.v.v.v.v.v.v.v.v.v.v.0 y { q.e.p.l.l.l.l.l.l.l.l.l.l.l.3.h q v.v.v.v.v.v.v.v.v.v.v.v.v.v.v.",
"v.v.v.v.v.v.v.v.v.v.v.v.v.v.1 z &.,.r.d.g.l.l.l.l.l.l.l.l.l.l.l.a.7.C 1 v.v.v.v.v.v.v.v.v.v.v.v.v.v.",
"v.v.v.v.v.v.v.v.v.v.v.v.v.5 i L 0.t.u.l.l.l.l.l.l.l.l.l.l.l.l.l.l.l.Z < v.v.v.v.v.v.v.v.v.v.v.v.v.v.",
"v.v.v.v.v.v.v.v.v.v.v.v.> 6 D $.q.p.l.l.l.l.l.l.l.l.l.l.l.l.l.l.l.l.Y 7 v.v.v.v.v.v.v.v.v.v.v.v.v.v.",
"v.v.v.v.v.v.v.v.v.v.v.v.> 6 D $.q.p.l.l.l.l.l.l.l.l.l.l.l.l.l.l.l.l.4.R 9 v.v.v.v.v.v.v.v.v.v.v.v.v.",
"v.v.v.v.v.v.v.v.v.v.v.v.> 6 D $.q.p.l.l.6.2.2.h.x._ >.l.l.l.j.:.( 1.<.%.0 > v.v.v.v.v.v.v.v.v.v.v.v.",
"v.v.v.v.v.v.v.v.v.v.v.v.> 6 D #.0.i.k.l.] M n z.c.& f f.f.f.s.2 O b ..%.0 > v.v.v.v.v.v.v.v.v.v.v.v.",
"v.v.v.v.v.v.v.v.v.v.v.v.> 6 D | @.w.y.k.8.*.B [ ;.t k ' ' ' ` u g X.+.P 8 > v.v.v.v.v.v.v.v.v.v.v.v.",
"v.v.v.v.v.v.v.v.v.v.v.v.v.: l G / =.w.i.p.5.I W s s a n n n n F E -.O.D 6 > v.v.v.v.v.v.v.v.v.v.v.v.",
"v.v.v.v.v.v.v.v.v.v.v.v.v.+ ; p ~ / @.0.q.0.9.c v v d n n n m o.-.} ^ D 6 > v.v.v.v.v.v.v.v.v.v.v.v.",
"v.v.v.v.v.v.v.v.v.v.v.v.v.X $ - r H | #.$.$.$.! x x Q J J J K  .O.^ N e = v.v.v.v.v.v.v.v.v.v.v.v.v.",
"v.v.v.v.v.v.v.v.v.v.v.v.v.v.v.  o j A A A A A A A A A A A A A A A A w * v.v.v.v.v.v.v.v.v.v.v.v.v.v.",
"v.v.v.v.v.v.v.v.v.v.v.v.v.v.v.  . # % % % % % % % % % % % % % % % % @ v.v.v.v.v.v.v.v.v.v.v.v.v.v.v.",
"v.v.v.v.v.v.v.v.v.v.v.v.v.v.v.v.v.v.v.v.v.v.v.v.v.v.v.v.v.v.v.v.v.v.v.v.v.v.v.v.v.v.v.v.v.v.v.v.v.v.",
"v.v.v.v.v.v.v.v.v.v.v.v.v.v.v.v.v.v.v.v.v.v.v.v.v.v.v.v.v.v.v.v.v.v.v.v.v.v.v.v.v.v.v.v.v.v.v.v.v.v.",
"v.v.v.v.v.v.v.v.v.v.v.v.v.v.v.v.v.v.v.v.v.v.v.v.v.v.v.v.v.v.v.v.v.v.v.v.v.v.v.v.v.v.v.v.v.v.v.v.v.v.",
"v.v.v.v.v.v.v.v.v.v.v.v.v.v.v.v.v.v.v.v.v.v.v.v.v.v.v.v.v.v.v.v.v.v.v.v.v.v.v.v.v.v.v.v.v.v.v.v.v.v.",
"v.v.v.v.v.v.v.v.v.v.v.v.v.v.v.v.v.v.v.v.v.v.v.v.v.v.v.v.v.v.v.v.v.v.v.v.v.v.v.v.v.v.v.v.v.v.v.v.v.v.",
"v.v.v.v.v.v.v.v.v.v.v.v.v.v.v.v.v.v.v.v.v.v.v.v.v.v.v.v.v.v.v.v.v.v.v.v.v.v.v.v.v.v.v.v.v.v.v.v.v.v.",
"v.v.v.v.v.v.v.v.v.v.v.v.v.v.v.v.v.v.v.v.v.v.v.v.v.v.v.v.v.v.v.v.v.v.v.v.v.v.v.v.v.v.v.v.v.v.v.v.v.v.",
"v.v.v.v.v.v.v.v.v.v.v.v.v.v.v.v.v.v.v.v.v.v.v.v.v.v.v.v.v.v.v.v.v.v.v.v.v.v.v.v.v.v.v.v.v.v.v.v.v.v.",
"v.v.v.v.v.v.v.v.v.v.v.v.v.v.v.v.v.v.v.v.v.v.v.v.v.v.v.v.v.v.v.v.v.v.v.v.v.v.v.v.v.v.v.v.v.v.v.v.v.v.",
"v.v.v.v.v.v.v.v.v.v.v.v.v.v.v.v.v.v.v.v.v.v.v.v.v.v.v.v.v.v.v.v.v.v.v.v.v.v.v.v.v.v.v.v.v.v.v.v.v.v.",
"v.v.v.v.v.v.v.v.v.v.v.v.v.v.v.v.v.v.v.v.v.v.v.v.v.v.v.v.v.v.v.v.v.v.v.v.v.v.v.v.v.v.v.v.v.v.v.v.v.v.",
"v.v.v.v.v.v.v.v.v.v.v.v.v.v.v.v.v.v.v.v.v.v.v.v.v.v.v.v.v.v.v.v.v.v.v.v.v.v.v.v.v.v.v.v.v.v.v.v.v.v.",
"v.v.v.v.v.v.v.v.v.v.v.v.v.v.v.v.v.v.v.v.v.v.v.v.v.v.v.v.v.v.v.v.v.v.v.v.v.v.v.v.v.v.v.v.v.v.v.v.v.v."
};
