/* XPM */
static char *result[] = {
/* columns rows colors chars-per-pixel */
"50 50 158 2 ",
"   c #010101",
".  c #020304",
"X  c #040404",
"o  c #0C0E1A",
"O  c #1E1E1E",
"+  c gray18",
"@  c #1C225D",
"#  c #1D225D",
"$  c #1C235D",
"%  c #1D235D",
"&  c #1E235D",
"*  c #1D235E",
"=  c #1D245D",
"-  c #1F2660",
";  c #1F2761",
":  c #1F2861",
">  c #202962",
",  c #202A62",
"<  c #212B62",
"1  c #232C68",
"2  c #242D69",
"3  c #223068",
"4  c #24336A",
"5  c #273669",
"6  c #27326F",
"7  c #26376D",
"8  c #27386F",
"9  c #293471",
"0  c #273A70",
"q  c #283A70",
"w  c #293E73",
"e  c #2C3A77",
"r  c #523B76",
"t  c #6D3765",
"y  c #2F5255",
"u  c #315457",
"i  c #2C4478",
"p  c #2F407C",
"a  c #2F497D",
"s  c #2F497E",
"d  c #304874",
"f  c #304B7E",
"g  c #3B686C",
"h  c #3F6E72",
"j  c #3F6E73",
"k  c #674673",
"l  c #437579",
"z  c #4E7A7E",
"x  c #8F3F5A",
"c  c #304180",
"v  c #314180",
"b  c #314584",
"n  c #344584",
"m  c #354787",
"M  c #324883",
"N  c #304E80",
"B  c #314E81",
"V  c #33418A",
"C  c #34448B",
"Z  c #36478C",
"A  c #36468E",
"S  c #36488F",
"D  c #384B8E",
"F  c #384A8F",
"G  c #384C8F",
"H  c #384D8F",
"J  c #36518A",
"K  c #3A5689",
"L  c #36588A",
"P  c #375B8B",
"I  c #374D91",
"U  c #3B4F94",
"Y  c #3B5092",
"T  c #3D5793",
"R  c #3A5991",
"E  c #3C6084",
"W  c #3D6696",
"Q  c #3D6897",
"!  c #594E80",
"~  c #426D85",
"^  c #41698A",
"/  c #416A8A",
"(  c #436C8D",
")  c #41619C",
"_  c #42609F",
"`  c #466B9B",
"'  c #446A9D",
"]  c #406E9C",
"[  c #416F9D",
"{  c #476E9C",
"}  c #477693",
"|  c #477796",
" . c #41719E",
".. c #5C799F",
"X. c #716183",
"o. c #4362A1",
"O. c #4463A2",
"+. c #436EA2",
"@. c #466EA6",
"#. c #4374A1",
"$. c #4375A1",
"%. c #4470A4",
"&. c #457AA6",
"*. c #467CA7",
"=. c #4C7AA2",
"-. c #4779AA",
";. c #4979AB",
":. c #537BA5",
">. c #4E898E",
",. c #4F869D",
"<. c #508D92",
"1. c #55959B",
"2. c #56989E",
"3. c #4982AC",
"4. c #4A83AD",
"5. c #4B81AF",
"6. c #5286A6",
"7. c #5581A8",
"8. c #548BA8",
"9. c #5792AB",
"0. c #5894AC",
"q. c #5B9CAB",
"w. c #4C84B0",
"e. c #4C86B1",
"r. c #4D89B2",
"t. c #4D89B3",
"y. c #4D8AB3",
"u. c #4E8BB3",
"i. c #4E8CB3",
"p. c #4F8EB3",
"a. c #528EB0",
"s. c #508FB4",
"d. c #5394B4",
"f. c #5495B4",
"g. c #5496B5",
"h. c #5597B5",
"j. c #5798B1",
"k. c #5699B5",
"l. c #5A9DB3",
"z. c #599DB5",
"x. c #5BA1B6",
"c. c #5DA4B6",
"v. c #5EA5B6",
"b. c #5EA6B7",
"n. c #5FA8B7",
"m. c #60A9B7",
"M. c #64AFB6",
"N. c #63AEB8",
"B. c #64B0B8",
"V. c #65B0B8",
"C. c #65B1B8",
"Z. c gray54",
"A. c #89ACB0",
"S. c #93BFC3",
"D. c #88C3C8",
"F. c #B8DBDE",
"G. c gray82",
"H. c None",
/* pixels */
"H.H.H.H.H.H.H.H.H.H.H.H.H.H.H.H.H.H.H.H.H.H.H.H.H.H.H.H.H.H.H.H.H.H.H.H.H.H.H.H.H.H.H.H.H.H.H.H.H.H.",
"H.H.H.H.H.H.H.H.H.H.H.H.H.H.H.H.H.H.H.H.H.H.H.H.H.H.H.H.H.H.H.H.H.H.H.H.H.H.H.H.H.H.H.H.H.H.H.H.H.H.",
"H.H.H.H.H.H.H.H.H.H.H.H.H.H.H.H.H.H.H.H.H.H.H.H.H.H.H.H.H.H.H.H.H.H.H.H.H.H.H.H.H.H.H.H.H.H.H.H.H.H.",
"H.H.H.H.H.H.H.H.H.H.H.H.H.H.H.H.H.H.H.H.H.H.H.H.H.H.H.H.H.H.H.H.H.H.H.H.H.H.H.H.H.H.H.H.H.H.H.H.H.H.",
"H.H.H.H.H.H.H.H.H.H.H.H.H.H.H.H.H.H.H.H.H.H.H.H.H.H.H.H.H.H.H.H.H.H.H.H.H.H.H.H.H.H.H.H.H.H.H.H.H.H.",
"H.H.H.H.H.H.H.H.H.H.H.H.H.H.H.H.H.H.H.H.H.H.H.H.H.H.H.H.H.H.H.H.H.H.H.H.H.H.H.H.H.H.H.H.H.H.H.H.H.H.",
"H.H.H.H.H.H.H.H.H.H.H.H.H.H.H.H.H.H.H.H.H.H.H.H.H.H.H.H.H.H.H.H.H.H.H.H.H.H.H.H.H.H.H.H.H.H.H.H.H.H.",
"H.H.H.H.H.H.H.H.H.H.H.H.H.H.H.H.H.H.H.H.H.H.H.H.H.H.H.H.H.H.H.H.H.H.H.H.H.H.H.H.H.H.H.H.H.H.H.H.H.H.",
"H.H.H.H.H.H.H.H.H.H.H.H.H.H.H.H.H.H.H.H.H.H.H.H.H.H.H.H.H.H.H.H.H.H.H.H.H.H.H.H.H.H.H.H.H.H.H.H.H.H.",
"H.H.H.H.H.H.H.H.H.H.H.H.H.H.H.H.H.H.H.$ * * * * * * * % H.H.H.H.H.H.H.H.H.H.H.H.H.H.H.H.H.H.H.H.H.H.",
"H.H.H.H.H.H.H.H.H.H.H.H.H.H.H.H.H.H.H.q 0 0 0 0 0 0 0 8 H.H.H.H.H.H.H.H.H.H.H.H.H.H.H.H.H.H.H.H.H.H.",
"H.H.H.H.H.H.H.H.H.H.H.H.H.H.H.H.H.$ i &.*.*.*.*.*.*.*.#.w % @ H.H.H.H.H.H.H.H.H.H.H.H.H.H.H.H.H.H.H.",
"H.H.H.H.H.H.H.H.H.H.H.H.H.H.H.H., N Q r.g.z.z.z.z.z.z.j.| / ^ d H.H.H.H.H.H.H.H.H.H.H.H.H.H.H.H.H.H.",
"H.H.H.H.H.H.H.H.H.H.H.H.H.H.H.3 7 [ i.s.c.C.C.C.C.C.C.C.C.C.M.E 5 H.H.H.H.H.H.H.H.H.H.H.H.H.H.H.H.H.",
"H.H.H.H.H.H.H.H.H.H.H.H.H.H.# s $.4.d.n.N.C.C.C.C.C.C.C.C.C.V.q.} < H.H.H.H.H.H.H.H.H.H.H.H.H.H.H.H.",
"H.H.H.H.H.H.H.H.H.H.H.H.H.H.* B y.y.h.B.C.C.C.D.S.z >.C.C.1.g 2.,.< H.H.H.H.H.H.H.H.H.H.H.H.H.H.H.H.",
"H.H.H.H.H.H.H.H.H.H.H.H.H.H.* B y.i.k.V.C.C.C.F.G.+ y C.C.h . l ,.< H.H.H.H.H.H.H.H.H.H.H.H.H.H.H.H.",
"H.H.H.H.H.H.H.H.H.H.H.H.H.H.* B i.z.m.C.C.C.C.F.G.+ y C.C.h . l ,.< H.H.H.H.H.H.H.H.H.H.H.H.H.H.H.H.",
"H.H.H.H.H.H.H.H.H.H.H.H.H.H.* B i.v.C.C.C.C.C.A.Z.O y C.C.h . l ,.< H.H.H.H.H.H.H.H.H.H.H.H.H.H.H.H.",
"H.H.H.H.H.H.H.H.H.H.H.H.H.H.* B i.v.C.C.C.C.C.u X   y C.C.h . l ,.< H.H.H.H.H.H.H.H.H.H.H.H.H.H.H.H.",
"H.H.H.H.H.H.H.H.H.H.H.H.H.H.* B u.d.x.V.6.` ` ~ h h <.C.C.2.j ( K ; H.H.H.H.H.H.H.H.H.H.H.H.H.H.H.H.",
"H.H.H.H.H.H.H.H.H.H.H.H.H.H.* a  .3.d.b.=.T C { 0.0.0.0.0.0.9.' b - H.H.H.H.H.H.H.H.H.H.H.H.H.H.H.H.",
"H.H.H.H.H.H.H.H.H.H.H.H.H.H.H.H.4 ] u.p.l.8.D Z G G G G G G H %.W > H.H.H.H.H.H.H.H.H.H.H.H.H.H.H.H.",
"H.H.H.H.H.H.H.H.H.H.H.H.H.H.H.H.: R ;.t.f.a.+.! t t r V V A U J f H.H.H.H.H.H.H.H.H.H.H.H.H.H.H.H.H.",
"H.H.H.H.H.H.H.H.H.H.H.H.H.H.H.H.- n ) 5.5.w.t.X.x x k I S F Y 9 & H.H.H.H.H.H.H.H.H.H.H.H.H.H.H.H.H.",
"H.H.H.H.H.H.H.H.H.H.H.H.H.H.H.H.H.1 p o.O.@.e.7.....:.-._ m 2 H.H.H.H.H.H.H.H.H.H.H.H.H.H.H.H.H.H.H.",
"H.H.H.H.H.H.H.H.H.H.H.H.H.H.H.H.H.H.6 c v M L P P P P L M e @ H.H.H.H.H.H.H.H.H.H.H.H.H.H.H.H.H.H.H.",
"H.H.H.H.H.H.H.H.H.H.H.H.H.H.H.H.H.H.H.% * * * * * * * * * = H.H.H.H.H.H.H.H.H.H.H.H.H.H.H.H.H.H.H.H.",
"H.H.H.H.H.H.H.H.H.H.H.H.H.H.H.H.H.H.H.H.H.H.H.H.H.H.H.H.H.H.H.H.H.H.H.H.H.H.H.H.H.H.H.H.H.H.H.H.H.H.",
"H.H.H.H.H.H.H.H.H.H.H.H.H.H.H.H.H.H.H.H.H.H.H.H.H.H.H.H.H.H.H.H.H.H.H.H.H.H.H.H.H.H.H.H.H.H.H.H.H.H.",
"H.H.H.H.H.H.H.H.H.H.H.H.H.H.H.H.H.H.o o o o o o o o o o o o o o H.H.H.H.H.H.H.H.H.H.H.H.H.H.H.H.H.H.",
"H.H.H.H.H.H.H.H.H.H.H.H.H.H.H.H.H.H.o o o o o o o o o o o o o o H.H.H.H.H.H.H.H.H.H.H.H.H.H.H.H.H.H.",
"H.H.H.H.H.H.H.H.H.H.H.H.H.H.H.H.o o o o o o o o o o o o o o o o o o H.H.H.H.H.H.H.H.H.H.H.H.H.H.H.H.",
"H.H.H.H.H.H.H.H.H.H.H.H.H.H.H.H.o o o o o o o o o o o o o o o o o o H.H.H.H.H.H.H.H.H.H.H.H.H.H.H.H.",
"H.H.H.H.H.H.H.H.H.H.H.H.H.H.H.H.o o o o o o o o o o o o o o o o o o H.H.H.H.H.H.H.H.H.H.H.H.H.H.H.H.",
"H.H.H.H.H.H.H.H.H.H.H.H.H.H.H.H.H.H.o o o o o o o o o o o o o o H.H.H.H.H.H.H.H.H.H.H.H.H.H.H.H.H.H.",
"H.H.H.H.H.H.H.H.H.H.H.H.H.H.H.H.H.H.o o o o o o o o o o o o o o H.H.H.H.H.H.H.H.H.H.H.H.H.H.H.H.H.H.",
"H.H.H.H.H.H.H.H.H.H.H.H.H.H.H.H.H.H.H.H.H.H.H.H.H.H.H.H.H.H.H.H.H.H.H.H.H.H.H.H.H.H.H.H.H.H.H.H.H.H.",
"H.H.H.H.H.H.H.H.H.H.H.H.H.H.H.H.H.H.H.H.H.H.H.H.H.H.H.H.H.H.H.H.H.H.H.H.H.H.H.H.H.H.H.H.H.H.H.H.H.H.",
"H.H.H.H.H.H.H.H.H.H.H.H.H.H.H.H.H.H.H.H.H.H.H.H.H.H.H.H.H.H.H.H.H.H.H.H.H.H.H.H.H.H.H.H.H.H.H.H.H.H.",
"H.H.H.H.H.H.H.H.H.H.H.H.H.H.H.H.H.H.H.H.H.H.H.H.H.H.H.H.H.H.H.H.H.H.H.H.H.H.H.H.H.H.H.H.H.H.H.H.H.H.",
"H.H.H.H.H.H.H.H.H.H.H.H.H.H.H.H.H.H.H.H.H.H.H.H.H.H.H.H.H.H.H.H.H.H.H.H.H.H.H.H.H.H.H.H.H.H.H.H.H.H.",
"H.H.H.H.H.H.H.H.H.H.H.H.H.H.H.H.H.H.H.H.H.H.H.H.H.H.H.H.H.H.H.H.H.H.H.H.H.H.H.H.H.H.H.H.H.H.H.H.H.H.",
"H.H.H.H.H.H.H.H.H.H.H.H.H.H.H.H.H.H.H.H.H.H.H.H.H.H.H.H.H.H.H.H.H.H.H.H.H.H.H.H.H.H.H.H.H.H.H.H.H.H.",
"H.H.H.H.H.H.H.H.H.H.H.H.H.H.H.H.H.H.H.H.H.H.H.H.H.H.H.H.H.H.H.H.H.H.H.H.H.H.H.H.H.H.H.H.H.H.H.H.H.H.",
"H.H.H.H.H.H.H.H.H.H.H.H.H.H.H.H.H.H.H.H.H.H.H.H.H.H.H.H.H.H.H.H.H.H.H.H.H.H.H.H.H.H.H.H.H.H.H.H.H.H.",
"H.H.H.H.H.H.H.H.H.H.H.H.H.H.H.H.H.H.H.H.H.H.H.H.H.H.H.H.H.H.H.H.H.H.H.H.H.H.H.H.H.H.H.H.H.H.H.H.H.H.",
"H.H.H.H.H.H.H.H.H.H.H.H.H.H.H.H.H.H.H.H.H.H.H.H.H.H.H.H.H.H.H.H.H.H.H.H.H.H.H.H.H.H.H.H.H.H.H.H.H.H.",
"H.H.H.H.H.H.H.H.H.H.H.H.H.H.H.H.H.H.H.H.H.H.H.H.H.H.H.H.H.H.H.H.H.H.H.H.H.H.H.H.H.H.H.H.H.H.H.H.H.H.",
"H.H.H.H.H.H.H.H.H.H.H.H.H.H.H.H.H.H.H.H.H.H.H.H.H.H.H.H.H.H.H.H.H.H.H.H.H.H.H.H.H.H.H.H.H.H.H.H.H.H."
};
