/* XPM */
static char *result[] = {
/* columns rows colors chars-per-pixel */
"50 50 115 2 ",
"   c #010000",
".  c #0A0604",
"X  c #0E0905",
"o  c #05060B",
"O  c #06080E",
"+  c #0D0B0C",
"@  c #120B07",
"#  c #150E09",
"$  c #190F09",
"%  c #1C110B",
"&  c #080A12",
"*  c #060E1B",
"=  c #0C0E1A",
"-  c #1E1511",
";  c #14141D",
":  c #21140C",
">  c #26180E",
",  c #29190E",
"<  c #211613",
"1  c #261A13",
"2  c #2B1C13",
"3  c #261C19",
"4  c #2D1E19",
"5  c #311F13",
"6  c #332114",
"7  c #3C2516",
"8  c #37261B",
"9  c #382619",
"0  c #3D2918",
"q  c #071122",
"w  c #0B172F",
"e  c #0C1932",
"r  c #14213D",
"t  c #3E2C21",
"y  c #2A2C3D",
"u  c #402717",
"i  c #412817",
"p  c #432A19",
"a  c #492E1C",
"s  c #4C311E",
"d  c #50341F",
"f  c #412E23",
"g  c #423024",
"h  c #4C3423",
"j  c #4B3529",
"k  c #4F392B",
"l  c #523621",
"z  c #573A23",
"x  c #583A27",
"c  c #523A2C",
"v  c #5B3D29",
"b  c #433432",
"n  c #4A3733",
"m  c #4D3D37",
"M  c #4C3E3A",
"N  c #5F402A",
"B  c #4F413C",
"V  c #63422E",
"C  c #69482F",
"Z  c #654531",
"A  c #6D4B33",
"S  c #6D4D3A",
"D  c #714D37",
"F  c #75523C",
"G  c #7B553D",
"H  c #10254B",
"J  c #11284F",
"K  c #132D5B",
"L  c #262C43",
"P  c #2C2E40",
"I  c #313347",
"U  c #33374D",
"Y  c #1C376D",
"T  c #1D3A71",
"R  c #1D3E7D",
"E  c #2F436E",
"W  c #364062",
"Q  c #3B4362",
"!  c #32456E",
"~  c #21407E",
"^  c #37517E",
"/  c #38517D",
"(  c #7E5941",
")  c #7C5A48",
"_  c #755F5F",
"`  c #7A625F",
"'  c #675B66",
"]  c #625968",
"[  c #80593F",
"{  c #835C43",
"}  c #815D4A",
"|  c #876047",
" . c #8A6146",
".. c #866049",
"X. c #8D644A",
"o. c #92674C",
"O. c #956A4E",
"+. c #9A6D51",
"@. c #A27356",
"#. c #A47558",
"$. c #A8785B",
"%. c #1D4383",
"&. c #1F4790",
"*. c #1F4890",
"=. c #214180",
"-. c #294784",
";. c #2E4882",
":. c #3B5683",
">. c #224E97",
",. c #224E98",
"<. c #23519B",
"1. c #2556A0",
"2. c #285CA9",
"3. c #2A60AF",
"4. c None",
/* pixels */
"4.4.4.4.4.4.4.4.4.4.4.4.4.4.4.4.4.4.4.4.4.4.4.4.4.4.4.4.4.4.4.4.4.4.4.4.4.4.4.4.4.4.4.4.4.4.4.4.4.4.",
"4.4.4.4.4.4.4.4.4.4.4.4.4.4.4.4.4.4.4.4.4.4.4.4.4.4.4.4.4.4.4.4.4.4.4.4.4.4.4.4.4.4.4.4.4.4.4.4.4.4.",
"4.4.4.4.4.4.4.4.4.4.4.4.4.4.4.4.4.4.4.4.4.4.4.4.4.4.4.4.4.4.4.4.4.4.4.4.4.4.4.4.4.4.4.4.4.4.4.4.4.4.",
"4.4.4.4.4.4.4.4.4.4.4.4.4.4.4.4.4.4.4.4.4.4.4.4.4.4.4.4.4.4.4.4.4.4.4.4.4.4.4.4.4.4.4.4.4.4.4.4.4.4.",
"4.4.4.4.4.4.4.4.4.4.4.4.4.4.4.4.4.4.4.4.4.4.4.4.4.4.4.4.4.4.4.4.4.4.4.4.4.4.4.4.4.4.4.4.4.4.4.4.4.4.",
"4.4.4.4.4.4.4.4.4.4.4.4.4.4.4.4.4.4.4.4.4.4.4.4.4.4.4.4.4.4.4.4.4.4.4.4.4.4.4.4.4.4.4.4.4.4.4.4.4.4.",
"4.4.4.4.4.4.4.4.4.4.4.4.4.4.4.4.4.4.4.4.4.4.4.4.4.4.4.4.4.4.4.4.4.4.4.4.4.4.4.4.4.4.4.4.4.4.4.4.4.4.",
"4.4.4.4.4.4.4.4.4.4.4.4.4.4.4.4.4.4.4.4.4.4.4.4.4.4.4.4.4.4.4.4.4.4.4.4.4.4.4.4.4.4.4.4.4.4.4.4.4.4.",
"4.4.4.4.4.4.4.4.4.4.4.4.4.4.4.4.4.4.4.4.4.        4.4.                4.4.4.4.4.4.4.4.4.4.4.4.4.4.4.",
"4.4.4.4.4.4.4.4.4.4.4.4.4.4.4.4.4.4.4.4.    . @ # 4.4.@ @ # # # # .   4.4.4.4.4.4.4.4.4.4.4.4.4.4.4.",
"4.4.4.4.4.4.4.4.4.4.4.4.4.4.4.4.4.          @ 6 6 # X : 6 9 p p 9 %   4.4.4.4.4.4.4.4.4.4.4.4.4.4.4.",
"4.4.4.4.4.4.4.4.4.4.4.4.4.4.4.4.X X @ @ # # > a p : % 6 p l l s 0 %   4.4.4.4.4.4.4.4.4.4.4.4.4.4.4.",
"4.4.4.4.4.4.4.4.4.4.4.4.4.4.4.  # , 6 9 p 0 a d s 6 6 a l z s 6 # X   4.4.4.4.4.4.4.4.4.4.4.4.4.4.4.",
"4.4.4.4.4.4.4.4.4.4.4.4.4.4.4.  % 0 s d d d z N d a a l z z s 2 X X . . 4.4.4.4.4.4.4.4.4.4.4.4.4.4.",
"4.4.4.4.4.4.4.4.4.4.4.4.4.4.4.  > s d z z N d N z d l l z z z a 7 5 , #   4.4.4.4.4.4.4.4.4.4.4.4.4.",
"4.4.4.4.4.4.4.4.4.4.4.4.4.4.. . , d z z d N z z z z z z z z z z l s i : . . 4.4.4.4.4.4.4.4.4.4.4.4.",
"4.4.4.4.4.4.4.4.4.4.4.4.4.  $ > 9 d N d z z z z z z N z z z z z z d d 7 , $   4.4.4.4.4.4.4.4.4.4.4.",
"4.4.4.4.4.4.4.4.4.4.4.4.    % 7 s d d N z z z z z z z z z z z z z z z a 7 :     4.4.4.4.4.4.4.4.4.4.",
"4.4.4.4.4.4.4.4.4.4.4.4.    % 7 d d z z z z z z z z z z z z z z z z z a u :     4.4.4.4.4.4.4.4.4.4.",
"4.4.4.4.4.4.4.4.4.4.4.4.    % 7 s z z z z z z N z z z z z z z z z z z a u :     4.4.4.4.4.4.4.4.4.4.",
"4.4.4.4.4.4.4.4.4.4.4.4.    % 7 s d z z z z z z z z z z z z z z z z z d u :     4.4.4.4.4.4.4.4.4.4.",
"4.4.4.4.4.4.4.4.4.4.4.4.    % 7 s d d N z z z z z z z z z z z z z z l a u :     4.4.4.4.4.4.4.4.4.4.",
"4.4.4.4.4.4.4.4.4.4.4.4.    % 7 a s d d z z z z z z z z z z z z z d a p 7 :     4.4.4.4.4.4.4.4.4.4.",
"4.4.4.4.4.4.4.4.4.4.4.4.    % 7 i i a d z z z z z z z z z z N z z a i u 7 :     4.4.4.4.4.4.4.4.4.4.",
"4.4.4.4.4.4.4.4.4.4.4.4.4.  # : 5 u p s s s d z z z z z d d s s s p u u u :     4.4.4.4.4.4.4.4.4.4.",
"4.4.4.4.4.4.4.4.4.4.4.4.4.4.4.  : 5 u i u u a l z z z z z s i i u u u u u :     4.4.4.4.4.4.4.4.4.4.",
"4.4.4.4.4.4.4.4.4.4.4.4.4.4.4.  $ 5 u u u u p a d d s s s i i i u u 7 5 : $   4.4.4.4.4.4.4.4.4.4.4.",
"4.4.4.4.4.4.4.4.4.4.4.4.4.4.4.  % u u u u u i p p p i p i i i i u u 7 : .   4.4.4.4.4.4.4.4.4.4.4.4.",
"4.4.4.4.4.4.4.4.4.4.4.4.4.4.4.  5 N x a i i u u i i i i i i i i p x V 4     4.4.4.4.4.4.4.4.4.4.4.4.",
"4.4.4.4.4.4.4.4.4.4.4.4.4.4.4.  f X.G h i i u u i i i i i i i i a F O.j     4.4.4.4.4.4.4.4.4.4.4.4.",
"4.4.4.4.4.4.4.4.4.4.4.4.4.4.4.  t S A Z V V x a u u i i a d V V Z S S t   4.4.4.4.4.4.4.4.4.4.4.4.4.",
"4.4.4.4.4.4.4.4.4.4.4.4.4.4.4.4.$ < k { +.O.[ d u u i i d G +.+.X.c - % 4.4.4.4.4.4.4.4.4.4.4.4.4.4.",
"4.4.4.4.4.4.4.4.4.4.4.4.4.4.4.4.4.  8 ( +.$.O.D V N V N A o.$.@.{ 0   4.4.4.4.4.4.4.4.4.4.4.4.4.4.4.",
"4.4.4.4.4.4.4.4.4.4.4.4.4.4.4.4.4.  2 v ( @.#.+.o.O.O.o.+.#.@.[ V ,   4.4.4.4.4.4.4.4.4.4.4.4.4.4.4.",
"4.4.4.4.4.4.4.4.4.4.4.4.4.4.4.4.4.  : s A  .O.O.O.O.O.O.+.O. .A s >   4.4.4.4.4.4.4.4.4.4.4.4.4.4.4.",
"4.4.4.4.4.4.4.4.4.4.4.4.4.4.4.4.4.  : s N C A A A A A A C D C V l 1   4.4.4.4.4.4.4.4.4.4.4.4.4.4.4.",
"4.4.4.4.4.4.4.4.4.4.4.4.4.4.4.4.- 1 8 s l z z x z z z z z z z l s 9 1 - 4.4.4.4.4.4.4.4.4.4.4.4.4.4.",
"4.4.4.4.4.4.4.4.4.4.4.4.4.4.4.  t S Z h s z z x z z z z z z z s h Z F g   4.4.4.4.4.4.4.4.4.4.4.4.4.",
"4.4.4.4.4.4.4.4.4.4.4.4.4.4.4.  j +.} n b M M B B m m B B B B b b ) @.k     4.4.4.4.4.4.4.4.4.4.4.4.",
"4.4.4.4.4.4.4.4.4.4.4.4.4.4.4.  j +.` Q E ^ :.:./ ! ! / :.:./ ! W ` @.k     4.4.4.4.4.4.4.4.4.4.4.4.",
"4.4.4.4.4.4.4.4.4.4.4.4.4.4.4.  f } ' ^ >.2.3.3.1.%.%.<.3.2.2.>.-.] X.j   4.4.4.4.4.4.4.4.4.4.4.4.4.",
"4.4.4.4.4.4.4.4.4.4.4.4.4.4.4.O 3 t U ~ &.>.,.,.%.J H R <.,.>.>.%.U t 3 O 4.4.4.4.4.4.4.4.4.4.4.4.4.",
"4.4.4.4.4.4.4.4.4.4.4.4.4.4.4.4.o   w Y ~ ~ R R K q * K R R ~ ~ T e   o 4.4.4.4.4.4.4.4.4.4.4.4.4.4.",
"4.4.4.4.4.4.4.4.4.4.4.4.4.4.4.4.O   ; P I I L r e = * w r L I I P ;   o 4.4.4.4.4.4.4.4.4.4.4.4.4.4.",
"4.4.4.4.4.4.4.4.4.4.4.4.4.4.= = o   $ 5 u 7 2 X o & &   . 2 7 7 9 $   O = = = 4.4.4.4.4.4.4.4.4.4.4.",
"4.4.4.4.4.4.4.4.4.4.4.4.4.4.= = & O # 3 4 4 < + O & & O + < 4 4 3 % o & = = = 4.4.4.4.4.4.4.4.4.4.4.",
"4.4.4.4.4.4.4.4.4.4.4.4.4.4.4.= = = = = = = = = = = = = = = = = = = = = = 4.4.4.4.4.4.4.4.4.4.4.4.4.",
"4.4.4.4.4.4.4.4.4.4.4.4.4.4.4.4.= = = = = = = = = = = = = = = = = = = = 4.4.4.4.4.4.4.4.4.4.4.4.4.4.",
"4.4.4.4.4.4.4.4.4.4.4.4.4.4.4.4.= = = = = = = = = = = = = = = = = = = = 4.4.4.4.4.4.4.4.4.4.4.4.4.4.",
"4.4.4.4.4.4.4.4.4.4.4.4.4.4.4.4.4.4.4.4.4.4.4.4.4.4.4.4.4.4.4.4.4.4.4.4.4.4.4.4.4.4.4.4.4.4.4.4.4.4."
};
