/* XPM */
static char *result[] = {
/* columns rows colors chars-per-pixel */
"50 50 30 1 ",
"  c #242A3E",
". c #272D41",
"X c #282F43",
"o c #2A3146",
"O c #2D354A",
"+ c #30374D",
"@ c #30384F",
"# c #343C53",
"$ c #373F58",
"% c #374058",
"& c #3A435C",
"* c #3D4761",
"= c #3F4963",
"- c #414B66",
"; c #444E6A",
": c #46516D",
"> c #48526F",
", c #4B5572",
"< c #4E5976",
"1 c #4F5A78",
"2 c #525D7C",
"3 c #54607F",
"4 c #566282",
"5 c #596685",
"6 c #5B6788",
"7 c #5D6A8B",
"8 c #606D8F",
"9 c #616F90",
"0 c #657295",
"q c #677598",
/* pixels */
"o#==:175<-----#OO%:482:---------;=#@O&*------,832;",
"XO#*=,41>--=&#Ooo#*,3,;---------*%@  @%&----->11,;",
"..O#*;::-=-&#OX..X#*:;--;;;;;;;-&@+   %%***=*->>-*",
"  .O#&%%&&&#@.    o@%&&-:,<,,<,;=%     %%&&&&&&&&&",
"   ooOoOOOooX     .XoO@-36777774<&@     O  +OO +oo",
" .oO@###@#@#@#oX    .O%>6q0087773<&O  OO@%##@#####",
"oO#-:,,,<,,,,<&@   .o&>39qq8421233-% %&-,,,,,,,,<<",
"O%;27077799997,&o..o#:3889863,>,33>&@*,38888889888",
"&:270qqqqqqqqq5,&OO&:114333333>>,3>*&,38qqqqqqqq0q",
",370qq0009000096<##;41>;:::<47<:-:-:<380qqqq000q09",
"470q0964444454772##-1,;;-;-:13,:-;>338qqq833333333",
"7700961<,,>,>>352##&:;;==--;>>:==*<3899083<><<,,<,",
"q77653:==;=:==,1,@+#=;=;;=;==--=*&>308833<;-;=;=;-",
"95<,>::-;==;=:::-OO%==;==;=;--==&+-383<,<>;-=;=;--",
"2,::::-==:=====&#oo@%&&%%&%%&%&%+ %:1,:;;;--;=;=--",
"==--===:===;:=&%OXoo@@@@@@@@O@@OO O%*-------===;--",
"+&-;;;--=-&--;&@ooooXXXXXX.    X  + %*,>:---===--;",
",2232<:&%@#%;31,::>>>>,>;*o.  o#*,>,,3333<-&%@@&>3",
"665754>-@o+&,776643344455,&+X.$-<338383333,&@O@*18",
"0854442;#o#;3qqq8655445796,&Oo*18qqqq38333<*@ &<3q",
"83>>>26<%O>50qq08<>;::,48081&o>6qqqq81>>,33>@%<3qq",
"2,;-;>2>#O,676652>;-;>,4555>#o>7q3333>;-><3;@%3886",
",;;-;;>&@O,55<<<>;--;,42<<,-@o>331<,>;;-->;&O%333,",
"------&#OO:1<;--;--;:242:--&+o-,<;--;---**&@ %<3,;",
"----=&@OXo&:>-------;:,,;--&O.@%*-------*%%  @->>-",
"&&&&&#o. o%&---------;---=*#o .o#**&*&**&%    %&--",
"##O#@O.   O@%-----=---=--&#OX  . %%%+%+%+    OO%*-",
"..ooOOOOOOO#%&&-==-::::::=%@OOOO        @@OOO+O%*;",
"  X@=-;-=:-=&###%*:,33333<::-;-=%      %-;;;;;-:,3",
"  +-27777561;Ooo@=,4797997665652>     #>3883678688",
"o@-27q087441;#Oo@;2700qq09644442,-&  *:390qq00q963",
"+-270q073>,>-&@@#<700000062,,,,<13:#@,38qqqqq0083,",
"@,8q0073,-----##%388888853>;---;<5:%%38qqqq98863<;",
"@,8q082>:-----#@&383<>,<,>;----;:<=#@39qqq982<<>;-",
"@;38652,:-----##%<33<,:;;;------;;%+@<578853,:,>;-",
"O*,22331>----;#O@;333,;-----------%++-<312<>::22,=",
"o#=-;183<;====#OO&>383:----------=#Oo%&;----;,653-",
" O@&->1<>=;=&#OXo@&:,,;--------=&@Oo +#&-----:1<:-",
"  O#&---=**%#X..  +&-==-;::::::;&@oo oO%&*&=&--;=*",
"   O@%%#$$$#o.     +@%&-,221131,;@O    +##%#%%##%&",
"    XXXX.XX..       ooO-399999963=%o    ooXXXXo   ",
" o+#$&&&&%&&&&+.     @*<7q0076653<&O o+%&&&&&&&&&%",
"o@&:<222122222-#    +&<590073<<133;%o%&><222222233",
"@&>380q0qqq0002&OooO%,387894,--:<8,&@=<5000000qq00",
"*,480qqqqqqqqq72;O@&<<<<1<<,:--::<:==<59qqqqqqqqqq",
"<480qq9999998886<@%;3<>:::::----;;;:<69qq088888888",
"580qq744232222673%#=<>:=--=-----=;,3690q9853223233",
"809075,:::::>;241#@%-:----------==,3980883>:>::>::",
"06553<:-------,,>@O%-----------=&%:305333<;-------",
"93<>>:;-------:;=OO#=----------&%O-383<<>:;-----=-"
};
